<?xml version="1.0" encoding="UTF-8" standalone="no"?>
<!-- Created with Inkscape (http://www.inkscape.org/) -->

<svg
   width="360"
   height="240"
   id="svg2"
   version="1.1"
   inkscape:version="1.3 (0e150ed, 2023-07-21)"
   sodipodi:docname="rebel jibauni capital.svg"
   inkscape:export-filename="rebel jibauni capital pregimp.png"
   inkscape:export-xdpi="96.436363"
   inkscape:export-ydpi="96.436363"
   xmlns:inkscape="http://www.inkscape.org/namespaces/inkscape"
   xmlns:sodipodi="http://sodipodi.sourceforge.net/DTD/sodipodi-0.dtd"
   xmlns="http://www.w3.org/2000/svg"
   xmlns:svg="http://www.w3.org/2000/svg"
   xmlns:rdf="http://www.w3.org/1999/02/22-rdf-syntax-ns#"
   xmlns:cc="http://creativecommons.org/ns#"
   xmlns:dc="http://purl.org/dc/elements/1.1/">
  <defs
     id="defs4">
    <inkscape:perspective
       sodipodi:type="inkscape:persp3d"
       inkscape:vp_x="0 : 120 : 1"
       inkscape:vp_y="0 : 1000 : 0"
       inkscape:vp_z="360 : 120 : 1"
       inkscape:persp3d-origin="180 : 80 : 1"
       id="perspective5" />
    <filter
       style="color-interpolation-filters:sRGB;"
       height="1"
       width="1"
       y="0"
       x="0"
       inkscape:label="Brilliance"
       id="filter241">
      <feColorMatrix
         values="0.299 0.587 0.114 0 0 0.299 0.587 0.114 0 0 0.299 0.587 0.114 0 0 0 0 0 1 0 "
         type="matrix"
         result="fbSourceGraphic"
         id="feColorMatrix239" />
      <feColorMatrix
         result="fbSourceGraphicAlpha"
         in="fbSourceGraphic"
         values="0 0 0 -1 0 0 0 0 -1 0 0 0 0 -1 0 0 0 0 1 0"
         id="feColorMatrix327" />
      <feColorMatrix
         id="feColorMatrix329"
         values="1.34 -0.61 -0.61 0 0.4 -0.61 1.34 -0.61 0 0.4 -0.61 -0.61 1.34 0 0.4 0 0 0 1 0 "
         in="fbSourceGraphic" />
    </filter>
  </defs>
  <sodipodi:namedview
     id="base"
     pagecolor="#ffffff"
     bordercolor="#666666"
     borderopacity="1.0"
     inkscape:pageopacity="0.0"
     inkscape:pageshadow="2"
     inkscape:zoom="4.0305556"
     inkscape:cx="180"
     inkscape:cy="134.96899"
     inkscape:document-units="px"
     inkscape:current-layer="layer1"
     showgrid="false"
     inkscape:object-nodes="true"
     inkscape:window-width="1920"
     inkscape:window-height="1027"
     inkscape:window-x="0"
     inkscape:window-y="25"
     inkscape:window-maximized="0"
     inkscape:showpageshadow="2"
     inkscape:pagecheckerboard="0"
     inkscape:deskcolor="#d1d1d1">
    <inkscape:grid
       type="xygrid"
       id="grid2982"
       empspacing="5"
       visible="false"
       enabled="true"
       snapvisiblegridlinesonly="true"
       originx="0"
       originy="0"
       spacingy="1"
       spacingx="1"
       units="px" />
  </sodipodi:namedview>
  <metadata
     id="metadata7">
    <rdf:RDF>
      <cc:Work
         rdf:about="">
        <dc:format>image/svg+xml</dc:format>
        <dc:type
           rdf:resource="http://purl.org/dc/dcmitype/StillImage" />
        <dc:title />
      </cc:Work>
    </rdf:RDF>
  </metadata>
  <g
     inkscape:label="Layer 1"
     inkscape:groupmode="layer"
     id="layer1"
     transform="translate(0,-812.36217)">
    <rect
       style="fill:#fcfcfc;fill-opacity:1;stroke:none"
       id="rect2984"
       width="340"
       height="220"
       x="10"
       y="10"
       rx="5"
       ry="5"
       transform="translate(0,812.36217)" />
    <path
       style="fill:#f7ce36;fill-opacity:1;stroke:none"
       d="m 60,10 75,25 215,0 0,-20 c 0,-3 -2,-5 -5,-5 z"
       id="path3760"
       inkscape:connector-curvature="0"
       transform="translate(0,812.36217)"
       sodipodi:nodetypes="cccccc" />
    <path
       style="fill:#bcc922;fill-opacity:1;stroke:none"
       d="m 10,30 160,0 30,-20 -185,0 c -3,0 -5,2 -5,5 z"
       id="path3754"
       inkscape:connector-curvature="0"
       transform="translate(0,812.36217)"
       sodipodi:nodetypes="cccccc" />
    <text
       xml:space="preserve"
       style="font-style:normal;font-variant:normal;font-weight:normal;font-stretch:normal;line-height:0%;font-family:Ubuntu;-inkscape-font-specification:Ubuntu;text-align:start;letter-spacing:0px;word-spacing:0px;writing-mode:lr-tb;text-anchor:start;fill:#ffffff;fill-opacity:1;stroke:none"
       x="15"
       y="838.36218"
       id="text3756"><tspan
         sodipodi:role="line"
         id="tspan3758"
         x="15"
         y="838.36218"
         style="font-size:14px;line-height:1.67;letter-spacing:0.5px;fill:#ffffff;fill-opacity:1">Tamarud Rayie</tspan></text>
    <text
       id="text3781"
       y="838.36218"
       x="344.5"
       style="font-style:normal;font-variant:normal;font-weight:normal;font-stretch:normal;font-size:13.3333px;line-height:0%;font-family:Ubuntu;-inkscape-font-specification:'Ubuntu, Normal';font-variant-ligatures:normal;font-variant-caps:normal;font-variant-numeric:normal;font-feature-settings:normal;text-align:end;letter-spacing:0px;word-spacing:0px;writing-mode:lr-tb;text-anchor:end;fill:#ffffff;fill-opacity:1;stroke:none"
       xml:space="preserve"><tspan
         sodipodi:role="line"
         id="tspan192"
         x="344.5"
         y="838.36218">Khayri Rukhsa</tspan></text>
    <ellipse
       style="fill:#aa4aa6;fill-opacity:1"
       id="path2"
       cx="108.57143"
       cy="896.29071"
       rx="92.85714"
       ry="19.642857" />
    <text
       xml:space="preserve"
       style="font-style:normal;font-variant:normal;font-weight:normal;font-stretch:normal;line-height:0%;font-family:Ubuntu;-inkscape-font-specification:Ubuntu;text-align:center;letter-spacing:0px;word-spacing:0px;writing-mode:lr-tb;text-anchor:middle;fill:#ffffff;fill-opacity:1;stroke:none"
       x="61.32143"
       y="900.26843"
       id="text3793"><tspan
         sodipodi:role="line"
         id="tspan3795"
         x="61.57143"
         y="900.26843"
         style="font-size:12px;line-height:1.67;text-align:center;letter-spacing:0.5px;text-anchor:middle;fill:#000000;fill-opacity:1">MAL-COZ</tspan></text>
    <text
       xml:space="preserve"
       style="font-style:normal;font-variant:normal;font-weight:normal;font-stretch:normal;line-height:0%;font-family:Ubuntu;-inkscape-font-specification:Ubuntu;text-align:center;letter-spacing:0px;word-spacing:0px;writing-mode:lr-tb;text-anchor:middle;fill:#ffffff;fill-opacity:1;stroke:none"
       x="139.17857"
       y="900.26843"
       id="text3801"><tspan
         sodipodi:role="line"
         id="tspan3803"
         x="139.42857"
         y="900.26843"
         style="font-size:12px;line-height:1.67;text-align:center;letter-spacing:0.5px;text-anchor:middle;fill:#000000;fill-opacity:1">REYNOLDAT</tspan></text>
    <circle
       id="path3917"
       style="fill:#ff7722;fill-opacity:1;stroke:none;stroke-width:1.07331"
       cx="48"
       cy="1010.3622"
       r="12" />
    <text
       xml:space="preserve"
       style="font-style:normal;font-variant:normal;font-weight:normal;font-stretch:normal;line-height:0%;font-family:Ubuntu;-inkscape-font-specification:Ubuntu;text-align:center;letter-spacing:0px;word-spacing:0px;writing-mode:lr-tb;text-anchor:middle;fill:#2277cb;fill-opacity:1;stroke:none"
       x="48"
       y="1029.3622"
       id="text3923"><tspan
         style="font-size:6px;line-height:120%;fill:#2277cb;fill-opacity:1"
         id="tspan3927"
         sodipodi:role="line"
         x="48"
         y="1029.3622">MUQATILIN JAYIID</tspan></text>
    <rect
       style="fill:#5ad622"
       id="rect1"
       width="17.543655"
       height="13.333178"
       x="55.43795"
       y="934.11511"
       rx="5"
       ry="5" />
    <path
       sodipodi:type="star"
       style="fill:#5a2922;fill-opacity:1"
       id="path1"
       inkscape:flatsided="false"
       sodipodi:sides="6"
       sodipodi:cx="252.27776"
       sodipodi:cy="54.736202"
       sodipodi:r1="18.245401"
       sodipodi:r2="10.710049"
       sodipodi:arg1="1.1760052"
       sodipodi:arg2="1.699604"
       inkscape:rounded="0"
       inkscape:randomized="0"
       d="m 259.29522,71.578111 -8.39319,-6.220585 -9.70106,3.876931 1.19059,-10.379005 -8.20806,-6.462904 9.58378,-4.15842 1.49301,-10.339835 8.39319,6.220585 9.70107,-3.876931 -1.1906,10.379006 8.20806,6.462903 -9.58378,4.158421 z"
       transform="translate(0,812.36217)" />
    <path
       sodipodi:type="star"
       style="fill:#5a298b;fill-opacity:1"
       id="path3"
       inkscape:flatsided="false"
       sodipodi:sides="9"
       sodipodi:cx="124.20908"
       sodipodi:cy="124.91083"
       sodipodi:r1="22.127272"
       sodipodi:r2="19.250727"
       sodipodi:arg1="1.0929653"
       sodipodi:arg2="1.4420311"
       inkscape:rounded="0"
       inkscape:randomized="0"
       d="m 134.3844,144.55972 -7.70334,-0.55754 -7.3073,2.50114 -5.54272,-5.37871 -7.20541,-2.78105 -0.7886,-7.68313 -3.73205,-6.76196 4.33452,-6.39252 1.48759,-7.57888 7.42946,-2.11078 6.01118,-4.84955 7.04808,3.15862 7.72206,0.14894 3.36882,6.95005 5.8197,5.07774 -1.88674,7.48949 1.19425,7.6306 -6.25948,4.52452 z"
       transform="translate(0,812.36217)"
       inkscape:transform-center-x="0.49339623"
       inkscape:transform-center-y="-0.17579469" />
    <path
       sodipodi:type="star"
       style="fill:#5a8f8b;fill-opacity:1"
       id="path4"
       inkscape:flatsided="false"
       sodipodi:sides="20"
       sodipodi:cx="201.75204"
       sodipodi:cy="112.63027"
       sodipodi:r1="20.870316"
       sodipodi:r2="3.5479536"
       sodipodi:arg1="1.2809498"
       sodipodi:arg2="1.4380295"
       inkscape:rounded="0.3"
       inkscape:randomized="0"
       d="m 207.71689,132.63004 c -4.99505,1.48975 -0.32858,-17.17305 -5.49518,-16.48304 -5.1666,0.69001 4.2339,17.47414 -0.97703,17.34742 -5.21093,-0.12672 4.99427,-16.43408 -0.13268,-17.3744 -5.12696,-0.94033 -1.37313,17.92723 -6.28986,16.19645 -4.91674,-1.73078 9.82824,-14.08642 5.24279,-16.56504 -4.58544,-2.47862 -6.84574,16.6255 -10.98699,13.46007 -4.14125,-3.16543 13.70016,-10.35989 10.10507,-14.13418 -3.59508,-3.77429 -11.64824,13.69634 -14.60864,9.40612 -2.96039,-4.29021 16.23101,-5.61925 13.9782,-10.31976 -2.25281,-4.7005 -15.31054,9.42648 -16.80029,4.43144 -1.48975,-4.99505 17.17305,-0.32858 16.48304,-5.49518 -0.69002,-5.1666 -17.47414,4.2339 -17.34742,-0.97703 0.12671,-5.21094 16.43407,4.99427 17.3744,-0.13269 0.94033,-5.12695 -17.92724,-1.37312 -16.19645,-6.28986 1.73078,-4.91673 14.08642,9.82825 16.56504,5.2428 2.47862,-4.58545 -16.6255,-6.84574 -13.46007,-10.986993 3.16542,-4.14125 10.35989,13.700163 14.13417,10.105073 3.77429,-3.59508 -13.69633,-11.648247 -9.40612,-14.608639 4.29022,-2.960393 5.61926,16.231009 10.31976,13.978199 4.70051,-2.25281 -9.42648,-15.310544 -4.43143,-16.800296 4.99505,-1.489751 0.32858,17.173046 5.49518,16.483036 5.1666,-0.69001 -4.2339,-17.474133 0.97703,-17.347416 5.21093,0.126718 -4.99427,16.434076 0.13268,17.374406 5.12696,0.94032 1.37313,-17.927239 6.28986,-16.196457 4.91674,1.730782 -9.82824,14.086417 -5.24279,16.565037 4.58544,2.47862 6.84574,-16.625492 10.98699,-13.460067 4.14125,3.165426 -13.70016,10.359887 -10.10508,14.134177 3.59509,3.77429 11.64825,-13.696335 14.60865,-9.40612 2.96039,4.29022 -16.23101,5.61926 -13.9782,10.31976 2.25281,4.70051 15.31054,-9.42648 16.80029,-4.43143 1.48975,4.99505 -17.17305,0.32857 -16.48304,5.49517 0.69002,5.1666 17.47414,-4.2339 17.34742,0.97704 -0.12672,5.21093 -16.43408,-4.99427 -17.3744,0.13268 -0.94033,5.12695 17.92724,1.37313 16.19645,6.28986 -1.73078,4.91673 -14.08642,-9.82824 -16.56504,-5.2428 -2.47862,4.58545 16.6255,6.84575 13.46007,10.987 -3.16542,4.14125 -10.35989,-13.70016 -14.13417,-10.10508 -3.77429,3.59509 13.69633,11.64825 9.40612,14.60864 -4.29022,2.9604 -5.61926,-16.231 -10.31977,-13.97819 -4.7005,2.2528 9.42649,15.31054 4.43144,16.80029 z"
       transform="translate(0,812.36217)" />
    <path
       sodipodi:type="star"
       style="fill:#5a8f34;fill-opacity:1"
       id="path5"
       inkscape:flatsided="false"
       sodipodi:sides="20"
       sodipodi:cx="212.97998"
       sodipodi:cy="174.38393"
       sodipodi:r1="30.598469"
       sodipodi:r2="5.2017393"
       sodipodi:arg1="0.85843873"
       sodipodi:arg2="1.0155184"
       inkscape:rounded="0.3"
       inkscape:randomized="0"
       d="m 232.97975,197.54155 c -5.78374,4.99505 -10.76359,-22.7662 -17.25752,-18.73743 -6.49393,4.02878 16.16678,20.82099 9.12256,23.78428 -7.04422,2.9633 -3.20164,-24.97807 -10.62269,-23.15321 -7.42106,1.82485 8.94148,24.79774 1.32632,25.43922 -7.61516,0.64148 4.67372,-24.74492 -2.94804,-25.30261 -7.62176,-0.55769 0.84093,26.34712 -6.59974,24.60399 -7.44068,-1.74313 12.09156,-22.08956 5.01518,-24.97521 -7.07639,-2.88565 -7.34193,25.31746 -13.87978,21.36036 -6.53785,-3.95711 18.32581,-17.27193 12.48748,-22.20306 -5.83832,-4.93114 -14.80612,21.80955 -19.80116,16.02581 -4.99505,-5.78374 22.7662,-10.76358 18.73742,-17.25751 -4.02877,-6.49393 -20.82098,16.16678 -23.78428,9.12256 -2.9633,-7.04422 24.97808,-3.20164 23.15322,-10.6227 -1.82486,-7.42105 -24.79774,8.94149 -25.43922,1.32633 -0.64148,-7.61516 24.74492,4.67371 25.30261,-2.94804 0.55769,-7.62176 -26.34712,0.84093 -24.60399,-6.59975 1.74313,-7.44067 22.08956,12.09157 24.97521,5.01518 2.88564,-7.07638 -25.31747,-7.34193 -21.36036,-13.87978 3.95711,-6.53784 17.27192,18.32582 22.20306,12.48749 4.93113,-5.83833 -21.80956,-14.80612 -16.02582,-19.80117 5.78374,-4.99505 10.76359,22.7662 17.25752,18.73743 6.49393,-4.02878 -16.16678,-20.82098 -9.12256,-23.78428 7.04422,-2.9633 3.20164,24.97807 10.62269,23.15322 7.42106,-1.82486 -8.94148,-24.79774 -1.32632,-25.43922 7.61516,-0.64149 -4.67371,24.74492 2.94804,25.30261 7.62176,0.55769 -0.84093,-26.34712 6.59974,-24.604 7.44068,1.74313 -12.09156,22.08957 -5.01518,24.97521 7.07639,2.88565 7.34193,-25.31746 13.87978,-21.36035 6.53785,3.95711 -18.32581,17.27192 -12.48748,22.20305 5.83833,4.93114 14.80612,-21.80955 19.80117,-16.02581 4.99504,5.78374 -22.76621,10.76358 -18.73743,17.25752 4.02877,6.49393 20.82098,-16.16678 23.78428,-9.12256 2.9633,7.04422 -24.97808,3.20163 -23.15322,10.62269 1.82486,7.42105 24.79774,-8.94149 25.43922,-1.32632 0.64148,7.61516 -24.74492,-4.67372 -25.30261,2.94804 -0.55769,7.62175 26.34712,-0.84094 24.60399,6.59974 -1.74313,7.44068 -22.08956,-12.09157 -24.9752,-5.01518 -2.88565,7.07638 25.31746,7.34193 21.36035,13.87978 -3.95711,6.53785 -17.27192,-18.32581 -22.20306,-12.48749 -4.93113,5.83833 21.80956,14.80612 16.02582,19.80117 z"
       transform="translate(0,812.36217)" />
    <ellipse
       style="fill:#d18f34;fill-opacity:1"
       id="path6"
       cx="316.66296"
       cy="986.04437"
       rx="12.455996"
       ry="51.227474" />
    <ellipse
       style="fill:#d18fde;fill-opacity:1"
       id="path7"
       cx="263.33026"
       cy="947.97461"
       rx="25.789173"
       ry="48.245052" />
  </g>
</svg>
