<?xml version="1.0" encoding="UTF-8" standalone="no"?>
<!-- Created with Inkscape (http://www.inkscape.org/) -->

<svg
   xmlns:dc="http://purl.org/dc/elements/1.1/"
   xmlns:cc="http://creativecommons.org/ns#"
   xmlns:rdf="http://www.w3.org/1999/02/22-rdf-syntax-ns#"
   xmlns:svg="http://www.w3.org/2000/svg"
   xmlns="http://www.w3.org/2000/svg"
   xmlns:sodipodi="http://sodipodi.sourceforge.net/DTD/sodipodi-0.dtd"
   xmlns:inkscape="http://www.inkscape.org/namespaces/inkscape"
   width="600"
   height="600"
   id="svg2"
   version="1.1"
   inkscape:version="0.48.4 r9939"
   sodipodi:docname="wanderer license.svg"
   inkscape:export-filename="/home/michael/wanderer license.png"
   inkscape:export-xdpi="90"
   inkscape:export-ydpi="90">
  <defs
     id="defs4" />
  <sodipodi:namedview
     id="base"
     pagecolor="#ffffff"
     bordercolor="#666666"
     borderopacity="1.0"
     inkscape:pageopacity="0.0"
     inkscape:pageshadow="2"
     inkscape:zoom="0.7"
     inkscape:cx="755.31071"
     inkscape:cy="112.30956"
     inkscape:document-units="px"
     inkscape:current-layer="layer1"
     showgrid="false"
     inkscape:object-nodes="true"
     inkscape:window-width="1855"
     inkscape:window-height="1056"
     inkscape:window-x="65"
     inkscape:window-y="24"
     inkscape:window-maximized="1"
     inkscape:snap-global="true">
    <inkscape:grid
       type="xygrid"
       id="grid2982" />
  </sodipodi:namedview>
  <metadata
     id="metadata7">
    <rdf:RDF>
      <cc:Work
         rdf:about="">
        <dc:format>image/svg+xml</dc:format>
        <dc:type
           rdf:resource="http://purl.org/dc/dcmitype/StillImage" />
        <dc:title></dc:title>
      </cc:Work>
    </rdf:RDF>
  </metadata>
  <g
     inkscape:label="Layer 1"
     inkscape:groupmode="layer"
     id="layer1"
     transform="translate(0,-452.36217)">
    <path
       style="fill:#d6cfb1;fill-opacity:1;stroke:#000000;stroke-width:6;stroke-miterlimit:4;stroke-opacity:1;stroke-dasharray:none"
       d="m 260,40 60,0 260,380 -80,160 -400,0 -80,-160 z"
       id="path2984"
       inkscape:connector-curvature="0"
       transform="translate(0,452.36217)"
       sodipodi:nodetypes="ccccccc" />
    <path
       style="font-size:medium;font-style:normal;font-variant:normal;font-weight:normal;font-stretch:normal;text-indent:0;text-align:start;text-decoration:none;line-height:normal;letter-spacing:normal;word-spacing:normal;text-transform:none;direction:ltr;block-progression:tb;writing-mode:lr-tb;text-anchor:start;baseline-shift:baseline;color:#000000;fill:#000000;fill-opacity:1;stroke:none;stroke-width:6;marker:none;visibility:visible;display:inline;overflow:visible;enable-background:accumulate;font-family:Sans;-inkscape-font-specification:Sans"
       d="m 291.97955,875.14388 c -12.68198,34.5074 -12.44078,48.73 -15.01397,68.6699 l 5.13067,0.6481 c 2.62459,-21.543 2.32174,-40.7676 14.58191,-67.1308 z"
       id="path2992"
       inkscape:connector-curvature="0"
       sodipodi:nodetypes="ccccc" />
    <path
       style="font-size:medium;font-style:normal;font-variant:normal;font-weight:normal;font-stretch:normal;text-indent:0;text-align:start;text-decoration:none;line-height:normal;letter-spacing:normal;word-spacing:normal;text-transform:none;direction:ltr;block-progression:tb;writing-mode:lr-tb;text-anchor:start;baseline-shift:baseline;color:#000000;fill:#000000;fill-opacity:1;stroke:none;stroke-width:6;marker:none;visibility:visible;display:inline;overflow:visible;enable-background:accumulate;font-family:Sans;-inkscape-font-specification:Sans"
       d="m 330.16254,915.59518 c -0.5832,-5e-4 -1.16458,0.203 -1.62022,0.567 -16.39682,9.7389 -38.67847,17.5035 -48.68736,23.0881 -1.39168,0.3728 -2.26215,2.0637 -1.75709,3.413 0.50506,1.3494 2.27184,2.0532 3.56633,1.4205 14.44901,-7.0489 33.77919,-14.0814 50.06454,-23.8171 0.86905,-0.6474 1.25372,-1.8756 0.90925,-2.9031 -0.34447,-1.0276 -1.39178,-1.7757 -2.47545,-1.7684 z"
       id="path3762"
       inkscape:connector-curvature="0"
       sodipodi:nodetypes="cccsccsc" />
    <path
       style="font-size:medium;font-style:normal;font-variant:normal;font-weight:normal;font-stretch:normal;text-indent:0;text-align:start;text-decoration:none;line-height:normal;letter-spacing:normal;word-spacing:normal;text-transform:none;direction:ltr;block-progression:tb;writing-mode:lr-tb;text-anchor:start;baseline-shift:baseline;color:#000000;fill:#000000;fill-opacity:1;stroke:none;stroke-width:6;marker:none;visibility:visible;display:inline;overflow:visible;enable-background:accumulate;font-family:Sans;-inkscape-font-specification:Sans"
       d="m 211.48203,951.40178 c -0.93855,0.043 -1.83077,0.6407 -2.22871,1.4918 -0.39792,0.8511 -0.28405,1.9187 0.28445,2.6668 9.62152,10.436 18.44095,26.4748 34.32149,35.2936 1.18769,0.6576 3.9468,0.1752 4.60429,-1.0125 0.65751,-1.1878 0.17498,-2.8667 -1.01282,-3.5241 -14.10945,-9.7097 -23.9618,-21.1648 -33.72741,-33.8354 -0.50348,-0.7034 -1.37745,-1.1246 -2.24129,-1.0802 z"
       id="path3764"
       inkscape:connector-curvature="0"
       sodipodi:nodetypes="csccsccc" />
    <path
       style="font-size:medium;font-style:normal;font-variant:normal;font-weight:normal;font-stretch:normal;text-indent:0;text-align:start;text-decoration:none;line-height:normal;letter-spacing:normal;word-spacing:normal;text-transform:none;direction:ltr;block-progression:tb;writing-mode:lr-tb;text-anchor:start;baseline-shift:baseline;color:#000000;fill:#000000;fill-opacity:1;stroke:none;stroke-width:6;marker:none;visibility:visible;display:inline;overflow:visible;enable-background:accumulate;font-family:Sans;-inkscape-font-specification:Sans"
       d="m 280.69207,939.03418 c -0.9212,0.037 -1.80203,0.6065 -2.21429,1.4312 -13.96303,23.1314 -21.08271,33.689 -34.32148,46.5 -0.3489,0.4522 -0.54212,1.0222 -0.54007,1.5933 1.19803,9.6717 1.55269,31.45482 -4.60989,41.14952 -0.19806,1.3432 4.23871,3.2085 5.58199,3.4065 1.34326,0.198 4.1343,-2.233 4.33216,-3.5762 2.22027,-21.3262 1.35533,-28.6949 1.29617,-40.24302 11.9219,-12.3882 19.91214,-24.0628 32.85172,-46.4268 0.43752,-0.8001 0.40939,-1.8344 -0.0709,-2.6096 -0.48037,-0.7751 -1.39414,-1.2607 -2.30534,-1.2249 z"
       id="path3766"
       inkscape:connector-curvature="0"
       sodipodi:nodetypes="cccccscccscc" />
    <path
       sodipodi:nodetypes="czczc"
       inkscape:connector-curvature="0"
       id="path2990"
       d="m 546.97445,868.81638 c -104.07676,-4.424 -127.96076,-9.4585 -170.91208,0.3955 -42.95133,9.8538 -47.76727,25.317 -60.61976,58.5393 37.44346,20.9188 28.13772,29.7707 82.30546,26.7347 54.16775,-3.036 74.80729,-24.9354 149.22638,-85.6695 z"
       style="fill:#41a15b;fill-opacity:1;stroke:none;stroke-opacity:1;stroke-width:4;stroke-miterlimit:4;stroke-dasharray:none" />
    <path
       sodipodi:nodetypes="czccc"
       inkscape:connector-curvature="0"
       id="path2988"
       d="m 100.47006,796.52488 c 64.20405,29.7412 106.42627,61.7048 116.58193,92.0031 10.15567,30.2982 9.21597,38.5759 -2.83006,66.1355 -17.32662,1.6215 -47.00345,-1.9328 -68.25585,-20.9409 -21.90213,-20.0897 -41.58367,-66.98 -45.49602,-137.1977 z"
       style="fill:#41a15b;fill-opacity:1;stroke:none;stroke-opacity:1;stroke-width:4;stroke-miterlimit:4;stroke-dasharray:none" />
    <path
       style="fill:#41a15b;fill-opacity:1;stroke:none;stroke-opacity:1;stroke-width:4;stroke-miterlimit:4;stroke-dasharray:none"
       d="m 276.14344,631.05438 c -32.10275,118.8842 -30.89198,142.0185 -31.73183,178.9172 -0.83987,36.8987 17.9659,53.8953 48.03858,69.9999 34.9978,-16.2668 43.33631,-38.3228 45.47162,-76.8482 2.13533,-38.5254 -62.54764,-171.4585 -61.77837,-172.0689 z"
       id="path2986"
       inkscape:connector-curvature="0"
       sodipodi:nodetypes="czczc" />
    <path
       style="font-size:medium;font-style:normal;font-variant:normal;font-weight:normal;font-stretch:normal;text-indent:0;text-align:start;text-decoration:none;line-height:normal;letter-spacing:normal;word-spacing:normal;text-transform:none;direction:ltr;block-progression:tb;writing-mode:lr-tb;text-anchor:start;baseline-shift:baseline;color:#000000;fill:#000000;fill-opacity:1;stroke:none;stroke-width:4;marker:none;visibility:visible;display:inline;overflow:visible;enable-background:accumulate;font-family:Sans;-inkscape-font-specification:Sans"
       d="m 421.4375,861.59375 c -21.68397,0.0645 -30.35836,2.44562 -45.8125,5.65625 -21.78023,4.52488 -34.13678,11.52142 -42.65625,21.15625 -8.51947,9.63483 -12.98735,22.03283 -19.40625,38.625 l -0.625,1.625 1.53125,0.84375 c 18.55528,10.36641 25.41786,17.75029 34.96875,22.40625 9.55089,4.65596 21.25159,6.08622 48.4375,4.5625 27.33797,-1.53224 47.32333,-6.73127 67.96875,-21.5 22.8161,-16.32154 45.22243,-34.25323 82.40625,-64.59375 l 4.0625,-3.34375 -5.25,-0.21875 c -65.01588,-2.76364 -98.83694,-5.29845 -125.625,-5.21875 z m 0.28125,4 c 25.63285,-0.51459 60.88648,1.92322 121.96429,4.61161 -34.5707,28.30372 -59.94844,48.51647 -79.99554,61.38839 -20.90785,13.4246 -38.217,18.9286 -66.0625,20.90625 -26.07021,1.85157 -36.86044,1.37023 -46.4375,-4.1875 -8.11258,-4.70787 -14.94617,-12.25369 -32.56696,-22.29911 6.09133,-15.7709 9.7713,-26.41327 17.34821,-34.98214 7.83946,-8.86579 19.04109,-16.08468 40.53125,-19.875 20.80375,-3.66925 29.33377,-5.2436 45.21875,-5.5625 z"
       id="path3800"
       inkscape:connector-curvature="0"
       sodipodi:nodetypes="ssscccssscccsscssscsss" />
    <path
       style="font-size:medium;font-style:normal;font-variant:normal;font-weight:normal;font-stretch:normal;text-indent:0;text-align:start;text-decoration:none;line-height:normal;letter-spacing:normal;word-spacing:normal;text-transform:none;direction:ltr;block-progression:tb;writing-mode:lr-tb;text-anchor:start;baseline-shift:baseline;color:#000000;fill:#000000;fill-opacity:1;stroke:none;stroke-width:4;marker:none;visibility:visible;display:inline;overflow:visible;enable-background:accumulate;font-family:Sans;-inkscape-font-specification:Sans"
       d="m 98.28125,793.3125 0.1875,3.3125 c 7.31105,90.53582 25.2244,116.57368 46.15625,138.5625 l 0,0.0312 c 24.14848,18.96757 51.97373,23.104 69.78125,21.4375 l 1.1875,-0.125 0.46875,-1.0625 c 12.02437,-27.9637 11.87503,-42.73589 2.875,-67.5625 -11.3155,-31.21384 -53.22849,-63.35715 -117.625,-93.1875 l -3.03125,-1.40625 z m 4.5,6.5625 c 48.9295,20.66269 104.17445,60.23557 112.375,89.28125 9.95869,35.27286 5.36453,42.64151 -3.02679,62.87946 -16.99652,1.32045 -45.32424,-2.45814 -65.53125,-20.53125 C 125.77059,912.38652 104.74549,871.3451 102.78125,799.875 z"
       id="path3802"
       inkscape:connector-curvature="0"
       sodipodi:nodetypes="cccccccsccccsccc" />
    <path
       style="font-size:medium;font-style:normal;font-variant:normal;font-weight:normal;font-stretch:normal;text-indent:0;text-align:start;text-decoration:none;line-height:normal;letter-spacing:normal;word-spacing:normal;text-transform:none;direction:ltr;block-progression:tb;writing-mode:lr-tb;text-anchor:start;baseline-shift:baseline;color:#000000;fill:#000000;fill-opacity:1;stroke:none;stroke-width:4;marker:none;visibility:visible;display:inline;overflow:visible;enable-background:accumulate;font-family:Sans;-inkscape-font-specification:Sans"
       d="m 274.28125,630.5625 -0.0625,-0.0312 c -0.0219,0.0811 -0.0406,0.13774 -0.0625,0.21875 -0.002,0.0158 0.002,0.0163 0,0.0312 -30.43275,120.73816 -30.94827,142.4437 -31.75,179.15625 -0.41063,18.80319 5.27508,35.01803 12.84375,44.0625 10.52198,12.57365 22.8094,20.33471 35.35714,28.64286 l 1.76786,-0.42411 1.26339,0.63393 c 17.75716,-8.25344 28.69302,-19.23498 35.64286,-32.00893 6.94984,-12.77395 9.55055,-28.23973 10.625,-47.625 0.56823,-10.2519 -3.15783,-25.77345 -8.9375,-43.75 -5.77967,-17.97655 -13.64646,-38.28294 -21.5625,-57.375 -7.91604,-19.09206 -15.88638,-36.96665 -21.8125,-50.125 -2.96306,-6.57918 -5.40713,-11.99095 -7.09375,-15.75 -0.84331,-1.87952 -1.51855,-3.35555 -1.9375,-4.34375 -0.16609,-0.39177 -0.25821,-0.62352 -0.34375,-0.84375 -3.27878,-6.71567 -2.08213,-5.38937 -3.9375,-0.46875 z m 2.28125,6.6875 c 0.11225,0.25101 0.16129,0.35763 0.28125,0.625 1.69515,3.77806 4.31332,9.06993 7.09375,15.71875 9.13416,21.84244 19.94735,43.53643 21.75,50.03125 3.49681,12.59877 10.51685,23.57542 21.46875,57.0625 5.81291,17.77385 8.76817,33.28788 8.78125,42.3125 0.0174,12.04274 -0.73448,23.98991 -10.1875,45.9375 -5.28186,12.26318 -16.61253,20.84038 -33.28125,28.75 -14.47387,-7.82738 -25.81501,-16.08937 -34.03125,-26.125 -8.15036,-9.95517 -12.80752,-20.51466 -12.03125,-41.53125 1.34053,-36.29338 -0.21366,-59.37205 30.15625,-172.78125 z"
       id="path3804"
       inkscape:connector-curvature="0"
       sodipodi:nodetypes="ccccsscccsssssssccccssssscssc" />
  </g>
</svg>
