<?xml version="1.0" encoding="UTF-8" standalone="no"?>
<!-- Created with Inkscape (http://www.inkscape.org/) -->

<svg
   xmlns:dc="http://purl.org/dc/elements/1.1/"
   xmlns:cc="http://creativecommons.org/ns#"
   xmlns:rdf="http://www.w3.org/1999/02/22-rdf-syntax-ns#"
   xmlns:svg="http://www.w3.org/2000/svg"
   xmlns="http://www.w3.org/2000/svg"
   xmlns:sodipodi="http://sodipodi.sourceforge.net/DTD/sodipodi-0.dtd"
   xmlns:inkscape="http://www.inkscape.org/namespaces/inkscape"
   width="600"
   height="600"
   id="svg2"
   version="1.1"
   inkscape:version="0.48.4 r9939"
   sodipodi:docname="wanderer outfit license.svg"
   inkscape:export-filename="/home/michael/wanderer outfit license.png"
   inkscape:export-xdpi="90"
   inkscape:export-ydpi="90">
  <defs
     id="defs4" />
  <sodipodi:namedview
     id="base"
     pagecolor="#ffffff"
     bordercolor="#666666"
     borderopacity="1.0"
     inkscape:pageopacity="0.0"
     inkscape:pageshadow="2"
     inkscape:zoom="0.49497475"
     inkscape:cx="752.41183"
     inkscape:cy="267.79274"
     inkscape:document-units="px"
     inkscape:current-layer="layer1"
     showgrid="false"
     inkscape:object-nodes="true"
     inkscape:window-width="1855"
     inkscape:window-height="1056"
     inkscape:window-x="65"
     inkscape:window-y="24"
     inkscape:window-maximized="1"
     inkscape:snap-global="true">
    <inkscape:grid
       type="xygrid"
       id="grid2982" />
  </sodipodi:namedview>
  <metadata
     id="metadata7">
    <rdf:RDF>
      <cc:Work
         rdf:about="">
        <dc:format>image/svg+xml</dc:format>
        <dc:type
           rdf:resource="http://purl.org/dc/dcmitype/StillImage" />
        <dc:title></dc:title>
      </cc:Work>
    </rdf:RDF>
  </metadata>
  <g
     inkscape:label="Layer 1"
     inkscape:groupmode="layer"
     id="layer1"
     transform="translate(0,-452.36217)">
    <g
       id="g5142">
      <path
         style="fill:#f0f0e4;fill-opacity:1;stroke:none;stroke-width:4;stroke-linecap:round;stroke-linejoin:round;stroke-miterlimit:4;stroke-opacity:1;stroke-dasharray:none;stroke-dashoffset:0"
         d="m 200,1012.3622 200,0 60,-160.00003 -100,-340 -120,0 -100,340 z"
         id="path5118"
         inkscape:connector-curvature="0"
         sodipodi:nodetypes="ccccccc" />
      <path
         sodipodi:nodetypes="ccccccccccccccccccccc"
         inkscape:connector-curvature="0"
         id="path5116"
         d="m 239.8125,510.375 c -0.78864,0.0807 -1.49985,0.67556 -1.71875,1.4375 -30.39439,117.74175 -64.2279,230.32481 -100,340 -0.12241,0.40584 -0.1113,0.85077 0.0312,1.25 19.14411,53.67569 34.76638,108.76012 60,160 0.27925,0.7627 1.06279,1.3112 1.875,1.3125 67.2709,1.8127 134.07309,2.2193 200,0 0.81221,0 1.59575,-0.5498 1.875,-1.3125 20.48932,-49.90811 40.83757,-100.80368 60,-160 0.1425,-0.39923 0.15361,-0.84416 0.0312,-1.25 -33.7238,-113.44425 -78.41952,-246.27299 -100,-340 -0.23988,-0.81832 -1.05341,-1.43184 -1.90615,-1.4375 -56.92626,-0.37058 -51.33054,-3.78373 -120,0 -0.0625,-0.003 -0.12505,-0.003 -0.1875,0 z m 1.65625,4 c 41.83326,-3.29032 64.51905,-2.88244 117.0625,0 39.03462,154.90011 77.66944,263.76151 99.375,337.90625 -33.96039,97.71937 -42.71808,116.5759 -59.3125,158.09375 -91.51199,2.8336 -140.17215,1.017 -197.1875,0 C 148.25409,876.75264 154.2884,886.61267 142.09375,852.28125 173.82076,749.15217 196.90414,683.24564 241.46875,514.375 z"
         style="font-size:medium;font-style:normal;font-variant:normal;font-weight:normal;font-stretch:normal;text-indent:0;text-align:start;text-decoration:none;line-height:normal;letter-spacing:normal;word-spacing:normal;text-transform:none;direction:ltr;block-progression:tb;writing-mode:lr-tb;text-anchor:start;baseline-shift:baseline;color:#000000;fill:#000000;fill-opacity:1;stroke:none;stroke-width:4;marker:none;visibility:visible;display:inline;overflow:visible;enable-background:accumulate;font-family:Sans;-inkscape-font-specification:Sans" />
    </g>
    <path
       transform="translate(35,422.36217)"
       d="m 360,465 a 95,95 0 1 1 -190,0 95,95 0 1 1 190,0 z"
       sodipodi:ry="95"
       sodipodi:rx="95"
       sodipodi:cy="465"
       sodipodi:cx="265"
       id="path5140"
       style="fill:#41a15b;fill-opacity:1;stroke:none;stroke-width:4;stroke-linecap:round;stroke-linejoin:round;stroke-miterlimit:4;stroke-opacity:1;stroke-dasharray:none;stroke-dashoffset:0"
       sodipodi:type="arc" />
    <path
       style="font-size:medium;font-style:normal;font-variant:normal;font-weight:normal;font-stretch:normal;text-indent:0;text-align:start;text-decoration:none;line-height:normal;letter-spacing:normal;word-spacing:normal;text-transform:none;direction:ltr;block-progression:tb;writing-mode:lr-tb;text-anchor:start;baseline-shift:baseline;color:#000000;fill:#000000;fill-opacity:1;stroke:none;stroke-width:4;marker:none;visibility:visible;display:inline;overflow:visible;enable-background:accumulate;font-family:Sans;-inkscape-font-specification:Sans"
       d="m 300,790.36217 c -59.6326,1.01411 -97.00002,43.45207 -97,97 3e-5,55.97892 43.45207,97.10989 97,97 53.54782,-0.10989 97,-43.45207 97,-97 0,-49.17612 -43.45981,-97.9105 -97,-97 z m 0,4 c 52.13998,-0.71416 92.32729,41.71873 93,93 0.68438,52.17123 -41.55469,93.05914 -93,93 -51.38614,-0.0591 -92.45986,-44.46047 -93,-93 -0.56942,-51.17067 37.87587,-92.24497 93,-93 z"
       id="path2984"
       inkscape:connector-curvature="0"
       sodipodi:nodetypes="ssssssssss" />
    <path
       sodipodi:type="arc"
       style="fill:#c6c41c;fill-opacity:1;stroke:none;stroke-width:4;stroke-linecap:round;stroke-linejoin:round;stroke-miterlimit:4;stroke-opacity:1;stroke-dasharray:none;stroke-dashoffset:0"
       id="path5114"
       sodipodi:cx="300"
       sodipodi:cy="210"
       sodipodi:rx="50"
       sodipodi:ry="50"
       d="m 350,210 a 50,50 0 1 1 -100,0 50,50 0 1 1 100,0 z"
       transform="translate(0,412.36217)" />
    <path
       style="font-size:medium;font-style:normal;font-variant:normal;font-weight:normal;font-stretch:normal;text-indent:0;text-align:start;text-decoration:none;line-height:normal;letter-spacing:normal;word-spacing:normal;text-transform:none;direction:ltr;block-progression:tb;writing-mode:lr-tb;text-anchor:start;baseline-shift:baseline;color:#000000;fill:#000000;fill-opacity:1;stroke:none;stroke-width:4;marker:none;visibility:visible;display:inline;overflow:visible;enable-background:accumulate;font-family:Sans;-inkscape-font-specification:Sans"
       d="m 300,570.36217 c -28.69512,0 -53.3487,23.33659 -52,52 1.38272,29.38648 27.34771,54.02142 52,52 28.59914,-2.34505 52,-23.30488 52,-52 0,-28.69512 -23.30488,-52 -52,-52 z m 0,4 c 26.53336,-0.62321 48,21.16158 48,48 0,26.53336 -21.54154,46.00768 -48,48 -25.26506,1.90246 -47.42043,-20.59728 -48,-48 -0.56106,-26.52743 21.47396,-47.37696 48,-48 z"
       id="path5124"
       inkscape:connector-curvature="0"
       sodipodi:nodetypes="ssssssssss" />
    <g
       id="g5136">
      <path
         sodipodi:nodetypes="sssss"
         inkscape:connector-curvature="0"
         id="path2986"
         d="m 380,912.36217 c 0,30 -30,70.00003 -80,70.00003 -45,0 -80,-30.00003 -80,-70.00003 0,-43.40647 28.98,-75.6958 80,-75 52.20598,0.71198 80,32.3421 80,75 z"
         style="fill:#193f2e;fill-opacity:1;stroke:none;stroke-width:4;stroke-linecap:round;stroke-linejoin:round;stroke-miterlimit:4;stroke-opacity:1;stroke-dashoffset:0" />
      <path
         sodipodi:nodetypes="ssssssssssssss"
         inkscape:connector-curvature="0"
         id="path5130"
         d="m 300.03125,835.375 c -25.63778,-0.49348 -44.2617,6.20181 -60.5625,21.53125 C 225.11601,870.40371 218,890.22667 218,912.375 c 0,41.16667 36.11111,71.98606 82,72 51.02016,0.0155 79.44649,-39.8155 82,-72 1.72129,-21.69514 -7.85055,-40.234 -21.03125,-54.65625 -12.55741,-13.74024 -31.18836,-21.77113 -60.9375,-22.34375 z m -0.0625,4 c 25.70403,0.35055 46.24679,7.23061 58.1875,21.1875 20.14232,23.54333 19.8983,30.99975 19.84375,51.8125 -0.0751,28.66657 -29.10072,66.17478 -78,68 -43.8736,1.63763 -76.77642,-22.44384 -78,-68 -0.56784,-21.14188 3.57354,-36.80121 20.28125,-52.625 13.45388,-12.74211 32.60446,-20.71708 57.6875,-20.375 z"
         style="font-size:medium;font-style:normal;font-variant:normal;font-weight:normal;font-stretch:normal;text-indent:0;text-align:start;text-decoration:none;line-height:normal;letter-spacing:normal;word-spacing:normal;text-transform:none;direction:ltr;block-progression:tb;writing-mode:lr-tb;text-anchor:start;baseline-shift:baseline;color:#000000;fill:#000000;fill-opacity:1;stroke:none;stroke-width:4;marker:none;visibility:visible;display:inline;overflow:visible;enable-background:accumulate;font-family:Sans;-inkscape-font-specification:Sans" />
    </g>
  </g>
</svg>
