<?xml version="1.0" encoding="UTF-8" standalone="no"?>
<!-- Created with Inkscape (http://www.inkscape.org/) -->

<svg
   width="210mm"
   height="297mm"
   viewBox="0 0 210 297"
   version="1.1"
   id="svg1"
   inkscape:version="1.3 (0e150ed, 2023-07-21)"
   sodipodi:docname="drawing.svg"
   inkscape:export-filename="drawing.png"
   inkscape:export-xdpi="96"
   inkscape:export-ydpi="96"
   xmlns:inkscape="http://www.inkscape.org/namespaces/inkscape"
   xmlns:sodipodi="http://sodipodi.sourceforge.net/DTD/sodipodi-0.dtd"
   xmlns="http://www.w3.org/2000/svg"
   xmlns:svg="http://www.w3.org/2000/svg">
  <sodipodi:namedview
     id="namedview1"
     pagecolor="#ffffff"
     bordercolor="#000000"
     borderopacity="0.25"
     inkscape:showpageshadow="2"
     inkscape:pageopacity="0.0"
     inkscape:pagecheckerboard="0"
     inkscape:deskcolor="#d1d1d1"
     inkscape:document-units="mm"
     inkscape:zoom="0.92100198"
     inkscape:cx="396.85039"
     inkscape:cy="561.34515"
     inkscape:window-width="1392"
     inkscape:window-height="1027"
     inkscape:window-x="0"
     inkscape:window-y="25"
     inkscape:window-maximized="0"
     inkscape:current-layer="layer1" />
  <defs
     id="defs1">
    <inkscape:path-effect
       effect="bend_path"
       id="path-effect1"
       is_visible="true"
       lpeversion="1"
       bendpath="M 68.879843,248.38541 C 179.23677,459.24406 331.25466,583.9981 698.56428,582.34772"
       prop_scale="1"
       scale_y_rel="false"
       vertical="false"
       hide_knot="false"
       bendpath-nodetypes="cc" />
    <rect
       x="69.840026"
       y="238.72591"
       width="674.2737"
       height="445.70635"
       id="rect1" />
  </defs>
  <g
     inkscape:label="Layer 1"
     inkscape:groupmode="layer"
     id="layer1">
    <path
       d="m 90.298822,278.04021 c -0.231632,0.24031 -0.137816,0.89057 0.284488,1.94982 0.422195,1.05898 0.986645,2.25499 1.694548,3.58475 0.755133,1.41139 1.560849,2.84838 2.417449,4.30969 0.850181,1.45036 1.581084,2.68765 2.150342,3.648 1.541676,2.60085 2.766841,4.68949 3.700761,6.33813 0.97452,1.61195 1.61343,2.76011 1.91569,3.45991 0.35404,0.88632 0.5569,1.36928 0.60613,1.44949 0.14394,0.1325 0.42434,0.18119 0.84102,0.14578 1.10449,-0.23814 2.58072,-0.59419 4.4176,-1.06908 1.83847,-0.47531 3.67536,-0.95417 5.51064,-1.43661 1.83393,-0.48209 3.41735,-0.92119 4.74337,-1.31229 1.42376,-0.34189 2.24378,-0.53076 2.47595,-0.56605 0.45949,-0.0698 0.64038,-0.18303 0.54316,-0.33897 -0.052,-0.18427 -0.40826,-0.50346 -1.06838,-0.95966 -0.23925,-0.1804 -0.96289,-0.64277 -2.18815,-1.40633 -1.19332,-0.80078 -2.68851,-1.78803 -4.58303,-3.03757 -1.82706,-1.15782 -3.87194,-2.47293 -6.11612,-3.94185 -2.15346,-1.41837 -4.32689,-2.83662 -6.52037,-4.25468 -2.101096,-1.36516 -4.10299,-2.63362 -6.012223,-3.80481 -1.910106,-1.17172 -3.510116,-2.09166 -4.812875,-2.75767 z M 55.568116,255.14988 c 0.895034,-0.36026 1.938495,-0.2047 3.13174,0.46261 1.286387,0.72794 2.864584,1.72647 4.746062,2.9946 16.916611,11.61974 30.877573,20.63555 41.097212,27.22633 10.61556,6.78796 16.66505,10.50311 19.55566,12.59301 0.61572,0.48033 1.40208,1.28312 2.36531,2.40749 0.96253,1.12355 1.72889,1.82901 2.29301,2.11887 0.56441,0.29 0.73476,0.50621 0.50998,0.6501 -0.13049,0.192 -0.33478,0.26864 -0.61299,0.22951 -1.16641,-0.33937 -2.3471,-0.45631 -3.54282,-0.34904 -1.151,0.0787 -2.06835,0.22429 -2.75303,0.43986 -0.23348,0.037 -0.98176,0.18772 -2.26958,0.45342 -1.1752,0.31076 -2.69135,0.70995 -4.46398,1.17209 -0.76716,0.19267 -4.94429,1.24521 -5.71144,1.43788 -1.9712,0.57155 -3.89903,1.11089 -5.78322,1.61831 -1.83951,0.47935 -3.49309,0.95008 -4.963258,1.41569 -1.376296,0.51874 -2.334149,0.88927 -2.885321,1.11839 -0.771023,0.47795 -1.30779,0.97892 -1.609986,1.50391 -0.206408,0.57794 -0.296331,1.14062 -0.26974,1.68773 0.07188,0.51889 0.212266,0.99556 0.420932,1.42967 0.208634,0.43404 0.389616,0.77284 0.542288,1.01607 0.254463,0.40542 0.582976,0.87783 0.985592,1.41621 0.447909,0.51013 0.921651,1.05976 1.422103,1.64929 0.500298,0.58935 0.683745,0.92638 0.548591,1.01237 -0.08353,0.16649 -0.376269,-0.0441 -0.877076,-0.63394 -0.257634,-0.30342 -0.718029,-0.83572 -1.42313,-1.65013 -0.644841,-0.7229 -1.418712,-1.60099 -2.30921,-2.62402 -0.841412,-0.94372 -1.706401,-1.93054 -2.594154,-2.96052 -0.791326,-0.97571 -1.484122,-1.84744 -2.075841,-2.60908 -0.752186,-1.22758 -0.794723,-2.32517 -0.13148,-3.28836 0.319738,-0.0835 0.996543,-0.26821 2.008094,-0.54954 1.060747,-0.31007 2.166628,-0.6489 3.317538,-1.01662 1.200313,-0.28645 2.307351,-0.57345 3.320471,-0.85993 1.058439,-0.31426 1.724691,-0.55611 1.997407,-0.72312 0.50057,-0.30655 0.7292,-1.05622 0.69017,-2.24775 0.0557,-1.13915 -0.291279,-2.58141 -1.035209,-4.33263 -0.249865,-0.6221 -0.835273,-1.74777 -1.755551,-3.39468 -0.921492,-1.64909 -2.046269,-3.59804 -3.38193,-5.87742 -1.380461,-2.35583 -2.727225,-4.67937 -4.039735,-6.96623 -1.263825,-2.30903 -2.174668,-4.07956 -2.728282,-5.27461 -6.754023,-4.43419 -12.568128,-8.1056 -17.621885,-11.02234 -4.99503,-2.82516 -8.930668,-4.87661 -11.896022,-6.13654 -0.970398,-0.35352 -1.780224,-0.57651 -2.430658,-0.66765 -0.652894,0.0186 -1.425349,0.15357 -2.317232,0.40503 -0.372459,-0.0213 -0.57708,-0.23946 -0.613393,-0.65413 1.047461,-0.87428 2.095461,-1.74767 3.143993,-2.62016 z M 187.28874,384.45443 c -0.28442,-0.47403 -0.6482,-0.99731 -1.09102,-1.57115 -0.38283,-0.50698 -0.90404,-1.12984 -1.56419,-1.87336 -1.13958,-1.2835 -2.243,-2.05667 -3.32068,-2.3171 -1.07803,-0.26052 -2.22542,-0.52398 -3.44454,-0.79248 -0.51722,-0.092 -1.04771,-0.18063 -1.59156,-0.26615 -1.03405,-0.16323 -2.11597,-0.31499 -3.24639,-0.45615 -1.68553,-0.25012 -3.26202,-0.42199 -4.73168,-0.51167 -1.26872,-0.12027 -2.85639,-0.27183 -4.65182,-0.45094 2.22534,0.18661 -7.79774,-0.65765 -5.57241,-0.47103 -1.96005,-0.20551 -3.97282,-0.4415 -6.03797,-0.70966 -2.00581,-0.19491 -3.92327,-0.41481 -5.7494,-0.65664 -3.08348,-0.45256 -5.84638,-1.25116 -8.27864,-2.38485 -2.33156,-1.09094 -4.60135,-2.42725 -6.80276,-4.00796 -0.47507,-0.36201 -0.80485,-0.53363 -0.99036,-0.51381 -0.18509,0.0198 -0.0182,0.37446 0.5041,1.06316 1.47208,1.71862 4.79682,5.63155 6.2689,7.35017 2.434,2.84976 4.81277,5.6173 7.13535,8.30784 2.41458,2.7203 4.62009,5.16986 6.5449,7.29624 1.95811,2.16317 3.26423,3.60735 4.03771,4.5088 -0.001,-0.001 0.0866,0.10088 0.0855,0.0996 0.29667,0.34532 0.68393,0.79522 1.13844,1.32079 0.56609,0.6546 1.11361,1.32529 1.64283,2.01236 0.56941,0.65201 1.08862,1.28387 1.55752,1.8965 0.50912,0.57759 0.87152,1.02662 1.08726,1.35023 0.86192,1.29286 1.09972,2.11482 0.70171,2.47112 -0.19846,0.17766 -0.73722,0.33664 -1.61593,0.47322 -0.8544,0.24429 -1.57036,0.36268 -2.14708,0.35607 -0.12892,-0.14507 -0.1135,-0.28847 0.046,-0.43012 0.19943,-0.17707 0.33446,-0.42665 0.40552,-0.7485 0.13532,-0.24948 0.0502,-0.62657 -0.25405,-1.13211 -0.72081,-1.29955 -1.6229,-2.69189 -2.70434,-4.18338 -0.48064,-0.66288 -0.97384,-1.327 -1.47962,-1.99257 -0.63081,-0.83103 -1.28131,-1.66404 -1.9515,-2.49939 -1.16594,-1.53844 -2.33278,-3.01024 -3.50319,-4.41628 -1.12983,-1.44065 -2.21004,-2.79316 -3.24599,-4.06001 -3.5328,-4.32022 -6.49766,-7.98121 -8.9466,-10.94813 -2.40593,-2.91061 -4.40385,-5.31237 -6.1133,-7.30592 -1.70014,-1.98269 -3.07735,-3.56716 -4.18647,-4.79405 -1.1455,-1.18798 -2.16954,-2.22307 -3.08088,-3.10859 -0.18411,-0.3423 -0.27492,-0.69297 -0.27248,-1.05169 -0.0406,-0.32735 0.004,-0.53799 0.13322,-0.63202 0.25876,-0.18814 0.61372,0.0289 1.06669,0.64944 1.01914,1.39609 1.97429,2.60278 2.86006,3.61956 0.88598,1.01703 1.74641,1.81358 2.57754,2.38998 1.34711,0.90964 2.78797,1.62436 4.31949,2.14303 1.63008,0.56203 3.79972,1.07273 6.49422,1.5116 2.6952,0.43898 5.59548,0.81953 8.69232,1.13179 3.15609,0.38621 6.29816,0.69106 9.42554,0.91543 3.227,0.26321 6.35645,0.51091 9.38812,0.74678 3.07729,0.2022 5.81243,0.40405 8.23563,0.62207 0.3211,-0.0332 0.63962,0.0543 0.95592,0.2622 0.41574,0.2427 0.81131,0.50192 1.18683,0.77781 0.64041,0.48107 1.32054,1.02688 2.04187,1.63718 1.03439,0.87609 2.15151,1.88346 3.35755,3.02212 2.10491,1.99913 3.91244,3.82446 5.42483,5.49951 0.22295,0.40609 0.20593,0.66515 -0.0525,0.77715 -0.19779,0.1789 -0.42718,0.20372 -0.68817,0.074 z m 37.57469,48.88569 c -0.17378,-0.0798 -0.33009,-0.17989 -0.46888,-0.30022 -0.10387,-0.16063 -0.12075,-0.28125 -0.0508,-0.3618 0.48758,-0.14173 1.02719,-0.34452 1.61852,-0.60865 0.62597,-0.30435 1.16507,-0.57935 1.61637,-0.82358 0.34852,-0.4042 1.05789,-0.38921 2.12921,0.0371 2.28239,0.97167 4.73561,2.1391 7.37508,3.49488 2.70806,1.41295 5.30372,2.86978 7.79232,4.37776 4.55984,2.8191 9.12771,5.94008 13.75258,9.36786 5.72054,4.23987 9.90725,7.74128 12.57141,10.74126 2.75204,2.98853 3.50581,5.45878 2.17039,7.45801 -0.65096,0.97454 -1.90142,1.61693 -3.75855,1.90763 -1.75023,0.29767 -3.92174,0.21175 -6.5056,-0.27957 -2.58263,-0.4911 -5.55524,-1.43302 -8.89111,-2.84982 -3.22975,-1.40593 -6.61591,-3.26507 -10.12684,-5.58814 -0.70177,-0.46435 -1.05428,-0.46574 -1.05663,0.002 0.28456,2.54702 0.82563,5.91716 1.66917,10.03479 0.95306,4.13905 2.16766,8.67623 3.67876,13.5767 0.81994,2.52969 1.89352,5.15685 3.22984,7.87252 1.41706,2.77083 3.134,5.49319 5.15256,8.15463 1.98924,2.7059 4.31041,5.30714 6.96073,7.78656 2.73418,2.53199 5.77164,4.79739 9.09675,6.77773 0.83132,0.49511 1.67421,0.96839 2.52833,1.41965 4.40019,2.31277 9.08812,4.03933 14.01905,5.1618 0.62021,0.0967 0.85396,0.28424 0.70056,0.56504 -0.10218,0.18703 -0.33901,0.20982 -0.71041,0.0675 -3.20116,-0.71789 -6.44568,-1.70387 -9.72093,-2.96195 -1.57479,-0.57798 -3.16447,-1.25028 -4.76643,-2.01754 -1.75739,-0.84661 -3.52838,-1.80761 -5.30896,-2.88342 -4.84817,-2.92921 -8.89094,-5.85808 -12.12263,-8.70554 -3.26376,-2.80545 -6.00469,-5.75036 -8.2201,-8.80172 -2.21596,-3.05211 -4.05487,-6.34415 -5.5083,-9.85875 -1.37358,-3.45743 -2.57228,-7.35077 -3.56549,-11.66423 -0.26472,-1.25244 -0.57044,-2.78225 -0.90327,-4.56061 -0.0728,-0.44021 -0.86211,-5.18057 -0.93486,-5.62077 -0.32053,-1.91962 -0.62379,-3.77177 -0.91065,-5.54543 -0.18057,-1.76339 -0.34857,-3.20977 -0.51515,-4.36145 0.13189,-0.16764 0.30782,-0.16478 0.52799,0.008 3.30224,2.59364 6.47759,4.74754 9.49327,6.47028 3.09041,1.7786 5.91593,3.04406 8.44692,3.81318 2.63867,0.78037 4.91225,1.00992 6.80768,0.71032 2.0031,-0.29071 3.51478,-1.19116 4.54659,-2.68082 0.36432,-0.52598 0.55615,-1.20333 0.57878,-2.03152 0.12764,-0.82034 -0.10223,-1.75882 -0.68415,-2.8185 -0.47753,-1.05193 -1.30676,-2.22306 -2.48336,-3.52336 -1.17743,-1.30122 -2.81799,-2.71437 -4.9223,-4.26449 -0.72526,-0.53426 -1.49641,-1.00627 -2.3146,-1.41687 -0.71403,-0.39945 -1.45074,-0.61891 -2.21222,-0.65838 -1.21554,-0.0439 -3.03,0.0469 -5.48466,0.25114 -2.42164,0.16177 -5.14533,0.4039 -8.20526,0.71279 -3.04033,0.3069 -6.29539,0.63604 -9.67749,0.969 -3.39256,0.33399 -6.71017,0.65043 -9.92036,0.95344 -3.11925,0.32438 -5.91725,0.62436 -8.45339,0.92327 -2.49829,0.25789 -4.41071,0.49183 -5.77491,0.72831 -0.14297,0.0172 -0.32412,-0.0694 -0.54317,-0.25982 -0.33009,-0.35766 -0.67711,-0.69561 -1.04124,-1.01401 -0.32901,-0.35854 -0.67502,-0.69741 -1.03819,-1.01678 -0.36017,-0.31672 -0.80154,-0.70574 -1.30546,-1.15191 -0.50695,-0.44884 -1.0845,-0.89073 -1.73292,-1.3267 -1.11468,-0.49482 -2.28144,-0.86258 -3.5024,-1.10398 -0.1439,-0.13017 -0.30588,-0.31278 -0.4856,-0.54781 -0.10792,-0.16993 -0.054,-0.22903 0.16128,-0.17775 11.37713,0.69886 21.17276,0.62133 29.2407,0.0757 8.08881,-0.54699 15.21222,-1.44213 21.32919,-2.54166 0.47606,-0.16969 0.67521,-0.35253 0.59836,-0.54759 -0.006,-0.13959 -0.18641,-0.34791 -0.54176,-0.62577 -2.19781,-1.58319 -4.5142,-3.01808 -6.95799,-4.31149 -2.44407,-1.29356 -4.80654,-2.41391 -7.09713,-3.35704 -1.52628,-0.58191 -3.10218,-0.97156 -4.73188,-1.1694 -1.62974,-0.19784 -3.17464,-0.22584 -4.63631,-0.0798 z m 150.32152,88.8145 c -1.23988,3.06467 -3.62468,5.62631 -7.20005,7.63284 -3.57366,2.00557 -7.85186,3.35769 -12.82907,4.00161 -4.88722,0.67916 -10.29808,0.58268 -16.18776,-0.34057 -5.89034,-0.92335 -11.71411,-2.72802 -17.39675,-5.41097 -3.40896,-1.60947 -6.51605,-3.29637 -9.31657,-5.04326 -2.71401,-1.70396 -4.95875,-3.47449 -6.73226,-5.2895 -1.68843,-1.77135 -2.8526,-3.58875 -3.4978,-5.43849 -0.56066,-1.80515 -0.35415,-3.60013 0.60195,-5.3851 0.80542,-1.50369 2.1076,-2.82946 3.89478,-3.99166 1.89498,-1.16512 4.00327,-2.16006 6.32153,-2.99484 2.31824,-0.83477 4.78056,-1.48355 7.38749,-1.95447 2.60726,-0.47098 5.04076,-0.74595 7.3111,-0.81826 4.43532,-0.13699 9.0502,0.38676 13.89065,1.55216 4.84111,1.16556 9.61265,2.74926 14.35664,4.76041 2.57999,1.09375 5.14898,2.33228 7.71499,3.71718 2.65032,1.41911 4.93116,2.92075 6.84593,4.52255 2.01831,1.58458 3.52286,3.2676 4.50886,5.06296 1.00432,1.74461 1.12032,3.55019 0.32634,5.41741 z m -6.27183,-2.97491 c 0.59556,-1.54181 0.66532,-3.0007 0.21862,-4.37503 -0.42754,-1.42458 -1.2341,-2.74085 -2.41667,-3.95457 -1.16329,-1.2637 -2.69175,-2.44876 -4.58584,-3.56675 -1.87424,-1.16753 -4.01741,-2.25696 -6.43413,-3.28081 -4.41637,-1.87099 -8.56305,-3.09053 -12.49365,-3.64334 -3.90746,-0.60118 -7.74861,-0.63388 -11.55412,-0.0925 -2.05003,0.25963 -4.29025,0.68295 -6.73179,1.26319 -2.3582,0.62073 -4.65096,1.38152 -6.87868,2.28596 -2.22793,0.90453 -4.2303,1.94432 -6.00337,3.12933 -1.74879,1.13769 -2.99662,2.40931 -3.73252,3.82896 -0.78472,1.51383 -1.06687,2.98772 -0.83714,4.425 0.33916,1.43307 1.08091,2.83126 2.22903,4.18789 1.17182,1.30871 2.68296,2.60187 4.53339,3.86844 1.96046,1.26133 4.16311,2.47674 6.60497,3.63597 5.14633,2.44314 10.37524,3.91231 15.61207,4.40959 5.3248,0.53593 10.23544,0.34797 14.70089,-0.52323 4.48654,-0.92066 8.28567,-2.4253 11.40029,-4.46536 3.22209,-2.05599 5.33193,-4.4488 6.36865,-7.1327 z m 115.51656,33.73853 c 0.21915,-1.15194 0.0729,-2.37322 -0.43366,-3.66451 -0.41581,-1.27429 -1.43925,-2.55592 -3.06366,-3.85375 -1.53478,-1.28072 -3.72836,-2.50478 -6.58133,-3.69286 -2.35605,-0.98114 -5.32067,-1.89469 -8.90667,-2.76725 -0.75735,-0.18459 -1.5421,-0.36727 -2.35451,-0.54838 -0.98383,-0.21932 -1.83807,-0.38452 -2.56485,-0.49451 -0.63717,-0.0897 -1.28247,0.064 -1.93757,0.46126 -2.70152,1.51838 -5.59091,3.19385 -8.69895,5.03141 -3.10533,1.83596 -6.24424,3.70301 -9.42349,5.60232 1.84318,-1.14711 -10.86396,6.76896 -9.02078,5.62185 -2.91484,1.7777 -5.45932,3.38293 -7.6405,4.84061 -0.48092,0.31203 -0.7498,0.57055 -0.80595,0.77667 -0.0842,0.30906 0.10858,0.69375 0.57977,1.15335 1.32052,1.35317 3.26866,2.62312 5.84387,3.79126 2.66859,1.19258 5.45366,2.14875 8.34711,2.86507 5.69369,1.40957 11.22726,2.0453 16.5546,1.92477 1.51129,-0.0342 2.98033,-0.11963 4.40644,-0.25543 3.59854,-0.343 6.92533,-1.00533 9.97414,-1.97587 4.26739,-1.40724 7.791,-3.37493 10.57723,-5.87387 2.79688,-2.55171 4.50138,-5.53933 5.14876,-8.94214 z m -74.62627,7.41388 c 1.41097,-0.36583 2.74147,-0.81453 3.99119,-1.34448 1.26337,-0.58077 2.25203,-1.07878 2.96281,-1.487 0.68308,-0.35017 1.93821,-1.01674 3.67196,-1.96362 1.85146,-0.97923 3.94214,-2.12409 6.25179,-3.43375 2.41688,-1.33773 4.89332,-2.77887 7.42582,-4.32506 2.63239,-1.5717 5.14253,-3.08593 7.51004,-4.52331 2.36909,-1.43833 4.4614,-2.76837 6.26961,-3.97302 1.81729,-1.254 3.14031,-2.21038 3.94434,-2.83518 0.0372,-0.15574 -0.0718,-0.29151 -0.32657,-0.40755 -0.25483,-0.11605 -0.4712,-0.19558 -0.6493,-0.23851 -2.84955,-0.68684 -5.68686,-1.2246 -8.51828,-1.61349 -2.83136,-0.38888 -5.67312,-0.93599 -8.5197,-1.64223 -1.59415,-0.42645 -2.27668,-1.05661 -2.0532,-1.88026 0.028,-0.10308 0.128,-0.29712 0.30001,-0.58239 0.17199,-0.28525 0.39007,-0.39204 0.65442,-0.32057 0.17746,0.048 0.79399,0.38079 1.85996,0.99734 1.15331,0.63959 2.35082,1.12145 3.58983,1.44492 1.58472,0.41372 3.68955,0.92977 6.26769,1.52241 2.59319,0.54147 4.85321,0.9831 6.73973,1.32806 2.23575,0.48362 4.4307,0.94609 6.5819,1.38832 2.15169,0.44232 4.34379,0.9112 6.57758,1.4058 0.42912,0.095 0.85723,0.19148 1.28432,0.28939 0,0 0,0 0,0 3.04695,0.69737 6.04233,1.46853 8.9896,2.31586 3.4516,0.98506 6.45264,2.12391 9.01053,3.43451 2.64739,1.3277 4.69949,2.87777 6.15468,4.66448 1.55508,1.75038 2.1279,3.80301 1.70025,6.16299 -0.39901,2.20191 -1.53551,4.29943 -3.42603,6.28162 -1.78836,1.94646 -4.07633,3.69063 -6.8702,5.21866 -2.78361,1.47555 -5.96683,2.67523 -9.54803,3.58397 -3.48815,0.92763 -7.11007,1.45595 -10.85473,1.57902 -0.80174,0.0263 -1.6077,0.0382 -2.41781,0.0354 -2.97611,-0.0102 -6.00851,-0.21832 -9.09107,-0.62703 -3.84069,-0.44649 -7.72862,-1.15367 -11.65214,-2.12494 -3.1762,-0.78627 -6.17574,-1.68944 -8.99433,-2.70295 -2.83223,-0.96192 -5.52974,-2.23943 -8.08146,-3.82802 -0.85535,-0.5124 -1.60548,-0.8594 -2.25294,-1.04017 -0.74045,-0.20674 -1.8525,-0.32445 -3.34183,-0.35946 -1.48879,-0.035 -2.96174,0.0407 -4.42064,0.22748 -0.24015,-0.20895 -0.48008,-0.41802 -0.7198,-0.62723 z m 183.40296,25.92108 c 0.38674,-0.0792 0.56876,0.0407 0.54603,0.36 -0.58786,0.22553 -1.18177,0.53043 -1.78208,0.91466 -0.5016,0.33797 -0.9541,0.65234 -1.35761,0.94352 -0.71555,0.64222 -2.08255,1.0229 -4.09954,1.13406 -2.40082,0.13485 -4.99339,0.22079 -7.77315,0.25354 -2.77559,-0.0204 -5.60077,-0.0553 -8.4732,-0.10617 -2.87285,-0.0509 -5.694,-0.162 -8.46234,-0.33242 -2.76814,-0.1704 -5.3888,-0.39057 -7.85984,-0.65723 -3.60815,-0.38938 -6.55159,-0.80646 -8.80816,-1.23064 -2.26549,-0.37177 -4.04828,-0.77555 -5.34282,-1.20212 -1.19405,-0.46814 -2.00457,-0.91861 -2.43181,-1.34782 -0.42083,-0.4823 -0.59754,-0.98807 -0.53118,-1.51691 0.11949,-0.95219 0.76568,-1.89098 1.93402,-2.8204 0.4664,-0.35669 1.3298,-1.00516 2.84463,-2.14837 1.47102,-1.11016 2.99112,-2.27121 4.55839,-3.48319 1.57734,-1.26805 2.97854,-2.38847 4.22948,-3.37715 1.25315,-1.03866 1.87992,-1.58629 1.88582,-1.63928 0.0177,-0.15896 -0.11044,-0.28046 -0.38429,-0.36469 -0.27442,-0.0844 -0.92312,-0.18348 -1.94918,-0.30015 -0.46617,-0.053 -0.69007,-0.15923 -0.67188,-0.31808 0.0425,-0.37097 0.62875,-0.54465 1.7584,-0.52465 2.16062,0.0825 3.81505,-0.38165 4.95844,-1.38425 0.40478,-0.32495 1.2991,-1.07335 2.63327,-2.21256 1.43422,-1.13557 2.87228,-2.35378 4.31339,-3.6547 1.53801,-1.34368 2.8723,-2.55323 4.00039,-3.62066 1.22608,-1.11202 1.84735,-1.77713 1.86778,-1.98879 0.0205,-0.21237 -0.24544,-0.3449 -0.79752,-0.39839 -2.76065,-0.26747 -5.52432,-0.49295 -8.29239,-0.67689 -2.7686,-0.18397 -5.22388,-0.23938 -7.3724,-0.15959 -0.0888,-0.0368 -0.17765,-0.0737 -0.26646,-0.11055 0.2857,-0.87972 0.72144,-1.44754 1.30698,-1.70387 2.8294,0.42369 5.80321,0.82411 8.92023,1.19768 3.20764,0.38285 6.24197,0.70558 9.09266,0.97246 0.99785,0.0934 2.77704,0.23209 5.25372,0.39816 2.48083,0.16634 5.26936,0.35043 8.306,0.54222 3.13891,0.19988 6.27974,0.38621 9.42234,0.55942 3.15915,0.17413 5.80689,0.32588 8.04143,0.47123 0.55446,0.0361 0.8232,0.18688 0.80597,0.45317 -0.20197,0.25413 -0.5998,0.65674 -1.19334,1.20596 -0.59025,0.49618 -1.13669,1.02154 -1.63925,1.57627 -0.18354,-0.039 -0.36707,-0.078 -0.55057,-0.11706 0.0216,-0.31943 -0.0977,-0.62153 -0.35732,-0.90645 -0.16709,-0.27867 -0.38754,-0.45403 -0.66148,-0.52616 -2.85109,-0.46169 -5.93231,-0.86931 -9.24992,-1.22987 -3.31671,-0.36047 -6.63387,-0.68254 -9.95302,-0.96689 -1.47516,-0.12637 -2.60417,0.0417 -3.38931,0.50735 -2.66076,1.69139 -5.40254,3.63357 -8.23374,5.82536 -2.73327,2.14755 -5.33793,4.2441 -7.81157,6.29317 -0.42205,0.43843 -0.168,0.70669 0.76539,0.80253 1.30065,0.18714 2.60458,0.34529 3.91148,0.47444 1.30664,0.12912 2.66107,0.26046 4.0618,0.39335 4.29029,0.40703 8.04696,0.68346 11.22921,0.84475 3.28648,0.11634 6.58445,0.0849 9.89054,-0.0942 0.1343,0.0904 0.26862,0.1807 0.40298,0.27101 0.0849,-0.0831 -0.84705,0.8283 -0.7621,0.74516 -0.30505,0.29797 -0.56145,0.57271 -0.76914,0.82442 -0.1099,0.20558 -0.49294,0.28354 -1.14892,0.23288 -2.43563,-0.24167 -5.0963,-0.48172 -8.00188,-0.72738 -2.80452,-0.29065 -5.65513,-0.56937 -8.55464,-0.83788 -2.15091,-0.19919 -4.25432,-0.40061 -6.31007,-0.60351 -1.96251,-0.1937 -3.83293,-0.35716 -5.61291,-0.48907 -0.74703,-0.0779 -1.27722,0.0269 -1.59116,0.31543 -1.75685,1.42312 -3.57409,2.91483 -5.45698,4.4768 -1.78868,1.57206 -3.39122,3.10663 -4.80545,4.60743 -1.0827,1.10963 -1.68187,2.13918 -1.79297,3.09256 -0.28904,2.48028 2.9255,4.14203 9.67539,4.86183 2.37195,0.25294 5.28575,0.4483 8.72471,0.57184 3.53644,0.13297 7.12989,0.14661 10.77752,0.0397 3.6518,-0.15998 7.11846,-0.43491 10.39561,-0.81884 3.37108,-0.37634 6.03611,-0.90396 7.98759,-1.56557 z m 104.64016,-26.25217 c -0.55956,-0.10481 -1.21197,-0.18289 -1.95747,-0.23458 -0.65249,-0.0519 -1.49056,-0.0771 -2.51543,-0.0763 -1.76988,0.001 -3.12021,0.31979 -4.0528,0.95846 -0.93267,0.63874 -1.91278,1.32983 -2.94133,2.07342 -1.21575,0.95637 -2.48033,2.01786 -3.79524,3.18449 -1.31462,1.11326 -2.49144,2.19901 -3.52977,3.25835 -0.44797,0.42731 -2.95549,2.82501 -3.40346,3.25232 -1.23395,1.21739 -2.55972,2.53337 -3.99076,3.95891 -1.42828,1.37007 -2.90819,2.76476 -4.43959,4.18276 -1.43716,1.41952 -2.83009,2.75782 -4.17764,4.01502 -2.3091,2.0943 -4.66719,3.72875 -7.06895,4.90266 -2.30549,1.12263 -4.75495,2.04981 -7.34653,2.7791 -0.57543,0.14428 -0.91309,0.2948 -1.01286,0.45221 -0.0997,0.15726 0.2787,0.24846 1.13573,0.27209 2.68135,-0.0869 5.8523,-0.1659 9.57806,-0.2489 3.71717,-0.0828 7.32965,-0.15503 10.8526,-0.21428 5.61638,-0.17284 4.08608,-0.12713 9.70246,-0.29997 2.86315,-0.0865 4.83688,-0.13217 5.98797,-0.1282 -0.23978,-8.2e-4 2.09248,0.006 1.85271,0.005 0.85506,0.002 1.70999,0.0299 2.56492,0.0839 0.855,6.2e-4 1.66237,0.0272 2.42233,0.08 0.76003,-5.7e-4 1.32972,0.0252 1.70985,0.0779 1.51995,0.21066 2.28113,0.5809 2.28263,1.11452 7.5e-4,0.26659 -0.23537,0.77429 -0.70915,1.52229 -0.37859,0.80116 -0.75817,1.41552 -1.13837,1.84308 -0.19048,4.2e-4 -0.28587,-0.10609 -0.2862,-0.31946 -4.1e-4,-0.26671 -0.096,-0.53322 -0.28676,-0.79959 -0.0956,-0.26657 -0.42884,-0.45261 -0.99981,-0.55863 -1.42763,-0.31843 -3.04446,-0.55839 -4.85184,-0.72172 -1.8073,-0.16332 -3.66191,-0.2764 -5.56459,-0.3398 -1.90236,-0.11676 -3.7573,-0.18334 -5.56539,-0.19929 -1.80772,-0.0693 -3.52021,-0.11427 -5.13834,-0.13397 -5.53443,-0.0674 -10.17227,-0.10022 -13.99784,-0.0758 -3.72143,0.0264 -6.85783,0.0776 -9.4399,0.16506 -2.58038,0.0874 -4.67495,0.18092 -6.304,0.28794 -1.6278,0.1602 -3.06433,0.32362 -4.31218,0.49237 -0.37952,-0.0671 -0.70843,-0.21265 -0.98658,-0.43655 -0.28012,-0.17055 -0.41713,-0.33591 -0.4112,-0.49594 0.0119,-0.32014 0.39892,-0.46577 1.16097,-0.43814 1.7145,0.0622 3.24116,0.0608 4.57791,-0.002 1.33697,-0.0629 2.48675,-0.24068 3.44844,-0.53189 1.5395,-0.48732 2.98758,-1.16684 4.3431,-2.03767 1.45148,-0.92125 3.19934,-2.29154 5.23328,-4.11182 2.0343,-1.82059 4.16022,-3.83021 6.37401,-6.02948 2.30818,-2.19746 4.55948,-4.42798 6.75425,-6.69033 2.29041,-2.31523 4.51962,-4.55352 6.69482,-6.71916 2.17612,-2.21939 4.14951,-4.1745 5.93304,-5.87057 0.18818,-0.26546 0.46893,-0.45024 0.84226,-0.55448 0.46684,-0.15698 0.93338,-0.28748 1.3997,-0.3915 1.95908,-0.41567 4.38018,-0.75161 7.26764,-1.01432 2.9807,-0.2626 5.63225,-0.39989 7.961,-0.40739 0.466,0.10516 0.65316,0.29108 0.56117,0.55811 0.001,0.26666 -0.13775,0.45384 -0.41687,0.56145 z"
       id="text1"
       style="font-size:32px;font-family:Zapfino;-inkscape-font-specification:Zapfino;letter-spacing:24px;word-spacing:0px;white-space:pre;fill:#bbc040;fill-opacity:0.188235"
       transform="scale(0.26458333)"
       aria-label="ALRODEL"
       inkscape:path-effect="#path-effect1"
       inkscape:original-d="m 89.519844,243.79632 q 0.08,0.48 1.04,0.72 0.96,0.24 2.24,0.32 1.36,0.08 2.8,0.08 1.44,0 2.4,0 2.559996,0 4.159996,0.08 1.6,0 2.24,0.16 0.8,0.24 0.88,0.24 0.16,-0.08 0.32,-0.64 0.32,-1.6 0.8,-4.32 0.48,-2.72 0.96,-5.44 0.48,-2.72 0.8,-4.72 0.4,-2.08 0.48,-2.4 0.16,-0.64 0,-0.64 -0.16,-0.08 -0.8,0.4 -0.24,0.16 -1.36,1.12 -1.12,0.88 -2.88,2.32 -1.68,1.44 -3.759996,3.2 -2,1.68 -4,3.44 -1.92,1.68 -3.6,3.28 -1.68,1.6 -2.72,2.8 z m -20.64,19.52 q 0.08,-1.44 1.04,-2.56 1.04,-1.2 2.72,-2.8 15.36,-14.32 24.8,-22.56 9.439996,-8.32 12.079996,-10.16 0.64,-0.4 1.92,-0.72 1.28,-0.32 1.76,-0.8 0.48,-0.48 0.48,-0.08 0.08,0.32 -0.08,0.64 -0.8,1.2 -1.28,2.8 -0.48,1.52 -0.64,2.56 -0.08,0.32 -0.48,2.16 -0.32,1.76 -0.8,4.4 -0.48,2.56 -1.04,5.6 -0.48,2.96 -0.96,5.76 -0.48,2.72 -0.8,4.96 -0.24,2.16 -0.32,3.04 0,1.36 0.24,2.16 0.32,0.72 0.72,1.12 0.4,0.32 0.8,0.4 0.4,0.08 0.64,0.08 0.4,0 0.96,-0.08 0.56,-0.16 1.2,-0.32 0.64,-0.16 0.64,0.08 0.08,0.24 -0.56,0.4 -0.32,0.08 -1.2,0.32 -0.8,0.24 -1.92,0.56 -1.04,0.32 -2.16,0.64 -1.04,0.24 -1.84,0.4 -1.2,0 -1.6,-1.6 0.08,-0.48 0.32,-2 0.24,-1.6 0.48,-3.36 0.32,-1.76 0.56,-3.28 0.24,-1.6 0.24,-2.08 0,-0.88 -0.88,-1.76 -0.8,-0.96 -2.4,-1.36 -0.56,-0.16 -2.159996,-0.24 -1.6,-0.08 -3.84,-0.08 -2.32,0 -4.56,0 -2.24,-0.08 -3.36,-0.24 -6.08,5.52 -10.24,10.08 -4.08,4.56 -6.16,7.6 -0.64,1.04 -0.96,1.84 -0.24,0.88 -0.4,2.24 -0.16,0.48 -0.48,0.24 z m 103.279976,-37.28 q -0.48,-0.16 -1.12,-0.24 -0.56,-0.08 -1.44,-0.08 -1.52,0 -2.32,0.96 -0.8,0.96 -1.68,2.08 -1.04,1.44 -2.16,3.2 -1.12,1.68 -2,3.28 -0.8,1.36 -1.92,3.28 -1.04,1.84 -2.24,4 -1.2,2.08 -2.48,4.24 -1.2,2.16 -2.32,4.08 -1.92,3.2 -3.92,5.04 -1.92,1.76 -4.08,2.96 -0.48,0.24 -0.56,0.48 -0.08,0.24 0.64,0.24 2.24,-0.24 5.36,-0.48 3.12,-0.24 6.08,-0.4 3.04,-0.24 5.44,-0.4 2.4,-0.16 3.36,-0.16 0.4,0 1.04,0 0.72,0 1.44,0.08 0.72,0 1.36,0.08 0.64,0 0.96,0.08 1.28,0.32 1.28,1.12 0,0.4 -0.4,1.52 -0.32,1.2 -0.64,1.84 -0.16,0 -0.16,-0.32 0,-0.4 -0.16,-0.8 -0.08,-0.4 -0.56,-0.56 -1.2,-0.48 -2.72,-0.72 -1.52,-0.24 -3.12,-0.32 -1.6,-0.16 -3.12,-0.16 -1.52,-0.08 -2.88,-0.08 -4.64,0 -7.84,0.16 -3.12,0.16 -5.28,0.4 -2.16,0.24 -3.52,0.48 -1.36,0.32 -2.4,0.64 -0.32,-0.08 -0.56,-0.4 -0.24,-0.24 -0.24,-0.48 0,-0.48 0.64,-0.48 1.44,0 2.56,-0.16 1.12,-0.16 1.92,-0.64 1.28,-0.8 2.4,-2.16 1.2,-1.44 2.88,-4.24 1.68,-2.8 3.52,-6.16 1.92,-3.36 3.76,-6.8 1.92,-3.52 3.76,-6.8 1.84,-3.36 3.36,-5.92 0.16,-0.4 0.48,-0.56 0.4,-0.24 0.8,-0.4 1.68,-0.64 4.16,-1.04 2.56,-0.4 4.56,-0.4 0.4,0.16 0.32,0.56 0,0.4 -0.24,0.56 z m 35.75996,8.64 q -0.16,0.08 -0.32,0.08 -0.16,-0.08 -0.16,-0.24 0.24,-0.64 0.48,-1.52 0.24,-0.96 0.4,-1.68 0,-0.8 0.96,-1.36 2.08,-1.12 4.64,-2.08 2.64,-0.96 5.2,-1.52 4.72,-0.96 9.84,-0.96 6.32,0 9.76,1.44 3.52,1.36 3.52,4.96 0,1.76 -1.2,3.68 -1.12,1.84 -3.2,3.44 -2.08,1.6 -5.12,2.8 -2.96,1.12 -6.56,1.52 -0.72,0.08 -0.48,0.64 1.52,2.8 4.16,7.04 2.72,4.16 6.08,8.88 1.76,2.4 3.92,4.64 2.24,2.24 4.8,3.92 2.56,1.76 5.44,2.8 2.96,1.04 6.08,1.04 4.8,0 9.52,-2.48 0.48,-0.32 0.48,0.16 0,0.32 -0.32,0.4 -2.56,1.36 -5.36,2.16 -2.8,0.88 -6,0.88 -4.56,0 -8,-0.96 -3.44,-0.88 -6.32,-2.8 -2.88,-1.92 -5.52,-4.96 -2.56,-3.04 -5.36,-7.36 -0.8,-1.28 -1.92,-3.12 -1.12,-1.92 -2.32,-3.92 -1.2,-2 -2.32,-3.84 -1.04,-1.92 -1.76,-3.12 0,-0.32 0.24,-0.32 3.6,0 6.56,-0.64 3.04,-0.64 5.2,-1.92 2.24,-1.36 3.44,-3.36 1.28,-2.08 1.28,-4.8 0,-0.96 -0.4,-2 -0.32,-1.12 -1.28,-1.92 -0.88,-0.88 -2.4,-1.44 -1.52,-0.56 -3.84,-0.56 -0.8,0 -1.6,0.24 -0.72,0.16 -1.28,0.8 -0.88,1.04 -2.48,3.52 -1.6,2.4 -3.52,5.6 -1.92,3.2 -4,6.8 -2.08,3.6 -4,7.04 -1.84,3.36 -3.28,6.16 -1.44,2.72 -2.16,4.32 -0.08,0.16 -0.32,0.16 -0.4,-0.08 -0.8,-0.08 -0.4,-0.08 -0.8,-0.08 -0.4,0 -0.96,0 -0.56,0 -1.2,0.16 -0.96,0.56 -1.84,1.52 -0.16,0 -0.4,-0.08 -0.16,-0.08 0,-0.24 7.36,-10.72 12.4,-19.12 5.04,-8.4 8.72,-15.36 0.24,-0.64 0.08,-0.8 -0.08,-0.16 -0.48,-0.16 -2.4,0.16 -4.8,0.96 -2.4,0.8 -4.48,1.92 -1.36,0.8 -2.56,2.16 -1.2,1.36 -2.08,2.96 z m 101.91992,0.72 q -0.08,4.96 -2.32,9.68 -2.24,4.72 -5.92,8.4 -3.6,3.68 -8.4,5.92 -4.8,2.24 -10,2.24 -3.12,0 -5.84,-0.48 -2.64,-0.48 -4.64,-1.68 -1.92,-1.2 -3.12,-3.2 -1.12,-2 -1.12,-5.04 0,-2.56 0.88,-5.36 0.96,-2.88 2.4,-5.6 1.44,-2.72 3.28,-5.12 1.84,-2.4 3.6,-4 3.44,-3.12 7.76,-4.56 4.32,-1.44 8.88,-1.44 2.48,0 5.04,0.48 2.64,0.48 4.72,1.68 2.16,1.12 3.52,3.12 1.36,1.92 1.28,4.96 z m -4,-0.56 q 0,-2.48 -0.8,-4.16 -0.8,-1.76 -2.16,-2.8 -1.36,-1.12 -3.28,-1.6 -1.92,-0.56 -4.24,-0.56 -4.24,0 -7.6,1.68 -3.36,1.6 -6.16,4.8 -1.52,1.68 -3.2,4.08 -1.6,2.4 -2.96,5.12 -1.36,2.72 -2.24,5.52 -0.88,2.72 -0.88,5.12 0,2.56 0.72,4.32 0.8,1.68 2.16,2.72 1.36,0.96 3.2,1.44 1.92,0.4 4.16,0.4 4.72,0 8.88,-2.48 4.24,-2.48 7.44,-6.24 3.2,-3.84 5.04,-8.4 1.92,-4.64 1.92,-8.96 z m 69.35999,1.36 q 0,-1.76 -0.64,-3.52 -0.56,-1.76 -2.16,-3.2 -1.52,-1.44 -4.16,-2.32 -2.64,-0.88 -6.8,-0.88 -0.88,0 -1.52,0.08 -0.56,0.08 -1.04,0.88 -2,3.12 -4.24,6.88 -2.24,3.76 -4.48,7.68 -2.16,3.92 -4.16,7.68 -2,3.68 -3.44,6.64 -0.32,0.64 -0.32,0.96 0,0.48 0.48,0.96 1.36,1.44 3.68,2.16 2.4,0.72 4.88,0.72 4.88,0 9.2,-1.92 4.32,-1.92 7.6,-5.2 3.28,-3.36 5.2,-7.84 1.92,-4.56 1.92,-9.76 z m -40,24.56 q 1.04,-1.12 1.92,-2.4 0.88,-1.36 1.36,-2.24 0.48,-0.8 1.68,-2.88 1.28,-2.16 2.88,-4.96 1.68,-2.88 3.44,-6.08 1.84,-3.28 3.52,-6.24 1.68,-2.96 2.96,-5.36 1.28,-2.48 1.84,-3.68 0,-0.24 -0.24,-0.32 -0.24,-0.08 -0.4,-0.08 -2.56,0 -5.04,0.48 -2.48,0.48 -5.04,0.56 -1.44,0 -1.44,-1.28 0,-0.16 0.08,-0.64 0.08,-0.48 0.32,-0.48 0.16,0 1.2,0.48 1.12,0.48 2.24,0.48 1.44,0 3.76,-0.08 2.32,-0.16 4,-0.32 2,-0.08 3.92,-0.16 1.92,-0.08 3.92,-0.08 3.12,0 6.16,0.4 3.12,0.4 5.52,1.6 2.48,1.2 4,3.44 1.6,2.16 1.6,5.76 0,3.36 -1.28,6.8 -1.2,3.36 -3.28,6.4 -2.08,2.96 -4.88,5.36 -2.72,2.4 -5.76,3.76 -3.04,1.36 -6.32,1.92 -3.2,0.64 -6.56,0.64 -2.72,0 -5.2,-0.4 -2.48,-0.32 -4.88,-1.6 -0.8,-0.4 -1.36,-0.4 -0.64,0 -1.84,0.56 -1.2,0.56 -2.32,1.44 z m 103.59997,-5.2 q 0.32,-0.16 0.32,0.32 -0.48,0.4 -0.96,1.04 -0.4,0.56 -0.72,1.04 -0.56,1.04 -2.24,1.44 -2,0.48 -4.32,0.88 -2.32,0.32 -4.72,0.64 -2.4,0.32 -4.72,0.48 -2.32,0.16 -4.4,0.16 -3.04,0 -4.96,-0.24 -1.92,-0.16 -3.04,-0.56 -1.04,-0.48 -1.44,-1.04 -0.4,-0.64 -0.4,-1.44 0,-1.44 0.88,-3.04 0.32,-0.56 1.44,-2.48 1.12,-1.92 2.32,-4 1.2,-2.16 2.16,-3.84 0.96,-1.76 0.96,-1.84 0,-0.24 -0.24,-0.32 -0.24,-0.08 -1.12,-0.08 -0.4,0 -0.4,-0.24 0,-0.56 0.96,-0.72 1.84,-0.24 2.72,-1.92 0.32,-0.56 1.36,-2.48 1.12,-1.92 2.24,-4.08 1.2,-2.24 2.08,-4 0.96,-1.84 0.96,-2.16 0,-0.32 -0.48,-0.32 -2.4,0 -4.8,0.16 -2.4,0.16 -4.24,0.64 l -0.16,-0.08 q 0.16,-1.36 0.64,-1.84 2.48,0.16 5.2,0.24 2.8,0.08 5.28,0.08 0.88,0 3.04,-0.08 2.16,-0.08 4.8,-0.16 2.72,-0.08 5.44,-0.16 2.72,-0.08 4.64,-0.08 0.48,0 0.48,0.4 -0.16,0.4 -0.64,1.28 -0.48,0.8 -0.88,1.68 l -0.32,-0.08 q 0,-0.48 -0.24,-0.88 -0.16,-0.4 -0.4,-0.48 -2.48,-0.4 -5.36,-0.56 -2.88,-0.16 -5.76,-0.16 -1.28,0 -1.92,0.8 -2.16,2.88 -4.4,6.56 -2.16,3.6 -4.08,7.04 -0.32,0.72 0.48,0.72 1.12,0.08 2.24,0.08 1.12,0 2.32,0 3.68,0 6.4,-0.16 2.8,-0.24 5.6,-0.88 l 0.24,0.24 q -0.16,0.32 -0.4,0.8 -0.24,0.48 -0.4,0.88 -0.08,0.32 -0.64,0.32 -2.08,-0.08 -4.56,-0.08 -2.4,-0.08 -4.88,-0.08 -1.84,0 -3.6,0 -1.68,0 -3.2,0.08 -0.64,0 -0.88,0.48 -1.36,2.4 -2.8,5.04 -1.36,2.64 -2.4,5.12 -0.8,1.84 -0.8,3.28 0,3.76 5.68,3.76 2,0 4.88,-0.32 2.96,-0.32 6,-0.96 3.04,-0.72 5.76,-1.68 2.8,-0.96 4.4,-2.16 z m 58.87994,-29.52 q -0.48,-0.16 -1.12,-0.24 -0.56,-0.08 -1.44,-0.08 -1.52,0 -2.32,0.96 -0.8,0.96 -1.68,2.08 -1.04,1.44 -2.16,3.2 -1.12,1.68 -2,3.28 -0.8,1.36 -1.92,3.28 -1.04,1.84 -2.24,4 -1.2,2.08 -2.48,4.24 -1.2,2.16 -2.32,4.08 -1.92,3.2 -3.92,5.04 -1.92,1.76 -4.08,2.96 -0.48,0.24 -0.56,0.48 -0.08,0.24 0.64,0.24 2.24,-0.24 5.36,-0.48 3.12,-0.24 6.08,-0.4 3.04,-0.24 5.44,-0.4 2.4,-0.16 3.36,-0.16 0.4,0 1.04,0 0.72,0 1.44,0.08 0.72,0 1.36,0.08 0.64,0 0.96,0.08 1.28,0.32 1.28,1.12 0,0.4 -0.4,1.52 -0.32,1.2 -0.64,1.84 -0.16,0 -0.16,-0.32 0,-0.4 -0.16,-0.8 -0.08,-0.4 -0.56,-0.56 -1.2,-0.48 -2.72,-0.72 -1.52,-0.24 -3.12,-0.32 -1.6,-0.16 -3.12,-0.16 -1.52,-0.08 -2.88,-0.08 -4.64,0 -7.84,0.16 -3.12,0.16 -5.28,0.4 -2.16,0.24 -3.52,0.48 -1.36,0.32 -2.4,0.64 -0.32,-0.08 -0.56,-0.4 -0.24,-0.24 -0.24,-0.48 0,-0.48 0.64,-0.48 1.44,0 2.56,-0.16 1.12,-0.16 1.92,-0.64 1.28,-0.8 2.4,-2.16 1.2,-1.44 2.88,-4.24 1.68,-2.8 3.52,-6.16 1.92,-3.36 3.76,-6.8 1.92,-3.52 3.76,-6.8 1.84,-3.36 3.36,-5.92 0.16,-0.4 0.48,-0.56 0.4,-0.24 0.8,-0.4 1.68,-0.64 4.16,-1.04 2.56,-0.4 4.56,-0.4 0.4,0.16 0.32,0.56 0,0.4 -0.24,0.56 z" />
  </g>
</svg>
