<?xml version="1.0" encoding="UTF-8" standalone="no"?>
<!-- Created with Inkscape (http://www.inkscape.org/) -->

<svg
   width="210mm"
   height="297mm"
   viewBox="0 0 210 297"
   version="1.1"
   id="svg1"
   inkscape:version="1.3 (0e150ed, 2023-07-21)"
   sodipodi:docname="diba.svg"
   inkscape:export-filename="diba.png"
   inkscape:export-xdpi="96"
   inkscape:export-ydpi="96"
   xmlns:inkscape="http://www.inkscape.org/namespaces/inkscape"
   xmlns:sodipodi="http://sodipodi.sourceforge.net/DTD/sodipodi-0.dtd"
   xmlns="http://www.w3.org/2000/svg"
   xmlns:svg="http://www.w3.org/2000/svg">
  <sodipodi:namedview
     id="namedview1"
     pagecolor="#ffffff"
     bordercolor="#000000"
     borderopacity="0.25"
     inkscape:showpageshadow="2"
     inkscape:pageopacity="0.0"
     inkscape:pagecheckerboard="0"
     inkscape:deskcolor="#d1d1d1"
     inkscape:document-units="mm"
     showgrid="false"
     inkscape:zoom="0.76257015"
     inkscape:cx="397.34049"
     inkscape:cy="561.25984"
     inkscape:window-width="1392"
     inkscape:window-height="1027"
     inkscape:window-x="0"
     inkscape:window-y="25"
     inkscape:window-maximized="0"
     inkscape:current-layer="layer1" />
  <defs
     id="defs1">
    <inkscape:path-effect
       effect="bend_path"
       id="path-effect1"
       is_visible="true"
       lpeversion="1"
       bendpath="M 201.90358,345.02913 C 304.09309,440.85961 296.351,474.58891 374.2951,374.05432"
       prop_scale="1"
       scale_y_rel="false"
       vertical="false"
       hide_knot="false"
       bendpath-nodetypes="cc" />
    <rect
       x="116.71057"
       y="347.50901"
       width="468.15365"
       height="284.56399"
       id="rect1" />
  </defs>
  <g
     inkscape:label="Layer 1"
     inkscape:groupmode="layer"
     id="layer1">
    <path
       d="m 239.43484,368.80268 c 0.83498,-0.82428 1.50639,-1.8145 2.01261,-2.97155 0.54722,-1.11543 0.75106,-2.42687 0.60827,-3.93437 -0.10156,-1.46571 -0.62704,-3.09269 -1.58016,-4.87774 -0.95278,-1.78441 -2.51369,-3.75802 -4.68624,-5.90843 -0.45964,-0.45496 -0.87586,-0.82869 -1.24813,-1.12121 -0.33044,-0.25122 -0.80869,-0.31082 -1.43421,-0.17839 -2.50553,0.45031 -5.22335,0.99826 -8.14502,1.64671 -2.92256,0.64865 -5.87757,1.3454 -8.86355,2.09124 -2.94456,0.78632 -5.80388,1.58492 -8.57969,2.39478 -2.73771,0.77106 -5.1611,1.51897 -7.2676,2.23596 -0.4601,0.15081 -0.76369,0.3037 -0.9108,0.45813 -0.22072,0.23171 -0.31716,0.5817 -0.28988,1.04987 0.0405,1.36515 0.49171,2.79201 1.35168,4.28429 0.90115,1.53189 1.98481,2.91235 3.25349,4.14409 2.49637,2.4237 5.28559,4.26343 8.38288,5.5245 3.09703,1.26095 6.24849,1.95514 9.46171,2.07812 3.25066,0.0853 6.42535,-0.42534 9.52465,-1.54021 3.13712,-1.15238 5.94291,-2.94032 8.40999,-5.37579 z m -48.09618,-12.6636 c 1.05055,-0.0386 2.09684,-0.15312 3.139,-0.34388 1.07929,-0.22972 1.9442,-0.4387 2.59722,-0.62955 0.62727,-0.15473 1.70068,-0.43395 3.29098,-0.85065 1.65971,-0.41352 3.54448,-0.89724 5.67046,-1.45155 2.20213,-0.55242 4.50249,-1.15565 6.90156,-1.80849 2.4765,-0.6507 4.84579,-1.2582 7.09786,-1.82255 2.25575,-0.56527 4.27335,-1.09028 6.06422,-1.58219 1.8298,-0.53064 3.16304,-0.93291 4.0206,-1.21837 0.11184,-0.1144 0.12331,-0.25238 0.0343,-0.41391 -0.089,-0.16152 -0.17564,-0.28341 -0.25987,-0.36564 -1.34762,-1.31572 -2.78981,-2.49358 -4.32463,-3.53202 -1.53482,-1.03843 -3.00066,-2.18921 -4.39953,-3.4533 -0.76591,-0.73252 -0.8559,-1.40698 -0.26693,-2.02473 0.0736,-0.0772 0.24217,-0.21127 0.50569,-0.4021 0.26355,-0.19085 0.45944,-0.22513 0.58759,-0.10284 0.0852,0.0813 0.29564,0.5032 0.62859,1.2645 0.37567,0.80227 0.86059,1.489 1.45561,2.06098 0.76667,0.73698 1.77939,1.67562 3.04544,2.82775 1.30324,1.1138 2.42902,2.06181 3.39027,2.85109 1.09019,0.99004 2.15874,1.96285 3.20269,2.91513 1.0445,0.9528 2.08926,1.94683 3.13395,2.98206 1.6297,1.61495 3.13919,3.30758 4.5277,5.07585 1.42997,1.80981 2.47841,3.62336 3.14659,5.43614 0.7095,1.85466 0.91983,3.70252 0.63369,5.54138 -0.0642,0.57101 -0.20086,1.13414 -0.40992,1.68941 -0.46519,1.23775 -1.29022,2.43582 -2.4728,3.59579 -1.23409,1.21049 -2.67362,2.23373 -4.31702,3.07273 -0.48617,0.24828 -0.99018,0.4804 -1.51201,0.69647 -2.20694,0.95031 -4.55865,1.60177 -7.05463,1.95897 -2.45806,0.31973 -4.96262,0.32986 -7.51499,0.0339 -2.5118,-0.25523 -4.85669,-0.82796 -7.03801,-1.71897 -2.18144,-0.89105 -4.23561,-2.02355 -6.16641,-3.39865 -1.92754,-1.29709 -3.74829,-2.77877 -5.46612,-4.4466 -1.39061,-1.35013 -2.63015,-2.73202 -3.71946,-4.14804 -1.12627,-1.37757 -2.01387,-2.96315 -2.66638,-4.76049 -0.22975,-0.58622 -0.48997,-1.01679 -0.77986,-1.29146 -0.33122,-0.31382 -0.93631,-0.62959 -1.8144,-0.94486 -0.87817,-0.3153 -1.80876,-0.53181 -2.79113,-0.64918 -0.0332,-0.21404 -0.0665,-0.42808 -0.0999,-0.64214 z m 51.4285,51.1757 c 0.36315,0.29684 0.78269,0.49847 1.2584,0.60473 0.5164,0.14801 0.99099,0.2147 1.42364,0.20004 1.05936,-0.0574 2.55453,-0.20923 4.47333,-0.45745 1.96036,-0.2067 4.09711,-0.50552 6.40236,-0.89904 0.7806,-0.11716 1.5717,-0.241 2.37301,-0.3716 1.60507,-0.26247 3.25819,-0.55111 4.94751,-0.86798 2.54167,-0.47674 4.93605,-0.96525 7.22615,-1.48047 2.3235,-0.55211 4.39032,-1.12695 6.2255,-1.72279 1.86977,-0.55513 3.29077,-1.11355 4.26616,-1.65135 0.30089,-0.15398 0.54389,-0.32721 0.72919,-0.51898 0.40843,-0.42269 0.0851,-1.14011 -0.96855,-2.17538 -0.46912,-0.46094 -1.0171,-0.96451 -1.64454,-1.51248 -0.62774,-0.54824 -1.25567,-1.02448 -1.8844,-1.42741 -0.003,-0.007 -0.11828,-0.22849 -0.12176,-0.23522 0.38161,-0.22189 0.7271,-0.32896 1.03623,-0.32159 1.74179,1.5911 3.40518,3.08821 5.03639,4.51765 1.70304,1.42499 3.19126,2.53164 4.48661,3.35944 0.0838,0.29424 0.0361,0.53952 -0.14356,0.73644 -0.0718,0.0787 -0.25933,0.0521 -0.56275,-0.0821 -0.38063,-0.20524 -0.79431,-0.26171 -1.24182,-0.16816 -0.44747,0.0935 -0.9324,0.2244 -1.45509,0.39223 -2.24761,0.75453 -4.7761,1.53027 -7.64749,2.32628 -2.83239,0.83533 -5.81704,1.61969 -9.00851,2.3736 -3.15002,0.71508 -6.3391,1.35342 -9.58962,1.94338 -1.35671,0.26693 -2.6854,0.51652 -3.9785,0.74937 -1.76205,0.31453 -3.46914,0.5962 -5.11778,0.84582 -0.74639,0.0771 -1.43868,0.0185 -2.07645,-0.17543 -0.63774,-0.19392 -1.17862,-0.44186 -1.62243,-0.74345 -0.5255,-0.3852 -1.05318,-0.84949 -1.58266,-1.39269 -0.56764,-0.50594 -1.03538,-0.98642 -1.40342,-1.4412 -0.043,-0.12071 0.0119,-0.25544 0.16485,-0.40418 z m 65.36009,7.36036 c 0.73914,-0.22313 1.69409,-0.61262 2.70318,-0.94058 0.0102,-0.004 0.0203,-0.008 0.0305,-0.0117 1.03324,-0.41269 2.01264,-0.72153 2.98681,-0.8079 1.00528,-0.10833 1.97033,-0.002 2.87179,0.39231 0.93304,0.36695 1.85984,1.09986 2.74085,2.23969 0.45604,0.58999 0.86443,1.39013 1.20339,2.40446 0.3384,1.01265 0.47162,2.18935 0.36019,3.51334 -0.10074,1.24497 -0.47953,2.65893 -1.19669,4.16005 -0.35415,0.69212 -0.81065,1.38141 -1.37408,2.05069 -0.62226,0.73875 -1.37813,1.46308 -2.26688,2.12929 -0.0965,0.0424 -0.11334,0.13675 -0.0498,0.28374 0.0423,0.0979 0.11241,0.12587 0.21041,0.0828 0.75012,-0.15458 1.58668,-0.34638 2.51364,-0.59143 0.17976,-0.0583 0.36046,-0.11126 0.54239,-0.15905 0.73075,-0.19276 1.47988,-0.30157 2.25913,-0.32545 0.94529,-0.0754 1.86329,0.0274 2.76451,0.32464 0.91714,0.21963 1.7387,0.81962 2.43533,1.82849 0.84463,1.22321 1.3409,2.74804 1.35607,4.58193 -0.014,1.78396 -0.54034,3.74919 -1.74444,5.8207 -0.0689,0.12297 -0.14034,0.24614 -0.21448,0.3695 -1.15627,1.92173 -3.02921,3.92402 -5.82646,5.70734 -1.2276,0.76646 -2.64025,1.46404 -4.24233,2.05669 -2.25279,0.81019 -4.81507,1.34504 -7.62058,1.47711 -1.59279,0.075 -3.26766,0.009 -5.00229,-0.22191 -1.30994,-0.19209 -2.6141,-0.46922 -3.90116,-0.83466 -2.98779,-0.79316 -5.44568,-2.06002 -7.36612,-3.59605 -0.0577,-0.0501 -0.11478,-0.0993 -0.17137,-0.14771 0,0 0,0 0,0 -0.38883,-0.34672 -0.7533,-0.64444 -1.10055,-0.89463 -0.3753,-0.33428 -0.69921,-0.56475 -0.98371,-0.69242 -0.57238,-0.25686 -1.52827,-0.46098 -2.88935,-0.66718 -1.35815,-0.20575 -2.63451,-0.32416 -3.85581,-0.34291 -0.13181,-0.22775 -0.26118,-0.45541 -0.38817,-0.68297 1.21935,-0.15066 2.0467,-0.31458 2.45741,-0.44933 0.50696,-0.1473 0.92145,-0.28911 1.24218,-0.41985 1.71879,-0.71286 3.45763,-1.51877 5.16724,-2.4329 1.35376,-0.75263 2.60434,-1.54049 3.75926,-2.36072 0.32873,-0.23117 0.64904,-0.46529 0.96095,-0.70196 1.49727,-1.10452 2.79798,-2.24335 3.91621,-3.38226 1.18563,-1.17529 2.12912,-2.28821 2.88168,-3.29155 0.57995,-0.86312 1.20821,-1.8674 1.78546,-2.98325 0.14034,-0.26327 0.27365,-0.53005 0.39985,-0.80024 0.43211,-0.92812 0.78729,-1.89237 1.0694,-2.8832 0.39303,-1.2761 0.64226,-2.54895 0.78052,-3.79068 0.15505,-1.29298 0.18764,-2.46873 0.16056,-3.48487 -0.002,-0.10809 -0.0162,-0.24019 -0.0414,-0.39858 -0.0252,-0.1582 -0.0772,-0.23024 -0.15228,-0.21915 -0.17751,0.0262 -0.35672,0.0996 -0.54984,0.21363 -0.16405,0.0968 -0.31957,0.20149 -0.47212,0.31342 -0.0289,0.0229 -0.059,0.0456 -0.0902,0.0682 -0.20393,0.0984 -0.44713,0.16686 -0.70471,0.21775 -0.25797,0.051 -0.48983,0.0413 -0.64784,-0.005 -0.33025,-0.0967 -0.41892,-0.41079 -0.25404,-0.91652 0.18155,-0.55683 0.38364,-0.97095 0.57954,-1.24336 0.0343,0.0108 0.0362,0.0953 0.008,0.2541 -0.0113,0.16442 0.0289,0.28811 0.11598,0.36988 0.10324,0.0862 0.37391,0.19816 0.68601,0.25341 0.15217,0.0269 0.27953,0.0346 0.38342,0.0225 0.14995,0.008 0.32161,-0.0149 0.49682,-0.0606 0.22367,-0.0984 0.50362,-0.18974 0.85661,-0.2865 0.12308,-0.025 0.2623,-0.0606 0.42167,-0.10868 z m 8.26588,2.21724 c -0.56693,-0.83983 -1.17134,-1.4269 -1.78917,-1.78452 -0.64732,-0.40232 -1.27159,-0.63151 -1.86675,-0.7061 -0.52571,-0.0659 -1.01566,-0.0438 -1.47497,0.0587 -0.0599,0.0122 -0.11901,0.026 -0.17732,0.0414 -0.52422,0.0845 -0.96823,0.21346 -1.34765,0.38861 -0.26068,0.12033 -0.46147,0.2954 -0.61867,0.53156 -0.15428,0.17711 -0.2172,0.51346 -0.21424,1.01841 0.002,0.76146 0.0134,1.75241 -0.0118,2.82422 -0.002,0.12811 -0.005,0.25538 -0.008,0.38182 0,0 0,0 0,0 -0.0119,0.90321 -0.0798,1.77216 -0.19061,2.59909 -0.38266,3.20168 -1.46032,6.9001 -3.71257,10.56381 0,0 0,0 0,0 -0.0236,0.0383 -0.0472,0.0766 -0.0711,0.11492 -2.31556,3.72361 -5.71719,7.09729 -9.74802,9.95485 -0.53306,0.38296 -0.91328,0.75378 -1.13133,1.12993 -0.10712,0.29973 -0.0593,0.74722 0.16882,1.33251 0.22724,0.58299 0.70481,1.2561 1.47142,1.97551 0.86098,0.69007 2.0515,1.38855 3.59616,2.00321 1.14898,0.45721 2.60286,0.83318 4.35253,1.04501 0.60729,0.0657 1.24349,0.10951 1.90586,0.12744 3.27426,0.0351 6.40786,-0.62102 9.21699,-1.87731 0.35619,-0.1638 0.70292,-0.33476 1.04008,-0.51227 2.34594,-1.26502 4.15211,-2.76936 5.48513,-4.37324 1.49995,-1.87833 2.27262,-3.82944 2.5021,-5.70385 0.022,-0.16294 0.0393,-0.32448 0.0519,-0.48455 0,0 0,0 0,0 0.13643,-1.76552 -0.2821,-3.35511 -1.11421,-4.78897 -0.62559,-1.07799 -1.49876,-1.72515 -2.5817,-2.00317 0,0 0,0 0,0 -0.26037,-0.0669 -0.53313,-0.11269 -0.81858,-0.13853 -1.52714,-0.18414 -3.18849,0.12565 -5.25534,0.71351 -0.66053,0.22421 -1.34863,0.52766 -2.11764,0.90354 0,0 0,0 0,0 -0.0558,0.0275 -0.112,0.0553 -0.16862,0.0834 -0.8422,0.3611 -1.62737,0.57344 -2.31681,0.66118 -0.16585,-0.0326 -0.30458,-0.0705 -0.41583,-0.11189 -0.0646,-0.10061 -0.11278,-0.30935 -0.14643,-0.62792 -0.028,-0.26506 0.0263,-0.48541 0.15689,-0.66145 0.12476,-0.22946 0.30656,-0.35944 0.55095,-0.39492 0.5387,-0.0782 1.06137,-0.094 1.586,-0.045 0.16272,0.0152 0.32684,0.0205 0.49189,0.0159 0.36886,-0.01 0.7428,-0.0693 1.11677,-0.17837 0.44371,-0.12945 0.92742,-0.31236 1.44534,-0.5552 0.54749,-0.30987 0.98163,-0.63041 1.29927,-0.93761 0.6923,-0.7561 1.27308,-1.62612 1.73907,-2.58857 0.12075,-0.25659 0.22983,-0.51664 0.32745,-0.77957 0.29705,-0.79758 0.48647,-1.62483 0.57426,-2.47249 0.11689,-1.12881 0.0121,-2.26798 -0.29102,-3.40881 -0.26496,-1.16911 -0.77337,-2.27223 -1.4903,-3.33426 z M 356.6627,393.6711 c 0.28378,0.15844 0.70767,0.021 1.27054,-0.41437 0.56279,-0.43533 1.15701,-0.99522 1.78123,-1.67998 0.6607,-0.72971 1.31721,-1.50028 1.96936,-2.31171 0.64384,-0.80108 1.20213,-1.49934 1.62676,-2.03152 1.15744,-1.45057 2.10522,-2.60586 2.86724,-3.48475 0.71721,-0.90858 1.25884,-1.51179 1.62911,-1.81025 0.48329,-0.35619 0.74266,-0.55741 0.77837,-0.60295 0.0295,-0.12401 -0.067,-0.34676 -0.28954,-0.66814 -0.69653,-0.83972 -1.65287,-1.95628 -2.86748,-3.34594 -1.21501,-1.39011 -2.43101,-2.77918 -3.64789,-4.16732 -1.21608,-1.38722 -2.28162,-2.58321 -3.19111,-3.5833 -0.91783,-1.07979 -1.44187,-1.70531 -1.5756,-1.88251 -0.26612,-0.35262 -0.4344,-0.48378 -0.50475,-0.3936 -0.11242,0.0574 -0.18311,0.36482 -0.2123,0.92215 -0.0215,0.20143 -0.0261,0.81282 -0.0149,1.83773 -0.031,0.99777 -0.0558,2.27114 -0.078,3.85827 0.0132,1.52704 0.0197,3.25882 0.0155,5.14277 -0.0105,1.81525 -0.005,3.64688 0.0136,5.49782 0.0131,1.77174 0.0527,3.46404 0.11933,5.07228 0.0667,1.60942 0.16836,2.95758 0.3105,4.04532 z m -0.21217,30.12443 c -0.66451,-0.69757 -1.01652,-1.57383 -1.07038,-2.62346 -0.0517,-1.13038 -0.0469,-2.52897 -0.002,-4.18432 0.0701,-1.85647 0.11549,-3.67212 0.14738,-5.41405 0.25458,-11.21078 0.032,-23.31929 -0.0314,-29.80962 -0.12927,-8.9116 -0.19126,-14.01033 0.017,-16.4429 0.0708,-0.52464 0.30306,-1.21352 0.69726,-2.06788 0.39427,-0.85449 0.5708,-1.51661 0.52918,-1.98468 -0.0416,-0.4681 0.0429,-0.62053 0.25368,-0.45713 0.20381,0.0854 0.35479,0.23875 0.45294,0.46022 0.27995,0.9438 0.73574,1.87874 1.36695,2.80482 0.58911,0.89342 1.1221,1.59829 1.59916,2.11435 0.13396,0.1772 0.59538,0.75302 1.38831,1.73365 -0.38469,-0.44162 3.32859,3.82386 2.9439,3.38224 1.13839,1.32465 2.37459,2.75904 3.72854,4.32748 1.344,1.4862 2.64497,2.94038 3.90313,4.36289 1.21609,1.3897 2.34068,2.63609 3.37456,3.73883 1.02847,1.02488 1.75352,1.73909 2.18082,2.14715 0.71456,0.55837 1.33572,0.93274 1.86397,1.12306 0.52208,0.11144 0.97812,0.13401 1.368,0.0678 0.34781,-0.099 0.6325,-0.2473 0.85396,-0.44479 0.22146,-0.19747 0.38592,-0.36531 0.49343,-0.50344 0.1792,-0.23024 0.37309,-0.5229 0.58145,-0.87786 0.16626,-0.3877 0.35015,-0.79833 0.55156,-1.23179 0.20139,-0.43341 0.36506,-0.60104 0.49148,-0.50291 0.16204,0.0521 0.14263,0.29483 -0.0588,0.72834 -0.10138,0.21818 -0.28369,0.6259 -0.55163,1.232 -0.23106,0.55752 -0.5146,1.22714 -0.84868,2.00242 -0.29861,0.73019 -0.61641,1.48426 -0.95348,2.26148 -0.34305,0.69833 -0.65418,1.31146 -0.93262,1.83896 -0.54372,0.69269 -1.32661,0.82456 -2.34623,0.39505 -0.2132,-0.24193 -0.66826,-0.75101 -1.35408,-1.51367 -0.72968,-0.79782 -1.50164,-1.62819 -2.31596,-2.49112 -0.77811,-0.90864 -1.5123,-1.74479 -2.20145,-2.50783 -0.73104,-0.79593 -1.22321,-1.29292 -1.47474,-1.49035 -0.46154,-0.36228 -1.12015,-0.47328 -1.97559,-0.33463 -0.86153,0.0601 -1.75504,0.46239 -2.6825,1.2055 -0.33565,0.25225 -0.8821,0.81482 -1.64479,1.6885 -0.76401,0.87519 -1.64763,1.94057 -2.66481,3.20582 -1.05249,1.30918 -2.08943,2.58933 -3.11539,3.84541 -1.06564,1.22043 -1.90312,2.10873 -2.50072,2.66367 0.0305,5.70582 0.15408,10.79204 0.42166,15.08867 0.0389,0.53952 0.0782,1.06544 0.11821,1.57766 0,0 0,0 0,0 0.29251,3.51638 0.60891,6.47184 0.98225,8.67498 0.1849,0.83201 0.38808,1.52035 0.61503,2.0648 0.30821,0.53371 0.75491,1.15352 1.33981,1.85875 0.15136,0.30917 0.0823,0.50343 -0.20727,0.58177 -1.11214,-0.76246 -2.22263,-1.52704 -3.33135,-2.29385 z"
       id="text1"
       style="font-size:32px;font-family:Zapfino;-inkscape-font-specification:Zapfino;letter-spacing:24px;word-spacing:0px;white-space:pre;fill:#bbc040;fill-opacity:0.188235"
       transform="matrix(0.3626048,0,0,0.29721105,-18.477985,-11.142929)"
       aria-label="DIBA"
       inkscape:path-effect="#path-effect1"
       inkscape:original-d="m 161.91094,344.97952 q 0,-1.76 -0.64,-3.52 -0.56,-1.76 -2.16,-3.2 -1.52,-1.44 -4.16,-2.32 -2.64,-0.88 -6.8,-0.88 -0.88,0 -1.52,0.08 -0.56,0.08 -1.04,0.88 -2,3.12 -4.24,6.88 -2.24,3.76 -4.48,7.68 -2.16,3.92 -4.16,7.68 -2,3.68 -3.44,6.64 -0.32,0.64 -0.32,0.96 0,0.48 0.48,0.96 1.36,1.44 3.68,2.16 2.4,0.72 4.88,0.72 4.88,0 9.2,-1.92 4.32,-1.92 7.6,-5.2 3.28,-3.36 5.2,-7.84 1.92,-4.56 1.92,-9.76 z m -40,24.56 q 1.04,-1.12 1.92,-2.4 0.88,-1.36 1.36,-2.24 0.48,-0.8 1.68,-2.88 1.28,-2.16 2.88,-4.96 1.68,-2.88 3.44,-6.08 1.84,-3.28 3.52,-6.24 1.68,-2.96 2.96,-5.36 1.28,-2.48 1.84,-3.68 0,-0.24 -0.24,-0.32 -0.24,-0.08 -0.4,-0.08 -2.56,0 -5.04,0.48 -2.48,0.48 -5.04,0.56 -1.44,0 -1.44,-1.28 0,-0.16 0.08,-0.64 0.08,-0.48 0.32,-0.48 0.16,0 1.2,0.48 1.12,0.48 2.24,0.48 1.44,0 3.76,-0.08 2.32,-0.16 4,-0.32 2,-0.08 3.92,-0.16 1.92,-0.08 3.92,-0.08 3.12,0 6.16,0.4 3.12,0.4 5.52,1.6 2.48,1.2 4,3.44 1.6,2.16 1.6,5.76 0,3.36 -1.28,6.8 -1.2,3.36 -3.28,6.4 -2.08,2.96 -4.88,5.36 -2.72,2.4 -5.76,3.76 -3.04,1.36 -6.32,1.92 -3.2,0.64 -6.56,0.64 -2.72,0 -5.2,-0.4 -2.48,-0.32 -4.88,-1.6 -0.8,-0.4 -1.36,-0.4 -0.64,0 -1.84,0.56 -1.2,0.56 -2.32,1.44 z m 67.51996,-0.08 q 0.64,-0.08 1.2,-0.48 0.64,-0.4 1.04,-0.88 0.96,-1.2 2.56,-3.52 1.68,-2.32 3.52,-5.2 1.92,-2.88 3.92,-6.08 2,-3.2 3.76,-6.16 1.76,-3.04 3.04,-5.6 1.36,-2.56 1.84,-4.16 0.16,-0.48 0.16,-0.88 0,-0.88 -2.16,-0.88 -0.96,0 -2.16,0.08 -1.2,0.08 -2.24,0.32 l -0.24,-0.08 q 0.16,-0.64 0.48,-0.96 3.36,-0.16 6.56,-0.32 3.28,-0.24 5.6,-0.64 0.4,0.24 0.4,0.64 0,0.16 -0.48,0.32 -0.64,0.16 -1.04,0.72 -0.4,0.56 -0.8,1.28 -1.68,3.12 -3.84,6.96 -2.08,3.84 -4.48,8 -2.4,4.08 -4.96,8.16 -2.48,4.08 -4.8,7.6 -0.64,0.88 -1.44,1.36 -0.8,0.48 -1.52,0.64 -0.88,0.16 -1.92,0.16 -1.04,0.08 -1.84,0 -0.16,-0.08 -0.16,-0.4 z m 68.47998,-35.36 q 3.6,0 6.32,0.24 2.8,0.16 4.56,0.88 1.84,0.72 2.72,2 0.96,1.28 0.96,3.44 0,1.12 -0.56,2.64 -0.56,1.52 -1.92,3.04 -1.28,1.44 -3.44,2.8 -2.16,1.28 -5.28,2 -0.16,0 -0.16,0.24 0,0.16 0.16,0.16 1.12,0.24 2.48,0.56 1.36,0.24 2.56,0.96 1.2,0.64 2,1.76 0.88,1.04 0.88,2.88 0,2.24 -1.2,4.56 -1.2,2.24 -3.44,4.08 -2.16,1.84 -5.36,3.04 -3.12,1.12 -7.12,1.12 -2.32,0 -4.96,-0.48 -2.64,-0.4 -4.88,-1.52 -0.56,-0.32 -1.04,-0.48 -0.48,-0.24 -0.8,-0.24 -0.64,0 -2,0.64 -1.36,0.64 -2.48,1.52 l -0.48,-0.4 q 1.04,-1.12 1.36,-1.6 0.4,-0.56 0.64,-0.96 1.28,-2.16 2.64,-4.48 1.36,-2.4 2.56,-4.64 1.28,-2.32 2.4,-4.4 1.2,-2.16 2.16,-3.84 0.72,-1.44 1.68,-3.2 1.04,-1.84 2,-3.76 1.04,-1.92 1.92,-3.76 0.96,-1.92 1.68,-3.44 0.08,-0.16 0.08,-0.4 0,-0.24 -0.48,-0.24 -1.12,0 -2.48,0.16 -1.36,0.16 -2.64,0.4 -1.28,0.16 -2.4,0.32 -1.12,0.16 -1.76,0.16 -1.28,0 -1.28,-0.8 0,-0.88 0.48,-1.36 0.16,0 0.24,0.24 0.16,0.24 0.64,0.32 0.56,0.08 2.56,0.08 2.56,0 4.8,-0.08 2.32,-0.16 5.68,-0.16 z m 10.72,5.84 q 0,-1.52 -0.64,-2.48 -0.64,-1.04 -1.68,-1.6 -1.04,-0.56 -2.32,-0.72 -1.28,-0.24 -2.56,-0.24 -0.88,0 -1.68,0.24 -0.72,0.16 -1.28,0.88 -0.88,1.12 -1.84,2.72 -0.88,1.52 -1.68,2.88 -2.64,4.72 -5.68,10.56 -3.04,5.84 -6.08,11.84 -0.4,0.8 -0.48,1.44 0,0.48 0.4,1.2 0.4,0.72 1.28,1.44 0.96,0.64 2.4,1.12 1.44,0.48 3.6,0.48 2.72,-0.08 5.36,-1.04 2.72,-1.04 4.88,-2.72 2.16,-1.76 3.44,-4.08 1.36,-2.4 1.36,-5.12 0,-2.32 -1.76,-3.52 -1.76,-1.28 -4.96,-1.44 -1.12,0 -2.48,0.32 -1.36,0.24 -2.4,0.24 -0.24,-0.08 -0.4,-0.16 -0.08,-0.16 -0.08,-0.64 0,-0.4 0.24,-0.64 0.24,-0.32 0.64,-0.32 0.88,0 1.68,0.24 0.8,0.24 1.68,0.24 0.72,0 1.6,-0.08 0.96,-0.16 1.6,-0.4 1.44,-0.64 2.8,-1.6 1.44,-1.04 2.56,-2.4 1.12,-1.36 1.76,-3.04 0.72,-1.68 0.72,-3.6 z m 44.15996,12.64 q 0.08,0.48 1.04,0.72 0.96,0.24 2.24,0.32 1.36,0.08 2.8,0.08 1.44,0 2.4,0 2.56,0 4.16,0.08 1.6,0 2.24,0.16 0.8,0.24 0.88,0.24 0.16,-0.08 0.32,-0.64 0.32,-1.6 0.8,-4.32 0.48,-2.72 0.96,-5.44 0.48,-2.72 0.8,-4.72 0.4,-2.08 0.48,-2.4 0.16,-0.64 0,-0.64 -0.16,-0.08 -0.8,0.4 -0.24,0.16 -1.36,1.12 -1.12,0.88 -2.88,2.32 -1.68,1.44 -3.76,3.2 -2,1.68 -4,3.44 -1.92,1.68 -3.6,3.28 -1.68,1.6 -2.72,2.8 z m -20.64,19.52 q 0.08,-1.44 1.04,-2.56 1.04,-1.2 2.72,-2.8 15.36,-14.32 24.8,-22.56 9.44,-8.32 12.08,-10.16 0.64,-0.4 1.92,-0.72 1.28,-0.32 1.76,-0.8 0.48,-0.48 0.48,-0.08 0.08,0.32 -0.08,0.64 -0.8,1.2 -1.28,2.8 -0.48,1.52 -0.64,2.56 -0.08,0.32 -0.48,2.16 -0.32,1.76 -0.8,4.4 -0.48,2.56 -1.04,5.6 -0.48,2.96 -0.96,5.76 -0.48,2.72 -0.8,4.96 -0.24,2.16 -0.32,3.04 0,1.36 0.24,2.16 0.32,0.72 0.72,1.12 0.4,0.32 0.8,0.4 0.4,0.08 0.64,0.08 0.4,0 0.96,-0.08 0.56,-0.16 1.2,-0.32 0.64,-0.16 0.64,0.08 0.08,0.24 -0.56,0.4 -0.32,0.08 -1.2,0.32 -0.8,0.24 -1.92,0.56 -1.04,0.32 -2.16,0.64 -1.04,0.24 -1.84,0.4 -1.2,0 -1.6,-1.6 0.08,-0.48 0.32,-2 0.24,-1.6 0.48,-3.36 0.32,-1.76 0.56,-3.28 0.24,-1.6 0.24,-2.08 0,-0.88 -0.88,-1.76 -0.8,-0.96 -2.4,-1.36 -0.56,-0.16 -2.16,-0.24 -1.6,-0.08 -3.84,-0.08 -2.32,0 -4.56,0 -2.24,-0.08 -3.36,-0.24 -6.08,5.52 -10.24,10.08 -4.08,4.56 -6.16,7.6 -0.64,1.04 -0.96,1.84 -0.24,0.88 -0.4,2.24 -0.16,0.48 -0.48,0.24 z" />
  </g>
</svg>
