<?xml version="1.0" encoding="UTF-8" standalone="no"?>
<!-- Created with Inkscape (http://www.inkscape.org/) -->

<svg
   width="210mm"
   height="297mm"
   viewBox="0 0 210 297"
   version="1.1"
   id="svg1"
   inkscape:version="1.3 (0e150ed, 2023-07-21)"
   sodipodi:docname="jibauni.svg"
   xmlns:inkscape="http://www.inkscape.org/namespaces/inkscape"
   xmlns:sodipodi="http://sodipodi.sourceforge.net/DTD/sodipodi-0.dtd"
   xmlns="http://www.w3.org/2000/svg"
   xmlns:svg="http://www.w3.org/2000/svg">
  <sodipodi:namedview
     id="namedview1"
     pagecolor="#ffffff"
     bordercolor="#000000"
     borderopacity="0.25"
     inkscape:showpageshadow="2"
     inkscape:pageopacity="0.0"
     inkscape:pagecheckerboard="0"
     inkscape:deskcolor="#d1d1d1"
     inkscape:document-units="mm"
     showgrid="false"
     inkscape:zoom="0.76257015"
     inkscape:cx="396.68482"
     inkscape:cy="561.25984"
     inkscape:window-width="1328"
     inkscape:window-height="1027"
     inkscape:window-x="594"
     inkscape:window-y="25"
     inkscape:window-maximized="0"
     inkscape:current-layer="layer1" />
  <defs
     id="defs1">
    <inkscape:path-effect
       effect="bend_path"
       id="path-effect1"
       is_visible="true"
       lpeversion="1"
       bendpath="m 113.16758,163.07304 c 175.89717,26.86198 362.90993,114.26006 434.16367,272.7618"
       prop_scale="1"
       scale_y_rel="false"
       vertical="false"
       hide_knot="false"
       bendpath-nodetypes="cc" />
    <rect
       x="123.26735"
       y="157.36257"
       width="569.12797"
       height="573.06204"
       id="rect1" />
  </defs>
  <g
     inkscape:label="Layer 1"
     inkscape:groupmode="layer"
     id="layer1">
    <path
       d="m 183.66747,157.3527 c 0.27014,0.11923 0.38031,0.28271 0.33074,0.49019 -0.0496,0.20751 -0.21549,0.27748 -0.4977,0.21019 -0.41097,-0.15281 -0.79304,-0.27096 -1.14597,-0.35456 -0.0494,-0.0117 -0.69183,-0.16352 -0.74127,-0.17522 -0.5648,-0.13324 -1.03615,-0.18901 -1.4135,-0.16779 -0.36525,-0.0307 -0.76086,0.0686 -1.18632,0.2982 -1.80835,1.05746 -3.82561,2.56435 -6.03981,4.5236 -2.20255,1.90735 -4.35116,3.8056 -6.44635,5.693 -2.08387,1.83543 -4.14403,3.6265 -6.18156,5.37298 -2.02634,1.69427 -4.07057,3.3626 -6.13231,5.00538 -1.38226,1.13047 -3.02011,2.31764 -4.91204,3.56873 -1.81249,1.21235 -3.49553,2.18286 -5.05515,2.90986 -1.71648,0.80486 -3.52455,1.56893 -5.42414,2.29428 -1.90948,0.77773 -3.95803,1.39901 -6.14725,1.86719 -2.12144,0.48058 -4.37865,0.78123 -6.77525,0.90559 -2.39691,0.12439 -5.01539,-0.0504 -7.8653,-0.51769 -3.05362,-0.50069 -5.61238,-1.25368 -7.68524,-2.27433 -0.32405,-0.15778 -0.54213,-0.32603 -0.65415,-0.50503 -0.18817,-0.13669 -0.22016,-0.38433 -0.0957,-0.74299 0.0563,-0.36895 0.17085,-0.89119 0.34378,-1.56604 0.0966,-0.63263 0.23543,-1.31287 0.41671,-2.04046 0.24768,-0.0161 0.4954,-0.032 0.74315,-0.0479 0.0631,1.41293 0.7733,2.70866 2.12305,3.89261 1.27453,1.22707 3.53773,2.09737 6.79743,2.63958 2.85196,0.47438 5.52951,0.5299 8.04446,0.16144 2.57388,-0.30399 5.36912,-1.234 8.40726,-2.78343 2.72642,-1.39045 5.54548,-3.18641 8.46886,-5.38552 3.00278,-2.23843 6.15698,-4.75956 9.47719,-7.56138 0.61556,-0.52603 4.14495,-3.54846 4.76051,-4.07449 1.69647,-1.4955 3.36627,-2.99314 5.00886,-4.49357 1.64425,-1.50195 3.20434,-2.93141 4.68812,-4.29902 1.49519,-1.41966 2.77018,-2.66139 3.82962,-3.73737 0.094,-0.0882 0.16447,-0.23639 0.21122,-0.44455 0.0467,-0.20811 -0.1421,-0.35998 -0.56676,-0.45501 -1.48606,-0.33254 -3.09698,-0.60673 -4.83101,-0.82023 -1.72281,-0.26564 -3.46305,-0.44757 -5.21928,-0.5455 -1.75618,-0.0979 -3.45203,-0.12301 -5.08632,-0.0764 -1.63419,0.0466 -3.10105,0.18665 -4.39912,0.41729 -1.2983,0.23068 -2.54062,0.74714 -3.72468,1.5486 -1.11343,0.81533 -1.78416,1.82686 -2.01706,3.03119 -0.081,0.41892 -0.0815,0.79912 -0.002,1.14053 0.1103,0.18439 0.0246,0.2492 -0.25662,0.19481 -0.32129,-0.22512 -0.64755,-0.61391 -0.97967,-1.16644 -0.26162,-0.53888 -0.29783,-1.3062 -0.1075,-2.30147 0.16021,-0.8378 0.90567,-1.67384 2.24165,-2.50187 1.34507,-0.87971 3.58383,-1.3978 6.71183,-1.52978 1.11711,-0.0471 2.40792,-0.0302 3.87036,0.0533 1.46095,0.0834 3.31264,0.27754 5.54328,0.58923 2.24059,0.25942 4.93974,0.67937 8.07678,1.27086 3.2022,0.60623 7.05294,1.43057 11.49378,2.48935 z m 7.26904,38.25046 c 0.55117,0.0882 1.09555,0.0651 1.63375,-0.0695 0.60543,-0.11695 1.11715,-0.28541 1.53521,-0.506 1.01409,-0.56179 2.38664,-1.40728 4.14024,-2.53987 1.81905,-1.11311 3.76012,-2.38136 5.82978,-3.80371 2.13742,-1.40364 4.3466,-2.8916 6.63206,-4.46352 2.2861,-1.57237 4.4575,-3.08495 6.5166,-4.54468 2.07394,-1.51101 3.90485,-2.91785 5.49266,-4.23013 1.65685,-1.2919 2.84735,-2.38179 3.56879,-3.28089 0.23008,-0.26532 0.38335,-0.52566 0.4596,-0.78119 0.16749,-0.56128 -0.6853,-1.12467 -2.56368,-1.67766 -0.83439,-0.24565 -1.78164,-0.49525 -2.84054,-0.74725 -1.05906,-0.25203 -2.06385,-0.43047 -3.01343,-0.53593 -0.0972,-0.0556 -0.19432,-0.11108 -0.29151,-0.1666 0.25662,-0.37038 0.55381,-0.61818 0.8916,-0.74325 2.95822,0.7373 5.84442,1.47196 8.65667,2.20107 2.90007,0.69953 5.3875,1.2377 7.48201,1.60602 0.29981,0.26021 0.40999,0.51779 0.33103,0.77246 -0.0316,0.10188 -0.27119,0.13917 -0.7187,0.11248 -0.58619,-0.0696 -1.10763,0.0211 -1.56378,0.27148 -0.45617,0.2504 -0.92758,0.55217 -1.41402,0.90538 -2.06951,1.55046 -4.38345,3.25712 -6.97983,5.16159 -2.52109,1.92024 -5.19075,3.91018 -8.01125,5.98051 -2.80433,2.01817 -5.65791,4.03101 -8.55923,6.04065 -2.83447,2.02924 -5.52882,3.911 -8.09401,5.64511 -0.69144,0.41966 -1.41394,0.69331 -2.16811,0.82125 -0.75421,0.12795 -1.44649,0.16308 -2.07772,0.10491 -0.7654,-0.094 -1.584,-0.25626 -2.45661,-0.48629 -0.88626,-0.17847 -1.65827,-0.38036 -2.31671,-0.60688 -0.12092,-0.0866 -0.15456,-0.23308 -0.10087,-0.43955 z m 97.64604,-5.48944 c 3.04927,1.19701 5.69406,2.34494 7.92638,3.42492 2.32106,1.05857 4.12898,2.12469 5.42149,3.18312 1.36033,1.08697 2.2404,2.18205 2.64335,3.27908 0.46995,1.12566 0.42046,2.35081 -0.14281,3.67634 -0.29213,0.68748 -0.86883,1.39811 -1.72799,2.1349 -0.85923,0.73684 -2.04722,1.33409 -3.56216,1.79791 -1.42862,0.44244 -3.20535,0.71182 -5.33203,0.81744 -2.10659,0.0563 -4.53233,-0.21303 -7.28691,-0.79719 -0.13211,-0.0528 -0.22785,-0.005 -0.28721,0.14374 -0.0396,0.0991 0.007,0.17499 0.13869,0.22777 0.86418,0.51774 1.81782,1.10257 2.85629,1.75354 1.0591,0.6019 1.99024,1.32797 2.79192,2.17648 0.82201,0.79922 1.41624,1.68037 1.78311,2.64145 0.45269,0.93898 0.44071,1.97477 -0.0319,3.10694 -0.57537,1.3783 -1.64847,2.57709 -3.21089,3.60387 -1.54199,0.97752 -3.44733,1.6622 -5.7146,2.0642 -2.20327,0.42831 -4.7372,0.49905 -7.60966,0.22442 -2.78877,-0.29881 -5.79095,-1.06712 -9.02674,-2.29667 -1.87679,-0.71316 -3.82887,-1.61701 -5.86284,-2.71021 -2.05235,-1.0431 -3.8655,-2.24211 -5.44287,-3.60329 -0.38528,-0.36536 -0.75654,-0.66849 -1.11329,-0.90939 -0.3388,-0.29112 -0.6395,-0.48328 -0.90149,-0.57656 -0.52366,-0.18644 -1.41508,-0.27675 -2.67053,-0.26642 -1.25574,0.0103 -2.43877,0.13406 -3.54814,0.37 -0.1528,-0.19421 -0.30575,-0.38838 -0.45883,-0.5825 1.09742,-0.41098 1.82915,-0.71914 2.19796,-0.93022 0.45127,-0.23811 0.81946,-0.44822 1.10476,-0.631 1.52511,-0.99007 3.11175,-2.01825 4.7496,-3.07609 1.6579,-1.10953 3.23745,-2.18642 4.73873,-3.23332 1.58726,-1.07424 3.08132,-2.08852 4.49148,-3.05196 1.49189,-0.98708 2.83799,-1.85866 4.02742,-2.61192 0.93422,-0.67781 2.00925,-1.41804 3.22402,-2.21683 1.30097,-0.82405 2.58159,-1.68235 3.84163,-2.57523 1.32746,-0.86754 2.58192,-1.73195 3.76282,-2.59476 1.26867,-0.88768 2.38838,-1.68374 3.36432,-2.39543 0.10617,-0.0734 0.18804,-0.18482 0.24558,-0.33416 0.0575,-0.1493 -0.11729,-0.30256 -0.52475,-0.45914 -0.95056,-0.36527 -2.02318,-0.71803 -3.21687,-1.05633 -1.19379,-0.33833 -2.36358,-0.63571 -3.50877,-0.8925 -1.12622,-0.30669 -2.18574,-0.58546 -3.17636,-0.83674 -0.99143,-0.25148 -1.7588,-0.47527 -2.30492,-0.67447 -1.09099,-0.39794 -1.54683,-0.84561 -1.36503,-1.3475 0.19985,-0.55172 0.55941,-0.90388 1.07928,-1.05565 0.13687,0.0497 0.21218,0.16222 0.22588,0.33749 0.0821,0.20014 0.31913,0.39985 0.71092,0.5996 0.46408,0.22662 1.54046,0.64692 3.25038,1.27999 2.1845,0.80876 4.23545,1.5513 6.16047,2.22637 2.00718,0.64949 4.44727,1.52953 7.29113,2.64591 z m 11.33246,10.88249 c 0.38944,-0.93574 0.44009,-1.81025 0.14926,-2.62406 -0.27033,-0.86291 -0.77136,-1.64759 -1.50351,-2.35233 -0.73211,-0.70471 -1.61785,-1.32638 -2.65638,-1.86309 -1.01848,-0.58614 -2.06875,-1.09576 -3.14973,-1.52843 -0.74316,-0.29746 -1.48272,-0.50585 -2.21788,-0.62522 -0.64788,-0.14216 -1.29693,-0.083 -1.94598,0.17746 -1.01707,0.40213 -2.12491,0.94209 -3.32141,1.62081 -1.11126,0.65622 -2.16225,1.27564 -3.1628,1.86293 -3.3511,2.07854 -6.98447,4.46541 -10.87562,7.16621 -3.89259,2.70181 -7.76821,5.48267 -11.62607,8.34213 -0.50996,0.38281 -0.86981,0.76354 -1.08016,1.14129 -0.1086,0.30116 -0.0802,0.73654 0.084,1.30649 0.16426,0.56999 0.52417,1.21066 1.07823,1.9234 0.63768,0.68646 1.4872,1.3945 2.548,2.12718 1.06105,0.73285 2.46642,1.42517 4.21812,2.08463 2.22427,0.78037 4.51543,1.28491 6.88193,1.51595 2.45042,0.2064 4.75364,0.13953 6.91523,-0.2054 2.18111,-0.39445 4.08189,-1.09363 5.7023,-2.10557 1.70507,-1.03483 2.906,-2.38714 3.59265,-4.06602 0.58548,-1.43153 0.31125,-2.81303 -0.83493,-4.14101 -1.12513,-1.3762 -2.99132,-2.64591 -5.59664,-3.78764 -0.92555,-0.36487 -1.99043,-0.66773 -3.19323,-0.90651 -1.1837,-0.28855 -2.20583,-0.59694 -3.0679,-0.92774 -0.1798,-0.12614 -0.32649,-0.23946 -0.44009,-0.34009 -0.0282,-0.12502 0.0149,-0.33704 0.12931,-0.63597 0.0953,-0.24911 0.27122,-0.41031 0.52783,-0.48337 0.27568,-0.12287 0.57981,-0.1205 0.91204,0.007 0.73087,0.28108 1.39933,0.62527 2.00483,1.03198 0.6055,0.40672 1.27228,0.75252 2.0009,1.03799 0.59623,0.2336 1.26786,0.46901 2.01539,0.70711 0.83335,0.21465 1.54362,0.35366 2.13204,0.41596 1.34832,0.0782 2.70401,0.0483 4.06855,-0.0898 1.45068,-0.16073 2.81146,-0.46922 4.08316,-0.92732 1.27168,-0.4581 2.38811,-1.09304 3.34852,-1.90748 1.02675,-0.78683 1.78809,-1.76977 2.28,-2.95172 z m 48.32501,36.61884 c -0.0862,0.31614 0.2101,0.74288 0.88703,1.28214 0.67707,0.53937 1.50253,1.09881 2.47673,1.681 1.03656,0.61558 2.11484,1.22729 3.23519,1.83609 1.11125,0.60386 2.06108,1.12451 2.79678,1.52934 1.98196,1.09058 3.58466,2.01727 4.78938,2.75569 1.23382,0.69381 2.07156,1.23161 2.51032,1.60369 0.53639,0.48923 0.83448,0.75203 0.89594,0.78715 0.14938,0.024 0.37815,-0.0909 0.68662,-0.3445 0.77774,-0.78667 1.79815,-1.85567 3.07495,-3.21614 1.27503,-1.35858 2.55326,-2.71485 3.83468,-4.06878 1.05721,-1.11703 1.9896,-2.11257 2.80178,-2.99413 0,0 0,0 0,0 0.17301,-0.18777 0.34039,-0.37019 0.50219,-0.54731 1.00808,-1.01538 1.60396,-1.60076 1.77212,-1.74667 0.34065,-0.29559 0.44805,-0.47993 0.32178,-0.55325 -0.0827,-0.0993 -0.36101,-0.16308 -0.83475,-0.1906 0,0 0,0 0,0 -0.0963,-0.006 -0.20063,-0.01 -0.31305,-0.0123 -0.24003,-0.0171 -0.96932,-0.005 -2.1692,0.0418 -1.1701,7.8e-4 -2.70184,0.0219 -4.55698,0.071 -1.78753,0.0845 -3.81257,0.18254 -6.01068,0.29737 -2.11948,0.10377 -4.24683,0.24264 -6.38155,0.41675 -2.04586,0.16149 -3.98077,0.36189 -5.80325,0.59744 -1.82149,0.23543 -3.32853,0.49646 -4.51603,0.77417 z m -32.90687,5.39274 c 0.47204,-0.83852 1.24149,-1.41922 2.31101,-1.73809 1.15345,-0.33701 2.61972,-0.67395 4.39438,-1.00222 16.07361,-2.80519 29.51937,-4.30089 39.5236,-5.02669 7.82731,-0.60262 13.68074,-0.80805 17.00096,-0.79914 0.94951,0.002 1.72217,0.0221 2.31265,0.0568 0.64035,0.065 1.52203,0.30188 2.64148,0.71403 1.12007,0.41237 1.95007,0.59592 2.49322,0.54635 0.54297,-0.0496 0.74597,0.041 0.60928,0.2698 -0.0463,0.22086 -0.18734,0.38518 -0.42286,0.49319 -1.04095,0.3111 -2.02188,0.81456 -2.94329,1.50887 -0.89392,0.64821 -1.57957,1.2353 -2.05746,1.7581 -0.16786,0.14385 -0.72895,0.65853 -1.66105,1.52856 -0.83544,0.8533 -1.9119,1.95517 -3.16498,3.24424 -1.23527,1.25254 -2.58275,2.63042 -4.03424,4.12829 -1.36415,1.48884 -2.6978,2.93409 -4.00133,4.33563 -0.50918,0.54055 -0.99545,1.0652 -1.45877,1.57363 -0.69835,0.76631 -1.34506,1.49632 -1.94004,2.18906 -0.90087,1.13916 -1.53159,1.95149 -1.88353,2.42245 -0.45336,0.78503 -0.72322,1.46088 -0.81019,2.02658 -2.3e-4,0.41399 0.0457,0.78609 0.1377,1.11637 0.0312,0.112 0.0677,0.21919 0.10947,0.32159 0.19185,0.35827 0.42337,0.64743 0.69492,0.86769 0.27159,0.22029 0.49658,0.38284 0.67549,0.48761 0.29816,0.17461 0.66909,0.36128 1.11304,0.56067 0.47087,0.15335 0.9716,0.32494 1.50177,0.51492 0.53031,0.19004 0.75432,0.35455 0.6727,0.49207 -0.0223,0.17306 -0.29827,0.1638 -0.82797,-0.026 -0.26105,-0.0936 -0.76881,-0.26844 -1.50052,-0.51455 -0.67994,-0.21358 -1.48088,-0.46926 -2.42636,-0.77252 -0.31681,-0.096 -0.63747,-0.19396 -0.96203,-0.29383 -0.5793,-0.17808 -1.17087,-0.36225 -1.77492,-0.55242 -0.85704,-0.30886 -1.6093,-0.58622 -2.26122,-0.8352 -0.89713,-0.51179 -1.23385,-1.3148 -1.00954,-2.41345 0.22193,-0.24938 0.66164,-0.75187 1.34614,-1.53592 0.70651,-0.82556 1.44023,-1.69686 2.20133,-2.61383 0.8219,-0.88273 1.57483,-1.71156 2.25912,-2.48819 0.71084,-0.82316 1.14544,-1.3722 1.30417,-1.65063 0.29054,-0.50962 0.2451,-1.21124 -0.14045,-2.10457 -0.29786,-0.90487 -0.99746,-1.82201 -2.10103,-2.74618 -0.37864,-0.33412 -1.17506,-0.87248 -2.38572,-1.60431 -1.21011,-0.73151 -2.68862,-1.57591 -4.42788,-2.52065 -1.80297,-0.97934 -3.58049,-1.93299 -5.33058,-2.86121 -1.72894,-0.97748 -3.00184,-1.73236 -3.83489,-2.28724 -6.45982,0.77499 -11.99998,1.76818 -16.58295,2.88677 -4.52205,1.14973 -8.03593,2.28676 -10.5161,3.33931 -0.79584,0.38788 -1.43209,0.7646 -1.90901,1.12815 -0.43801,0.44134 -0.91309,1.04209 -1.42542,1.80249 -0.26083,0.23043 -0.48033,0.21484 -0.65916,-0.0467 0.38492,-1.29272 0.76861,-2.58591 1.15106,-3.87958 z m 157.52372,59.95085 c -0.3067,-0.21261 -0.67701,-0.41098 -1.11065,-0.59449 -0.37949,-0.13338 -0.79518,-0.22705 -1.24681,-0.28075 -2.07749,-0.0295 -4.22173,0.0348 -6.43055,0.19483 -2.20876,0.16004 -4.40136,0.3809 -6.57727,0.6612 -2.12182,0.32812 -4.20978,0.69474 -6.26358,1.09802 -2.05343,0.40321 -3.95862,0.87343 -5.71495,1.40362 -0.82569,0.20429 -1.79262,0.46637 -2.89527,0.78744 -1.04981,0.36678 -2.11487,0.75696 -3.19498,1.17072 -1.02674,0.45876 -1.99824,0.96529 -2.91503,1.51815 -0.9167,0.5528 -1.64805,1.15775 -2.1956,1.81151 -0.7188,0.85824 -1.03658,1.77361 -0.95857,2.74474 0.1124,0.93085 0.76783,1.9007 1.96261,2.92127 0.72729,0.62126 1.52169,1.16373 2.38477,1.62882 0.86312,0.46512 1.69075,0.86848 2.48417,1.20946 0.84546,0.38634 1.54216,0.68212 2.09471,0.88621 0.63857,0.20939 0.98344,0.33816 1.0347,0.38376 0.2563,0.228 0.33885,0.44463 0.24807,0.64932 -0.0908,0.20477 -0.29953,0.23263 -0.62606,0.0846 -1.94386,-0.80306 -3.87033,-1.71495 -5.78404,-2.73632 -1.89705,-0.93644 -3.67543,-2.10355 -5.34551,-3.50672 -3.43722,-2.8879 -4.34796,-5.35047 -2.62433,-7.46455 0.53897,-0.66106 1.25511,-1.21265 2.15038,-1.65148 0.94892,-0.39503 1.84891,-0.72573 2.6994,-0.99258 0.93768,-0.26368 1.73976,-0.46641 2.40237,-0.60943 0.69733,-0.18425 1.0801,-0.31595 1.14841,-0.3982 0.0681,-0.082 0.0752,-0.14541 0.0213,-0.19017 -0.0199,-0.0858 -0.0908,-0.11002 -0.21284,-0.0727 -3.60091,0.0614 -6.95729,-0.16212 -10.08593,-0.68333 -3.12924,-0.5213 -5.9705,-1.1912 -8.5387,-2.02744 -2.56812,-0.83621 -4.83727,-1.75327 -6.81728,-2.76784 -1.98028,-1.01471 -3.6045,-1.97829 -4.87764,-2.90752 -1.05089,-0.76703 -2.02641,-1.6377 -2.92909,-2.61396 -0.9338,-0.9329 -1.69533,-1.93289 -2.28544,-3.0034 -0.53392,-1.03072 -0.83989,-2.09265 -0.9164,-3.18785 -0.0199,-1.05538 0.30324,-2.06571 0.9743,-3.02877 0.91441,-1.31227 2.50791,-2.38463 4.79122,-3.19217 1.71941,-0.6163 3.69701,-1.21404 5.93001,-1.7816 2.26495,-0.61121 4.58413,-1.20918 6.95667,-1.79113 2.37291,-0.58205 4.71056,-1.14727 7.01242,-1.69734 2.30349,-0.55045 4.38601,-1.08519 6.25332,-1.61532 0.49058,-0.16438 0.80033,-0.33107 0.92901,-0.50136 0.28914,-0.38261 -0.004,-0.90699 -0.88462,-1.56842 -0.40981,-0.30785 -1.0149,-0.72816 -1.81082,-1.2543 -0.70517,-0.52499 -1.47358,-1.09426 -2.29969,-1.7022 -0.41298,-0.30391 -0.79863,-0.58676 -1.15322,-0.8462 -0.32368,-0.30292 -0.63396,-0.5623 -0.93046,-0.77818 -0.47434,-0.34535 -0.6478,-0.6685 -0.51937,-0.97088 0.18775,-0.25909 0.51972,-0.2165 0.99518,0.12953 0.59097,0.4301 1.51608,1.17094 2.75038,2.21443 1.32849,1.04706 2.72561,2.12185 4.19297,3.22862 1.41091,1.06419 2.5901,1.93149 3.55836,2.60765 0.99549,0.63035 1.80562,1.15603 2.41683,1.56371 0.70417,0.41216 1.30515,0.78017 1.80126,1.1013 0.49645,0.32135 0.94707,0.64197 1.35174,0.96131 0.28912,0.22814 0.36726,0.42612 0.23505,0.59342 -0.0992,0.12551 -0.35491,0.093 -0.76737,-0.0965 -0.5279,-0.28056 -1.1016,-0.56193 -1.72084,-0.84344 -0.58644,-0.32355 -1.25929,-0.47606 -2.01689,-0.45674 -1.97566,0.15363 -4.07323,0.42364 -6.2887,0.81374 -2.18327,0.34769 -4.40749,0.77358 -6.67119,1.27871 -2.17415,0.50547 -4.37217,1.06752 -6.59316,1.68669 -2.18888,0.57603 -4.25331,1.18645 -6.19237,1.82542 -2.80202,0.87102 -4.78362,2.14947 -5.96119,3.79763 -0.99262,1.38929 -1.21732,2.89917 -0.69089,4.52705 0.52669,1.62868 1.89827,3.24646 4.10825,4.88126 2.32057,1.7166 4.85075,3.0895 7.60957,4.13193 2.7586,1.04235 5.5828,1.79713 8.48585,2.26725 2.95708,0.51323 5.84574,0.7619 8.67314,0.73888 2.91564,-0.0198 5.64136,-0.20821 8.17877,-0.57898 1.48019,-0.2163 3.11043,-0.54517 4.89517,-0.98317 1.83879,-0.39152 3.65616,-0.79578 5.45165,-1.21387 1.8006,-0.41928 3.48451,-0.81211 5.08041,-1.18897 1.5894,-0.37532 2.90195,-0.64015 3.92491,-0.79922 0.7732,-0.0973 1.47652,-0.11302 2.10916,-0.0478 0.72289,0.0746 1.53052,0.33332 2.42066,0.77833 0.19903,0.10829 0.58282,0.34671 1.14529,0.71394 0.59919,0.32835 1.18005,0.67797 1.74234,1.04866 0.65256,0.38119 1.23271,0.73432 1.7394,1.05757 0.56081,0.37331 0.92315,0.63729 1.08536,0.78809 0.27103,0.25197 0.34247,0.50091 0.21478,0.74619 -0.12775,0.2454 -0.32672,0.24178 -0.59703,-0.01 z m -4.99941,46.14621 c -0.0536,-0.13559 -0.0561,-0.4116 -0.008,-0.82883 0.0942,-0.36762 0.16469,-0.7603 0.21119,-1.17805 0.0854,-0.45434 0.19326,-0.88424 0.32408,-1.28967 0.17771,-0.35583 0.34373,-0.60712 0.4988,-0.75382 0.3874,-0.3665 0.97436,-0.6393 1.76169,-0.81489 0.8346,-0.12558 1.63153,-0.2121 2.39037,-0.25998 1.35958,-0.15734 3.40631,-0.36768 6.00184,-0.58863 2.631,-0.20182 6.51576,-0.47388 11.22692,-0.70055 2.60848,-0.11434 5.19904,-0.27432 7.7709,-0.48292 2.57786,-0.20909 4.53884,-0.4439 5.90819,-0.73671 0.59713,-0.12193 1.03821,-0.30288 1.32299,-0.5448 0.44734,-0.38 0.60555,-0.85352 0.47228,-1.42113 -0.0852,-0.51111 -0.39313,-1.07688 -0.92487,-1.69458 -0.57982,-0.67354 -1.25532,-1.41288 -2.02627,-2.21411 -0.73066,-0.83619 -1.38835,-1.54146 -1.9681,-2.11514 -0.19643,-0.22162 -0.2887,-0.48613 -0.27697,-0.79404 0.10085,-0.28803 0.25072,-0.52088 0.44999,-0.6983 0.15939,-0.14193 0.31324,-0.12977 0.46138,0.0368 0.37427,0.66185 0.86462,1.41672 1.47017,2.26853 0.69446,0.87216 1.38074,1.70144 2.06014,2.48804 0.922,1.06748 1.89909,2.08751 2.93291,3.06209 1.03454,0.97526 1.91497,1.73874 2.65074,2.28972 0.33307,0.40077 0.33761,0.78338 0.015,1.14674 -0.23399,0.38635 -0.60963,0.93803 -1.12679,1.65229 -0.43108,0.74096 -0.7989,1.37429 -1.11417,1.92088 -0.86409,1.47302 -1.77846,3.21372 -2.7585,5.22639 -0.93737,1.97642 -1.92652,4.02475 -2.96814,6.13829 -0.9973,2.16992 -2.01074,4.28443 -3.03778,6.34403 -0.98285,2.11318 -1.92232,3.99464 -2.80445,5.64037 -0.25256,0.37084 -0.44222,0.69233 -0.56881,0.96466 -0.1266,0.27235 -0.0846,0.54463 0.12569,0.81752 0.12619,0.16376 0.3579,0.24623 0.69556,0.24794 0.422,0.024 0.82315,0.0213 1.20351,-0.008 2.9578,-0.25924 5.99208,-0.49163 9.10001,-0.69191 3.15074,-0.14368 6.29167,-0.23416 9.42181,-0.27158 3.13019,-0.0374 6.20595,0.009 9.22525,0.1385 3.06128,0.18927 5.97932,0.47828 8.74941,0.85921 0.69295,0.0723 1.45074,0.19352 2.27252,0.36529 0.86381,0.23419 1.70455,0.53292 2.52152,0.89625 0.85869,0.42622 1.65025,0.90082 2.37383,1.42254 0.76503,0.58508 1.41561,1.29324 1.94922,2.12216 0.28725,0.44622 0.4786,1.09018 0.57065,1.92954 0.17768,0.87465 0.1446,1.52186 -0.0951,1.9412 -0.0902,0.057 -0.19561,-0.0104 -0.3166,-0.20181 -0.48404,-0.76568 -1.0383,-1.48679 -1.66188,-2.16189 -0.62351,-0.67502 -1.40215,-1.33893 -2.33499,-1.98738 -0.89162,-0.58541 -1.98232,-1.12715 -3.2697,-1.61903 -1.24549,-0.42939 -2.73233,-0.82682 -4.45502,-1.18269 -4.91328,-0.97361 -10.20918,-1.47479 -15.86462,-1.48181 -5.65349,-0.007 -11.15039,0.32988 -16.48141,0.97499 -1.56646,0.22908 -3.17095,0.45478 -4.81478,0.67903 -1.60185,0.27857 -3.0943,0.48444 -4.47891,0.61558 -0.41976,0.0685 -0.69178,0.0231 -0.81663,-0.13707 -0.16647,-0.2135 -0.20666,-0.56826 -0.12171,-1.06535 1.26128,-2.02035 2.57811,-4.32122 3.93142,-6.90122 1.3974,-2.52779 2.71216,-5.10857 3.94054,-7.74395 1.27265,-2.58002 2.42415,-5.04863 3.45792,-7.39837 1.03215,-2.34608 1.81847,-4.28885 2.36309,-5.79173 0.24962,-0.78157 0.25513,-1.31334 0.019,-1.59291 -0.23616,-0.27957 -0.78827,-0.43628 -1.6545,-0.46616 -2.76325,-0.0414 -5.35901,-0.0563 -7.76205,-0.0552 -2.36003,0.0553 -4.62294,0.19557 -6.78705,0.4142 -2.1244,0.18313 -4.176,0.41797 -6.15383,0.70025 -1.9781,0.28231 -3.9228,0.64808 -5.83401,1.09447 -0.54047,0.12237 -1.13926,0.29998 -1.79602,0.53318 -0.60995,0.28372 -1.25844,0.60457 -1.94529,0.96273 -0.64782,0.32184 -1.29113,0.68781 -1.93029,1.09757 -0.60002,0.37329 -1.09492,0.74258 -1.48482,1.10657 -0.0694,-0.0744 -0.13875,-0.14871 -0.20817,-0.22303 z m 48.78166,62.62496 c 0.31933,0.43942 0.71255,0.79671 1.18071,1.07276 0.50212,0.3346 0.97582,0.56974 1.42213,0.70453 1.10645,0.30968 2.64866,0.66832 4.67506,1.10838 2.05387,0.49852 4.30074,0.98606 6.75237,1.47588 2.48644,0.55133 5.07639,1.1111 7.78996,1.6907 4.63256,0.98948 3.14777,0.67401 7.78033,1.6635 2.52699,0.50333 4.8073,0.91375 6.85914,1.21657 2.08381,0.36871 3.69667,0.53358 4.8537,0.47227 0.35272,-0.005 0.64923,-0.0649 0.88951,-0.18034 0.52665,-0.25309 0.36026,-1.2896 -0.52931,-3.09826 -0.39489,-0.80289 -0.86665,-1.69407 -1.41613,-2.66913 -0.54966,-0.97537 -1.11794,-1.85741 -1.70227,-2.64557 -0.0273,-0.11153 -0.0547,-0.22306 -0.0821,-0.33459 0.44737,-0.0625 0.83417,-0.01 1.16019,0.15925 1.52486,2.74324 2.98143,5.44297 4.37328,8.0951 1.47629,2.70381 2.76187,4.98085 3.90758,6.86041 0.009,0.40774 -0.10853,0.66613 -0.35165,0.77555 -0.0973,0.0438 -0.2868,-0.11742 -0.56946,-0.48242 -0.34452,-0.50135 -0.76514,-0.84416 -1.26018,-1.02825 -0.49507,-0.18411 -1.03864,-0.34467 -1.63049,-0.48122 -2.49505,-0.53622 -5.44512,-1.17597 -8.55526,-1.83096 -2.14472,-0.4112 -7.69904,-1.49088 -9.84376,-1.90208 -2.60862,-0.52895 -7.63236,-1.55147 -10.24098,-2.08043 -3.41587,-0.63847 -6.6043,-1.242 -9.61607,-1.83595 -0.77549,-0.19268 -1.46689,-0.50593 -2.07562,-0.94033 -0.60881,-0.43446 -1.10892,-0.88864 -1.50093,-1.36477 -0.45852,-0.59363 -0.90564,-1.27025 -1.3434,-2.03043 -0.48403,-0.73369 -0.87394,-1.40384 -1.16895,-2.0134 -0.0222,-0.14341 0.0586,-0.26901 0.24258,-0.37677 z"
       id="text1"
       style="font-size:32px;font-family:Zapfino;-inkscape-font-specification:Zapfino;letter-spacing:24px;word-spacing:0px;white-space:pre;fill:#bbc040;fill-opacity:0.188235"
       transform="scale(0.26458333)"
       aria-label="JIBAUNI"
       inkscape:path-effect="#path-effect1"
       inkscape:original-d="m 163.90758,143.95304 q 0.32,0.08 0.32,0.4 0,0.32 -0.32,0.32 -0.48,-0.08 -0.88,-0.08 -0.32,0 -0.56,0 -0.64,0 -1.04,0.16 -0.4,0.08 -0.8,0.56 -1.68,2.16 -3.6,5.76 -1.92,3.52 -3.76,6.96 -1.84,3.36 -3.68,6.56 -1.84,3.12 -3.76,6.16 -1.28,2.08 -3.12,4.48 -1.76,2.32 -3.36,3.84 -1.76,1.68 -3.76,3.28 -2,1.68 -4.4,2.96 -2.32,1.28 -5.04,2.08 -2.72,0.8 -6.08,0.8 -3.6,0 -6.16,-1.04 -0.4,-0.16 -0.56,-0.4 -0.24,-0.16 -0.16,-0.72 0,-0.56 0.08,-1.6 0,-0.96 0.08,-2.08 l 0.56,-0.16 q 0.32,2.08 2.08,3.52 1.68,1.52 5.52,1.52 3.36,0 6.16,-1.2 2.88,-1.12 6,-4.24 2.8,-2.8 5.6,-6.88 2.88,-4.16 5.92,-9.28 1.36,-2.32 2.88,-4.96 1.52,-2.72 2.96,-5.44 1.44,-2.72 2.72,-5.2 1.28,-2.56 2.16,-4.48 0.08,-0.16 0.08,-0.48 0,-0.32 -0.48,-0.32 -1.68,0 -3.6,0.24 -1.92,0.16 -3.84,0.56 -1.92,0.4 -3.68,0.96 -1.76,0.56 -3.12,1.28 -1.36,0.72 -2.48,2.24 -1.04,1.52 -1.04,3.36 0,0.64 0.16,1.12 0.16,0.24 -0.16,0.24 -0.4,-0.24 -0.88,-0.96 -0.4,-0.72 -0.4,-2.24 0,-1.28 1.28,-2.88 1.28,-1.68 4.64,-2.8 1.2,-0.4 2.8,-0.72 1.6,-0.32 4.08,-0.56 2.48,-0.32 6,-0.48 3.6,-0.16 8.64,-0.16 z m 12.23994,35.36 q 0.64,-0.08 1.2,-0.48 0.64,-0.4 1.04,-0.88 0.96,-1.2 2.56,-3.52 1.68,-2.32 3.52,-5.2 1.92,-2.88 3.92,-6.08 2,-3.2 3.76,-6.16 1.76,-3.04 3.04,-5.6 1.36,-2.56 1.84,-4.16 0.16,-0.48 0.16,-0.88 0,-0.88 -2.16,-0.88 -0.96,0 -2.16,0.08 -1.2,0.08 -2.24,0.32 l -0.24,-0.08 q 0.16,-0.64 0.48,-0.96 3.36,-0.16 6.56,-0.32 3.28,-0.24 5.6,-0.64 0.4,0.24 0.4,0.64 0,0.16 -0.48,0.32 -0.64,0.16 -1.04,0.72 -0.4,0.56 -0.8,1.28 -1.68,3.12 -3.84,6.96 -2.08,3.84 -4.48,8 -2.4,4.08 -4.96,8.16 -2.48,4.08 -4.8,7.6 -0.64,0.88 -1.44,1.36 -0.8,0.48 -1.52,0.64 -0.88,0.16 -1.92,0.16 -1.04,0.08 -1.84,0 -0.16,-0.08 -0.16,-0.4 z m 68.47997,-35.36 q 3.6,0 6.32,0.24 2.8,0.16 4.56,0.88 1.84,0.72 2.72,2 0.96,1.28 0.96,3.44 0,1.12 -0.56,2.64 -0.56,1.52 -1.92,3.04 -1.28,1.44 -3.44,2.8 -2.16,1.28 -5.28,2 -0.16,0 -0.16,0.24 0,0.16 0.16,0.16 1.12,0.24 2.48,0.56 1.36,0.24 2.56,0.96 1.2,0.64 2,1.76 0.88,1.04 0.88,2.88 0,2.24 -1.2,4.56 -1.2,2.24 -3.44,4.08 -2.16,1.84 -5.36,3.04 -3.12,1.12 -7.12,1.12 -2.32,0 -4.96,-0.48 -2.64,-0.4 -4.88,-1.52 -0.56,-0.32 -1.04,-0.48 -0.48,-0.24 -0.8,-0.24 -0.64,0 -2,0.64 -1.36,0.64 -2.48,1.52 l -0.48,-0.4 q 1.04,-1.12 1.36,-1.6 0.4,-0.56 0.64,-0.96 1.28,-2.16 2.64,-4.48 1.36,-2.4 2.56,-4.64 1.28,-2.32 2.4,-4.4 1.2,-2.16 2.16,-3.84 0.72,-1.44 1.68,-3.2 1.04,-1.84 2,-3.76 1.04,-1.92 1.92,-3.76 0.96,-1.92 1.68,-3.44 0.08,-0.16 0.08,-0.4 0,-0.24 -0.48,-0.24 -1.12,0 -2.48,0.16 -1.36,0.16 -2.64,0.4 -1.28,0.16 -2.4,0.32 -1.12,0.16 -1.76,0.16 -1.28,0 -1.28,-0.8 0,-0.88 0.48,-1.36 0.16,0 0.24,0.24 0.16,0.24 0.64,0.32 0.56,0.08 2.56,0.08 2.56,0 4.8,-0.08 2.32,-0.16 5.68,-0.16 z m 10.72,5.84 q 0,-1.52 -0.64,-2.48 -0.64,-1.04 -1.68,-1.6 -1.04,-0.56 -2.32,-0.72 -1.28,-0.24 -2.56,-0.24 -0.88,0 -1.68,0.24 -0.72,0.16 -1.28,0.88 -0.88,1.12 -1.84,2.72 -0.88,1.52 -1.68,2.88 -2.64,4.72 -5.68,10.56 -3.04,5.84 -6.08,11.84 -0.4,0.8 -0.48,1.44 0,0.48 0.4,1.2 0.4,0.72 1.28,1.44 0.96,0.64 2.4,1.12 1.44,0.48 3.6,0.48 2.72,-0.08 5.36,-1.04 2.72,-1.04 4.88,-2.72 2.16,-1.76 3.44,-4.08 1.36,-2.4 1.36,-5.12 0,-2.32 -1.76,-3.52 -1.76,-1.28 -4.96,-1.44 -1.12,0 -2.48,0.32 -1.36,0.24 -2.4,0.24 -0.24,-0.08 -0.4,-0.16 -0.08,-0.16 -0.08,-0.64 0,-0.4 0.24,-0.64 0.24,-0.32 0.64,-0.32 0.88,0 1.68,0.24 0.8,0.24 1.68,0.24 0.72,0 1.6,-0.08 0.96,-0.16 1.6,-0.4 1.44,-0.64 2.8,-1.6 1.44,-1.04 2.56,-2.4 1.12,-1.36 1.76,-3.04 0.72,-1.68 0.72,-3.6 z m 44.15996,12.64 q 0.08,0.48 1.04,0.72 0.96,0.24 2.24,0.32 1.36,0.08 2.8,0.08 1.44,0 2.4,0 2.56,0 4.16,0.08 1.6,0 2.24,0.16 0.8,0.24 0.88,0.24 0.16,-0.08 0.32,-0.64 0.32,-1.6 0.8,-4.32 0.48,-2.72 0.96,-5.44 0.48,-2.72 0.8,-4.72 0.4,-2.08 0.48,-2.4 0.16,-0.64 0,-0.64 -0.16,-0.08 -0.8,0.4 -0.24,0.16 -1.36,1.12 -1.12,0.88 -2.88,2.32 -1.68,1.44 -3.76,3.2 -2,1.68 -4,3.44 -1.92,1.68 -3.6,3.28 -1.68,1.6 -2.72,2.8 z m -20.64,19.52 q 0.08,-1.44 1.04,-2.56 1.04,-1.2 2.72,-2.8 15.36,-14.32 24.8,-22.56 9.44,-8.32 12.08,-10.16 0.64,-0.4 1.92,-0.72 1.28,-0.32 1.76,-0.8 0.48,-0.48 0.48,-0.08 0.08,0.32 -0.08,0.64 -0.8,1.2 -1.28,2.8 -0.48,1.52 -0.64,2.56 -0.08,0.32 -0.48,2.16 -0.32,1.76 -0.8,4.4 -0.48,2.56 -1.04,5.6 -0.48,2.96 -0.96,5.76 -0.48,2.72 -0.8,4.96 -0.24,2.16 -0.32,3.04 0,1.36 0.24,2.16 0.32,0.72 0.72,1.12 0.4,0.32 0.8,0.4 0.4,0.08 0.64,0.08 0.4,0 0.96,-0.08 0.56,-0.16 1.2,-0.32 0.64,-0.16 0.64,0.08 0.08,0.24 -0.56,0.4 -0.32,0.08 -1.2,0.32 -0.8,0.24 -1.92,0.56 -1.04,0.32 -2.16,0.64 -1.04,0.24 -1.84,0.4 -1.2,0 -1.6,-1.6 0.08,-0.48 0.32,-2 0.24,-1.6 0.48,-3.36 0.32,-1.76 0.56,-3.28 0.24,-1.6 0.24,-2.08 0,-0.88 -0.88,-1.76 -0.8,-0.96 -2.4,-1.36 -0.56,-0.16 -2.16,-0.24 -1.6,-0.08 -3.84,-0.08 -2.32,0 -4.56,0 -2.24,-0.08 -3.36,-0.24 -6.08,5.52 -10.24,10.08 -4.08,4.56 -6.16,7.6 -0.64,1.04 -0.96,1.84 -0.24,0.88 -0.4,2.24 -0.16,0.48 -0.48,0.24 z m 123.91997,-37.44 q -0.4,0.08 -0.88,0.32 -0.4,0.24 -0.8,0.64 -1.68,2.08 -3.36,4.48 -1.68,2.4 -3.28,4.88 -1.52,2.48 -2.96,4.96 -1.44,2.48 -2.56,4.8 -0.56,1.04 -1.28,2.48 -0.64,1.44 -1.28,2.96 -0.56,1.52 -0.96,3.04 -0.4,1.52 -0.4,2.8 0,1.68 0.8,2.72 0.8,0.96 2.64,0.96 1.12,0 2.24,-0.32 1.12,-0.32 2.08,-0.72 1.04,-0.4 1.68,-0.72 0.72,-0.4 0.8,-0.4 0.4,0 0.48,0.32 0.08,0.32 -0.32,0.48 -2.32,1.04 -4.8,1.76 -2.4,0.8 -4.96,0.8 -5.28,0 -5.28,-4.08 0,-1.28 0.48,-2.64 0.56,-1.36 1.12,-2.48 0.64,-1.2 1.12,-2 0.48,-0.88 0.48,-1.04 0,-0.16 -0.08,-0.16 -0.08,-0.08 -0.16,0.08 -3.12,3.52 -6.32,5.84 -3.2,2.32 -6.16,3.68 -2.96,1.36 -5.52,1.92 -2.56,0.56 -4.4,0.56 -1.52,0 -3.04,-0.4 -1.52,-0.32 -2.8,-1.12 -1.2,-0.8 -2,-2.08 -0.72,-1.28 -0.72,-3.04 0,-2.4 1.6,-5.36 1.2,-2.24 2.88,-4.88 1.68,-2.72 3.44,-5.52 1.76,-2.8 3.44,-5.52 1.68,-2.72 2.96,-5.04 0.32,-0.64 0.32,-0.96 0,-0.72 -1.2,-0.72 -0.56,0 -1.6,0.08 -0.96,0 -2.08,0 -0.56,0 -1.04,0 -0.48,-0.08 -0.88,-0.08 -0.64,0 -0.72,-0.48 0,-0.48 0.64,-0.48 0.8,0 2.56,0.16 1.84,0.08 3.84,0.08 1.92,0 3.2,-0.08 1.28,-0.16 2.08,-0.24 0.88,-0.16 1.52,-0.24 0.64,-0.08 1.2,-0.08 0.4,0 0.4,0.32 0,0.24 -0.48,0.4 -0.64,0.16 -1.36,0.4 -0.72,0.16 -1.36,0.88 -1.6,2 -3.28,4.48 -1.68,2.4 -3.36,5.04 -1.6,2.56 -3.2,5.28 -1.6,2.64 -2.96,5.12 -2,3.52 -2,6.56 0,2.56 1.6,4.08 1.6,1.52 4.8,1.52 3.36,0 6.64,-1.28 3.28,-1.28 6.24,-3.44 3.04,-2.16 5.52,-4.88 2.56,-2.8 4.48,-5.68 1.12,-1.68 2.32,-3.92 1.28,-2.24 2.48,-4.48 1.2,-2.24 2.24,-4.24 1.04,-2 1.76,-3.2 0.56,-0.88 1.12,-1.44 0.64,-0.64 1.68,-1.04 0.24,-0.08 0.96,-0.24 0.72,-0.24 1.44,-0.4 0.8,-0.24 1.44,-0.4 0.72,-0.16 0.96,-0.16 0.4,0 0.48,0.4 0.08,0.4 -0.32,0.4 z m 21.83999,36.24 q -0.16,-0.08 -0.48,-0.56 -0.24,-0.48 -0.56,-0.96 -0.32,-0.56 -0.56,-1.12 -0.16,-0.56 -0.16,-0.88 0,-0.8 0.48,-1.84 0.56,-1.04 1.12,-1.92 0.96,-1.68 2.8,-4.8 1.92,-3.2 5.28,-8.8 1.84,-3.04 3.52,-6.16 1.68,-3.12 2.4,-4.96 0.32,-0.8 0.32,-1.36 0,-0.88 -0.56,-1.28 -0.48,-0.4 -1.36,-0.4 -0.96,0 -2.16,0.08 -1.2,0 -2.08,0.08 -0.32,0 -0.56,-0.32 -0.16,-0.4 -0.16,-0.8 0,-0.32 0.24,-0.32 0.8,0.24 1.92,0.4 1.2,0.08 2.32,0.08 1.52,0 3.04,-0.24 1.52,-0.24 2.48,-0.56 0.56,0 0.64,0.72 0.16,0.64 0.4,1.92 0.32,1.2 0.56,2.08 0.64,2.4 1.68,5.44 1.04,2.96 2.16,6.16 1.2,3.2 2.32,6.32 1.2,3.12 2.08,5.68 0.16,0.64 0.32,1.04 0.16,0.4 0.56,0.4 0.24,0 0.48,-0.4 0.32,-0.48 0.56,-0.96 1.84,-3.76 3.76,-7.68 2,-3.92 4,-7.76 2,-3.84 4,-7.44 2.08,-3.6 4.08,-6.72 0.48,-0.8 1.12,-1.68 0.72,-0.88 1.52,-1.6 0.88,-0.72 1.76,-1.2 0.96,-0.48 2,-0.48 0.56,0 1.36,0.56 0.88,0.48 1.12,1.12 0,0.16 -0.24,0.16 -0.96,0 -1.92,0.24 -0.96,0.24 -2.08,0.88 -1.04,0.64 -2.24,1.84 -1.12,1.2 -2.48,3.04 -3.84,5.28 -7.52,12.16 -3.68,6.88 -6.8,13.84 -0.88,2.08 -1.84,4.24 -0.88,2.16 -1.76,3.92 -0.24,0.56 -0.48,0.56 -0.32,0 -0.72,-0.56 -0.96,-3.36 -2.32,-7.36 -1.28,-4 -2.72,-7.92 -1.36,-3.92 -2.64,-7.36 -1.28,-3.44 -2.16,-5.52 -0.48,-1.04 -0.88,-1.04 -0.4,0 -1.04,0.96 -2,3.12 -3.76,5.84 -1.68,2.72 -3.12,5.36 -1.44,2.56 -2.72,5.04 -1.28,2.48 -2.4,5.04 -0.32,0.72 -0.64,1.68 -0.24,0.96 -0.48,2.08 -0.24,1.04 -0.4,2.16 -0.16,1.04 -0.16,1.84 z m 62.63998,-1.44 q 0.64,-0.08 1.2,-0.48 0.64,-0.4 1.04,-0.88 0.96,-1.2 2.56,-3.52 1.68,-2.32 3.52,-5.2 1.92,-2.88 3.92,-6.08 2,-3.2 3.76,-6.16 1.76,-3.04 3.04,-5.6 1.36,-2.56 1.84,-4.16 0.16,-0.48 0.16,-0.88 0,-0.88 -2.16,-0.88 -0.96,0 -2.16,0.08 -1.2,0.08 -2.24,0.32 l -0.24,-0.08 q 0.16,-0.64 0.48,-0.96 3.36,-0.16 6.56,-0.32 3.28,-0.24 5.6,-0.64 0.4,0.24 0.4,0.64 0,0.16 -0.48,0.32 -0.64,0.16 -1.04,0.72 -0.4,0.56 -0.8,1.28 -1.68,3.12 -3.84,6.96 -2.08,3.84 -4.48,8 -2.4,4.08 -4.96,8.16 -2.48,4.08 -4.8,7.6 -0.64,0.88 -1.44,1.36 -0.8,0.48 -1.52,0.64 -0.88,0.16 -1.92,0.16 -1.04,0.08 -1.84,0 -0.16,-0.08 -0.16,-0.4 z" />
  </g>
</svg>
