<?xml version="1.0" encoding="UTF-8" standalone="no"?>
<!-- Created with Inkscape (http://www.inkscape.org/) -->

<svg
   xmlns:dc="http://purl.org/dc/elements/1.1/"
   xmlns:cc="http://creativecommons.org/ns#"
   xmlns:rdf="http://www.w3.org/1999/02/22-rdf-syntax-ns#"
   xmlns:svg="http://www.w3.org/2000/svg"
   xmlns="http://www.w3.org/2000/svg"
   xmlns:sodipodi="http://sodipodi.sourceforge.net/DTD/sodipodi-0.dtd"
   xmlns:inkscape="http://www.inkscape.org/namespaces/inkscape"
   width="744.09448819"
   height="1052.3622047"
   id="svg2"
   version="1.1"
   inkscape:version="0.48.4 r9939"
   sodipodi:docname="serenity decals.svg">
  <defs
     id="defs4" />
  <sodipodi:namedview
     id="base"
     pagecolor="#ffffff"
     bordercolor="#666666"
     borderopacity="1.0"
     inkscape:pageopacity="0.0"
     inkscape:pageshadow="2"
     inkscape:zoom="0.98994949"
     inkscape:cx="337.52266"
     inkscape:cy="311.36982"
     inkscape:document-units="px"
     inkscape:current-layer="layer1"
     showgrid="false"
     inkscape:window-width="1604"
     inkscape:window-height="935"
     inkscape:window-x="146"
     inkscape:window-y="59"
     inkscape:window-maximized="0" />
  <metadata
     id="metadata7">
    <rdf:RDF>
      <cc:Work
         rdf:about="">
        <dc:format>image/svg+xml</dc:format>
        <dc:type
           rdf:resource="http://purl.org/dc/dcmitype/StillImage" />
        <dc:title></dc:title>
      </cc:Work>
    </rdf:RDF>
  </metadata>
  <g
     inkscape:label="Layer 1"
     inkscape:groupmode="layer"
     id="layer1">
    <g
       id="g4100">
      <path
         inkscape:connector-curvature="0"
         id="path2996"
         d="m 16.745111,921.19599 0,28.2812 46.96875,26.7813 333.874999,0 -0.5,-26.7813 -47.5,-28.2812 -332.843749,0 z m 135.374999,2.2187 c 0.50726,-0.022 1.02267,-0.01 1.53125,0 4.8824,0.078 9.80797,1.5616 14.09375,4.5625 2.42009,1.6946 4.49365,3.7997 6.1875,6.2188 l -4.9375,3.4375 c -1.29314,-1.8468 -2.87296,-3.4888 -4.71875,-4.7813 -8.7679,-6.1393 -20.73239,-3.9913 -26.875,4.7813 l -4.9375,-3.4375 c 4.68706,-6.6938 12.04739,-10.4474 19.65625,-10.7813 z m -72.687499,2.5938 0.375,15.7187 38.749999,-0.1875 0.1875,13.4063 -70.718749,-0.1875 31.40625,-28.75 z m 194.343749,6.4687 6,0 0,3 0,3.7188 6.46875,0 2,0 0,4 -2,0 -6.46875,0 0,12.0937 0,3 -6,0 0,-3 0,-12.0937 -4.40625,0 -0.125,5.9375 a 3.0003,3.0003 0 0 1 -3.15625,2.9062 l -7.09375,-0.3437 0.3125,0.3125 a 3.0003,3.0003 0 0 1 0.4375,3.5 l 5.875,-0.1563 3,-0.094 0.15625,6 -3,0.094 -12.5,0.3438 a 3.0003,3.0003 0 0 1 -2.375,-4.9375 l 2.21875,-2.5938 -3.53125,-3.7812 a 3.0003,3.0003 0 0 1 2.34375,-5.0313 l 11.375,0.5625 0.0625,-2.7187 -15.9375,0 -0.125,5.0625 0.53125,-0.031 0.3125,6 -0.96875,0.062 -0.0937,3.9375 -0.0625,3 -6,-0.125 0.0625,-3 0.0625,-3.5 -6.1875,0.3125 a 3.0003,3.0003 0 0 1 -3.15625,-3 l 0,-8.7187 -4.25,0 -0.46875,15.0625 -0.0937,3 -6,-0.1875 0.0937,-3 0.46875,-14.875 -6.40625,0 0.15625,15.125 0.0312,3 -6,0.062 -0.0312,-3 -0.15625,-15.1875 -1.5,0 -2,0 0,-4 2,0 1.4375,0 0,-0.625 6,-0.062 0,0.6875 6.59375,0 0.0312,-0.9063 6,0.1875 -0.0312,0.7188 4.125,0 0,-1.1875 6,0 0,1.1875 3.6875,0 0.0312,-1.25 6,0.125 -0.0312,1.125 15.96875,0 0.0312,-0.5313 6,0.1563 0,0.375 4.28125,0 0,-3.7188 0,-3 z m -120.6875,4.2813 c 5.72967,0 11,4.8476 11,11.7812 0,6.9336 -5.27033,11.7813 -11,11.7813 -5.72966,0 -10.9375,-4.8477 -10.9375,-11.7813 0,-6.9336 5.20784,-11.7812 10.9375,-11.7812 z m -22.84375,1.2187 5.4375,2.5313 c -0.95302,2.0437 -1.55341,4.2529 -1.75,6.5 -0.93384,10.6738 6.93617,20.0051 17.59375,20.9375 l -0.53125,5.9687 c -13.90417,-1.2164 -24.24628,-13.5183 -23.03125,-27.4062 0.25729,-2.9408 1.03341,-5.8553 2.28125,-8.5313 z m 45.90625,0 c 5.89289,12.6374 0.39701,27.7589 -12.25,33.6563 -2.67807,1.2488 -5.55572,2.0236 -8.5,2.2812 l -0.53125,-5.9687 c 2.24356,-0.1963 4.45832,-0.7667 6.5,-1.7188 9.69852,-4.5225 13.87075,-16.0105 9.34375,-25.7187 l 5.4375,-2.5313 z m 25,0.75 a 3.0003,3.0003 0 0 1 3.09375,3.1563 l -0.1875,3.2187 a 3.0003,3.0003 0 0 1 -1.71875,2.5625 c 0,0 -0.90233,0.4418 -1.34375,0.6563 1.28365,0.7275 2.65625,1.5312 2.65625,1.5312 a 3.0003,3.0003 0 0 1 1.375,3.375 l -0.71875,2.6563 a 3.0003,3.0003 0 0 1 -3.0625,2.25 l -16.0625,-0.9063 -3,-0.1562 0.34375,-6 2.96875,0.1562 9.1875,0.5313 c -0.20305,-0.1021 -0.43575,-0.2233 -0.5625,-0.2813 -0.18881,-0.086 -0.4452,-0.139 0.0937,-0.031 -0.34612,-0.069 -0.87512,-0.1751 -1.5,-0.75 -0.62488,-0.5749 -1.04195,-1.7551 -0.96875,-2.5313 0.14644,-1.5523 0.72526,-1.7252 0.96875,-1.9687 0.48699,-0.487 0.74437,-0.6234 1.09375,-0.8438 0.2378,-0.15 0.54674,-0.3168 0.8125,-0.4687 l -8.65625,0.2187 -3,0.062 -0.15625,-6 3,-0.062 15.34375,-0.375 z m 93.84375,3 70.15625,0.1875 -31.59375,28.9375 0,-16.0937 -38.5625,0.375 0,-13.4063 z m -57.1875,1.4688 0,5.5625 3.46875,-0.1875 0.125,-5.375 -3.59375,0 z m -84.71875,0.3125 c -3.44221,0 -5.625,2.6943 -5.625,5.0312 0,2.3369 2.18279,5 5.625,5 3.44221,0 5.65625,-2.6631 5.65625,-5 0,-2.3369 -2.21404,-5.0312 -5.65625,-5.0312 z m 111.1875,19.0625 2,0.2187 1.59375,0.1563 2,0.2187 -0.4375,4 -2,-0.2187 -1.59375,-0.1875 -2,-0.2188 0.4375,-3.9687 z"
         style="fill:#bf311a;fill-opacity:1;stroke:none" />
      <path
         inkscape:connector-curvature="0"
         id="path3857"
         d="m 16.249098,1013.1323 46.97209,-27.27411 334.360502,0 -0.50508,27.77921 -46.46702,26.264 -333.855415,0 z"
         style="fill:#e09a2e;fill-opacity:1;stroke:none" />
      <path
         inkscape:connector-curvature="0"
         id="path3861"
         d="m 59.180579,1005.0511 0.50508,17.1726 -6.56599,-0.5051"
         style="fill:none;stroke:#bf311a;stroke-width:6;stroke-miterlimit:4;stroke-opacity:1;stroke-dasharray:none" />
      <path
         inkscape:connector-curvature="0"
         id="path3863"
         d="m 72.817639,1005.0511 0.50508,18.1828"
         style="fill:none;stroke:#bf311a;stroke-width:6;stroke-linecap:square;stroke-linejoin:round;stroke-miterlimit:4;stroke-opacity:1;stroke-dasharray:none;stroke-dashoffset:0" />
      <path
         inkscape:connector-curvature="0"
         id="path3865"
         d="m 99.586679,997.98009 0,10.60661"
         style="fill:none;stroke:#bf311a;stroke-width:6;stroke-linecap:square;stroke-linejoin:round;stroke-miterlimit:4;stroke-opacity:1;stroke-dasharray:none;stroke-dashoffset:0" />
      <path
         inkscape:connector-curvature="0"
         id="path3867"
         d="m 100.59684,1019.1933 -0.50508,9.5964"
         style="fill:none;stroke:#bf311a;stroke-width:6;stroke-linecap:square;stroke-linejoin:round;stroke-miterlimit:4;stroke-opacity:1;stroke-dasharray:none;stroke-dashoffset:0" />
      <path
         inkscape:connector-curvature="0"
         id="path3869"
         d="m 84.939469,1017.173 13.63706,6.5659 16.162441,-6.5659"
         style="fill:none;stroke:#bf311a;stroke-width:6;stroke-linecap:square;stroke-linejoin:round;stroke-miterlimit:4;stroke-opacity:1;stroke-dasharray:none;stroke-dashoffset:0" />
      <path
         inkscape:connector-curvature="0"
         id="path3871"
         d="m 85.949629,1011.112 14.142131,-6.5659 14.64721,4.5456"
         style="fill:none;stroke:#bf311a;stroke-width:6;stroke-linecap:square;stroke-linejoin:round;stroke-miterlimit:4;stroke-opacity:1;stroke-dasharray:none;stroke-dashoffset:0" />
      <path
         inkscape:connector-curvature="0"
         id="path3873"
         d="m 132.41664,1005.5562 -9.59645,5.5558 c 0,0 12.62691,5.5559 10.10153,5.0508 -2.52538,-0.5051 -9.09137,2.0203 -9.09137,2.0203 l 1.51522,5.0508"
         style="fill:none;stroke:#bf311a;stroke-width:6;stroke-linecap:square;stroke-linejoin:round;stroke-miterlimit:4;stroke-opacity:1;stroke-dasharray:none;stroke-dashoffset:0" />
      <path
         inkscape:connector-curvature="0"
         id="path3875"
         d="m 142.01309,1004.041 0.50508,20.203"
         style="fill:none;stroke:#bf311a;stroke-width:6;stroke-linecap:square;stroke-linejoin:round;stroke-miterlimit:4;stroke-opacity:1;stroke-dasharray:none;stroke-dashoffset:0" />
      <path
         inkscape:connector-curvature="0"
         id="path3877"
         d="m 258.18063,1025.2542 10.60661,0 -0.50508,-12.6269"
         style="fill:none;stroke:#bf311a;stroke-width:6;stroke-linecap:square;stroke-linejoin:round;stroke-miterlimit:4;stroke-opacity:1;stroke-dasharray:none;stroke-dashoffset:0" />
      <path
         inkscape:connector-curvature="0"
         id="path3879"
         d="m 271.81769,1019.1933 28.28427,0"
         style="fill:none;stroke:#bf311a;stroke-width:6;stroke-linecap:square;stroke-linejoin:round;stroke-miterlimit:4;stroke-opacity:1;stroke-dasharray:none;stroke-dashoffset:0" />
      <path
         inkscape:connector-curvature="0"
         id="path3881"
         d="m 282.4243,1000.0004 -1.01016,17.1726"
         style="fill:none;stroke:#bf311a;stroke-width:6;stroke-linecap:square;stroke-linejoin:round;stroke-miterlimit:4;stroke-opacity:1;stroke-dasharray:none;stroke-dashoffset:0" />
      <path
         inkscape:connector-curvature="0"
         id="path3883"
         d="m 290.50552,1010.1019 20.70812,1.5152 -0.50507,8.5863 21.71828,0"
         style="fill:none;stroke:#bf311a;stroke-width:6;stroke-linecap:square;stroke-linejoin:round;stroke-miterlimit:4;stroke-opacity:1;stroke-dasharray:none;stroke-dashoffset:0" />
      <path
         inkscape:connector-curvature="0"
         id="path3885"
         d="m 319.29486,1009.0917 7.57615,3.5356 9.59645,12.6269 6.06091,-1.0102 2.52538,-21.2132"
         style="fill:none;stroke:#bf311a;stroke-width:6;stroke-linecap:square;stroke-linejoin:round;stroke-miterlimit:4;stroke-opacity:1;stroke-dasharray:none;stroke-dashoffset:0" />
      <path
         inkscape:connector-curvature="0"
         id="path3887"
         d="m 355.66035,1000.0004 -0.50507,20.7081"
         style="fill:none;stroke:#bf311a;stroke-width:6;stroke-linecap:square;stroke-linejoin:round;stroke-miterlimit:4;stroke-opacity:1;stroke-dasharray:none;stroke-dashoffset:0" />
      <path
         inkscape:connector-curvature="0"
         id="path3889"
         d="m 185.44965,993.93939 29.7995,0.5051"
         style="fill:none;stroke:#000000;stroke-width:6;stroke-linecap:square;stroke-linejoin:round;stroke-miterlimit:4;stroke-opacity:1;stroke-dasharray:none;stroke-dashoffset:0" />
      <path
         inkscape:connector-curvature="0"
         id="path3891"
         d="m 229.39129,993.93939 9.09137,0 11.61675,12.12191 -1.51522,19.1929 -5.55584,8.0812 -11.11168,0.5051"
         style="fill:none;stroke:#000000;stroke-width:6;stroke-linecap:square;stroke-linejoin:round;stroke-miterlimit:4;stroke-opacity:1;stroke-dasharray:none;stroke-dashoffset:0" />
      <path
         inkscape:connector-curvature="0"
         id="path3893"
         d="m 217.26946,1033.8405 -29.29443,0"
         style="fill:none;stroke:#000000;stroke-width:6;stroke-linecap:square;stroke-linejoin:round;stroke-miterlimit:4;stroke-opacity:1;stroke-dasharray:none;stroke-dashoffset:0" />
      <path
         inkscape:connector-curvature="0"
         id="path3895"
         d="m 172.82274,1031.8202 -10.10152,-0.5051 -7.07107,-9.5965 1.01015,-20.203 7.57615,-7.07111 9.59645,0"
         style="fill:none;stroke:#000000;stroke-width:6;stroke-linecap:square;stroke-linejoin:round;stroke-miterlimit:4;stroke-opacity:1;stroke-dasharray:none;stroke-dashoffset:0" />
      <path
         inkscape:connector-curvature="0"
         id="path3897"
         d="m 168.78213,1007.5765 20.70813,0.5051 0,16.1624 7.57615,-2.0203 -1.51523,-6.0609"
         style="fill:none;stroke:#000000;stroke-width:6;stroke-linecap:square;stroke-linejoin:round;stroke-miterlimit:4;stroke-opacity:1;stroke-dasharray:none;stroke-dashoffset:0" />
      <path
         inkscape:connector-curvature="0"
         id="path3899"
         d="m 179.38874,1002.5257 -1.01016,15.1523 -9.09137,6.0609"
         style="fill:none;stroke:#000000;stroke-width:6;stroke-linecap:square;stroke-linejoin:round;stroke-miterlimit:4;stroke-opacity:1;stroke-dasharray:none;stroke-dashoffset:0" />
      <path
         inkscape:connector-curvature="0"
         id="path3901"
         d="m 170.29736,1012.6273 13.13199,8.5863"
         style="fill:none;stroke:#000000;stroke-width:6;stroke-linecap:square;stroke-linejoin:round;stroke-miterlimit:4;stroke-opacity:1;stroke-dasharray:none;stroke-dashoffset:0" />
      <path
         inkscape:connector-curvature="0"
         id="path3903"
         d="m 206.66285,1004.5461 1.01016,18.1827"
         style="fill:none;stroke:#000000;stroke-width:6;stroke-linecap:square;stroke-linejoin:round;stroke-miterlimit:4;stroke-opacity:1;stroke-dasharray:none;stroke-dashoffset:0" />
      <path
         inkscape:connector-curvature="0"
         id="path3905"
         d="m 215.24915,1005.5562 0.50508,18.1827"
         style="fill:none;stroke:#000000;stroke-width:6;stroke-linecap:square;stroke-linejoin:round;stroke-miterlimit:4;stroke-opacity:1;stroke-dasharray:none;stroke-dashoffset:0" />
      <path
         inkscape:connector-curvature="0"
         id="path3907"
         d="m 219.79484,1010.607 4.54568,-7.5762"
         style="fill:none;stroke:#000000;stroke-width:6;stroke-linecap:square;stroke-linejoin:round;stroke-miterlimit:4;stroke-opacity:1;stroke-dasharray:none;stroke-dashoffset:0" />
      <path
         inkscape:connector-curvature="0"
         id="path3909"
         d="m 226.36083,1006.5664 10.6066,0"
         style="fill:none;stroke:#000000;stroke-width:6;stroke-linecap:square;stroke-linejoin:round;stroke-miterlimit:4;stroke-opacity:1;stroke-dasharray:none;stroke-dashoffset:0" />
      <path
         inkscape:connector-curvature="0"
         id="path3911"
         d="m 221.31007,1016.6679 15.65736,0"
         style="fill:none;stroke:#000000;stroke-width:6;stroke-linecap:square;stroke-linejoin:round;stroke-miterlimit:4;stroke-opacity:1;stroke-dasharray:none;stroke-dashoffset:0" />
      <path
         inkscape:connector-curvature="0"
         id="path3913"
         d="m 221.81514,1024.244 9.09138,0"
         style="fill:none;stroke:#000000;stroke-width:6;stroke-linecap:square;stroke-linejoin:round;stroke-miterlimit:4;stroke-opacity:1;stroke-dasharray:none;stroke-dashoffset:0" />
    </g>
    <g
       id="g4131"
       transform="translate(-410,-464.28571)">
      <path
         inkscape:connector-curvature="0"
         id="path3915"
         d="M 442.14286,1215.9336 585,1074.505 726.42858,1216.6479 585,1356.6479 z"
         style="fill:none;stroke:#000000;stroke-width:6;stroke-linecap:square;stroke-linejoin:round;stroke-miterlimit:4;stroke-opacity:1;stroke-dasharray:none;stroke-dashoffset:0" />
      <path
         id="path3917"
         d="m 705,1219.5 -240.71875,0.7188 122.15625,120 L 705,1219.5 z m -175.0625,8.4375 a 3.0003,3.0003 0 0 1 0.3125,0 l 17.15625,1.4375 a 3.0003,3.0003 0 0 1 1.9375,0.9688 l 7.875,8.5624 A 3.0003,3.0003 0 0 1 558,1240.8125 l 0.71875,16.4063 a 3.0003,3.0003 0 0 1 -0.8125,2.1874 l -9.28125,10 a 3.0003,3.0003 0 0 1 -2.0625,0.9688 l -17.15625,0.6875 a 3.0003,3.0003 0 0 1 -2.3125,-0.9375 L 515.6875,1258 a 3.0003,3.0003 0 0 1 -0.8125,-2.3438 l 1.4375,-15.7187 a 3.0003,3.0003 0 0 1 1,-2 l 10.71875,-9.2813 a 3.0003,3.0003 0 0 1 1.90625,-0.7187 z m 97.15625,0.6875 a 3.0003,3.0003 0 0 1 0.3125,0.031 l 17.125,1.4376 a 3.0003,3.0003 0 0 1 1.96875,0.9687 l 7.84375,8.5625 a 3.0003,3.0003 0 0 1 0.78125,1.9062 l 0.71875,16.4063 a 3.0003,3.0003 0 0 1 -0.78125,2.1875 l -9.28125,10 a 3.0003,3.0003 0 0 1 -2.09375,0.9375 l -17.125,0.7187 a 3.0003,3.0003 0 0 1 -2.3125,-0.9374 l -11.4375,-12.125 A 3.0003,3.0003 0 0 1 612,1256.375 l 1.4375,-15.7188 a 3.0003,3.0003 0 0 1 1.03125,-2 l 10.71875,-9.2812 a 3.0003,3.0003 0 0 1 1.59375,-0.7188 3.0003,3.0003 0 0 1 0.3125,-0.031 z m -48.875,0.031 a 3.0003,3.0003 0 0 1 0.59375,0 l 17.15625,1.4376 a 3.0003,3.0003 0 0 1 1.96875,0.9687 l 7.84375,8.5625 a 3.0003,3.0003 0 0 1 0.78125,1.9062 l 0.71875,16.4063 a 3.0003,3.0003 0 0 1 -0.8125,2.1875 l -9.28125,10 a 3.0003,3.0003 0 0 1 -2.0625,0.9375 l -17.15625,0.7187 a 3.0003,3.0003 0 0 1 -2.28125,-0.9374 l -11.4375,-12.125 a 3.0003,3.0003 0 0 1 -0.8125,-2.3438 l 1.4375,-15.7188 a 3.0003,3.0003 0 0 1 1.03125,-2 l 10.6875,-9.2812 a 3.0003,3.0003 0 0 1 1.625,-0.7188 z m -47.21875,5.375 -8.84375,7.6563 -1.1875,13.1875 9.5625,10.1562 14.5,-0.5937 7.625,-8.1875 -0.59375,-14.0938 -6.34375,-6.9062 L 531,1234.0312 z m 48.59375,0.6876 -8.84375,7.6562 -1.21875,13.1875 9.53125,10.1563 14.5625,-0.5626 7.59375,-8.1874 -0.625,-14.125 -6.28125,-6.875 -14.71875,-1.25 z m 48.5625,0 -8.84375,7.6874 -1.1875,13.1876 9.53125,10.125 14.53125,-0.5626 7.625,-8.2187 -0.59375,-14.0625 -6.34375,-6.9062 -14.71875,-1.25 z m -54.34375,49.5624 5.6875,1.9063 -0.9375,2.8437 -0.8125,2.4688 5.09375,0 3,0 0,6 -3,0 -7.125,0 -1.8125,5.4375 7.40625,1.4687 2.9375,0.5938 -1.1875,5.9062 -2.9375,-0.5937 -10.71875,-2.1563 a 3.0003,3.0003 0 0 1 -2.25,-3.875 l 5.71875,-17.1562 0.9375,-2.8438 z m -18.90625,0.1876 5.84375,1.3437 -0.6875,2.9375 -2.125,9.2812 -0.6875,2.9376 -5.84375,-1.3438 0.65625,-2.9375 2.15625,-9.2813 0.6875,-2.9374 z m 39.5625,0.5624 5.71875,1.8126 -0.90625,2.8437 -0.5625,1.8125 0.5625,0 3,0 0,6 -3,0 -2.5,0 -2.5,7.9062 -0.90625,2.875 -5.71875,-1.8124 0.90625,-2.875 1.9375,-6.0938 -2.78125,0 0,-6 3,0 1.6875,0 1.15625,-3.625 0.90625,-2.8438 z m -29.53125,1.2188 5.46875,2.4688 -1.25,2.75 -7.125,15.7187 -1.25,2.7187 -5.46875,-2.4687 1.25,-2.75 7.125,-15.7187 1.25,-2.7188 z m 53.15625,2.5938 4,4.4687 -2.25,2 -0.6875,0.625 -0.1875,1.25 -1.0625,-0.1563 L 607,1306.75 l -2.25,2 -4,-4.5 2.25,-2 7.125,-6.3125 -4.125,-0.5937 -2.96875,-0.4376 0.84375,-5.9374 2.96875,0.4374 9.1875,1.2813 2.0625,-1.8437 z"
         style="fill:#000000;fill-opacity:1;stroke:none"
         inkscape:connector-curvature="0" />
      <path
         id="path3919"
         d="m 585,1090.2188 -120,121.4374 240,0 -120,-121.4374 z m -0.65625,15.0624 2.09375,2.1563 25.6875,26.4063 2.0625,2.125 -2.09375,2.0937 -25,25 -2.0625,2.0625 -2.09375,-2 -27.15625,-25.7188 -2.28125,-2.1562 2.25,-2.1875 26.4375,-25.6875 2.15625,-2.0938 z m -0.125,8.4688 -22.0625,21.4688 22.78125,21.5312 20.84375,-20.8438 -21.5625,-22.1562 z m -18.65625,56.3438 6,0 0,1.1874 12.0625,0.2188 a 3.0003,3.0003 0 0 1 2.9375,3 l 0,12.7812 8.1875,-1.625 -1.3125,-12.25 a 3.0003,3.0003 0 0 1 2.78125,-3.3124 3.0003,3.0003 0 0 1 0.3125,0 l 45.5,1.5624 5.8125,-0.25 0.0312,0.4376 10.78125,0.375 3,0.125 -0.21875,6 -2.96875,-0.125 -10.34375,-0.3438 0.5625,13.6562 0.125,3 -5.96875,0.25 -0.125,-3 -0.59375,-14.125 -8.28125,-0.2812 0.5625,8.375 a 3.0003,3.0003 0 0 1 -3.28125,3.1875 l -14.4375,-1.4063 1.25,1.4063 a 3.0003,3.0003 0 0 1 0.1875,3.7813 l -2.40625,3.2812 15.78125,0.5312 3,0.094 -0.1875,6 -3,-0.125 -21.4375,-0.6875 a 3.0003,3.0003 0 0 1 -2.3125,-4.7813 l 4.28125,-5.875 -4.8125,-5.3437 a 3.0003,3.0003 0 0 1 2.53125,-5 l 18.625,1.8125 -0.34375,-5.4688 -28.0625,-0.9374 1.46875,13.5312 0.125,0.6875 -0.0625,0 0.9375,8.75 0.3125,3 -5.9375,0.625 -0.34375,-2.9687 -0.875,-8.2188 -11.25,2.25 a 3.0003,3.0003 0 0 1 -3.59375,-2.9375 l 0,-13.5 -9,-0.1563 0,21.5313 0,3 -6,0 0,-3 0,-21.625 -12.03125,-0.1875 -1.25,20.5625 -0.1875,3 -6,-0.375 0.1875,-3 1.28125,-20.2813 -4.78125,-0.094 -3,-0.062 0.125,-6 3,0.062 22.65625,0.375 0,-1.0937 z m -31.375,1.4062 a 3.0003,3.0003 0 0 1 3.0625,2.6562 l 0.71875,5.6876 a 3.0003,3.0003 0 0 1 -1.8125,3.1562 l -2.71875,1.1562 1.0625,0.375 a 3.0003,3.0003 0 0 1 2.03125,3.1563 l -0.71875,6.4375 a 3.0003,3.0003 0 0 1 -3.0625,2.6875 l -22.84375,-0.7187 a 3.0003,3.0003 0 0 1 -2.78125,-2.0626 l -1.40625,-4.2812 -0.96875,-2.8438 5.71875,-1.9062 0.9375,2.8438 0.78125,2.3124 17.96875,0.5626 0.15625,-1.25 -6.28125,-2.0938 a 3.0003,3.0003 0 0 1 -0.21875,-5.625 l 7.90625,-3.375 -0.0937,-0.7812 -21.5625,0.625 -3,0.094 -0.15625,-6 3,-0.094 24.28125,-0.7188 z"
         style="fill:#bf311a;fill-opacity:1;stroke:none"
         inkscape:connector-curvature="0" />
    </g>
    <path
       style="font-size:medium;font-style:normal;font-variant:normal;font-weight:normal;font-stretch:normal;text-indent:0;text-align:start;text-decoration:none;line-height:normal;letter-spacing:normal;word-spacing:normal;text-transform:none;direction:ltr;block-progression:tb;writing-mode:lr-tb;text-anchor:start;baseline-shift:baseline;color:#000000;fill:#bf311a;fill-opacity:1;stroke:none;stroke-width:9;marker:none;visibility:visible;display:inline;overflow:visible;enable-background:accumulate;font-family:Sans;-inkscape-font-specification:Sans"
       d="M 490.71875 744.28125 C 477.22359 744.28125 466.21875 755.28609 466.21875 768.78125 L 466.21875 796.65625 C 466.21875 810.15141 477.22359 821.15625 490.71875 821.15625 L 496.65625 821.15625 L 504.9375 812.15625 L 490.71875 812.15625 C 482.05391 812.15625 475.21875 805.32109 475.21875 796.65625 L 475.21875 768.78125 C 475.21875 760.11641 482.05391 753.28125 490.71875 753.28125 L 505 753.28125 L 496.9375 744.28125 L 490.71875 744.28125 z M 504.96875 744.28125 L 513.03125 753.28125 L 559.0625 753.28125 L 567.34375 744.28125 L 504.96875 744.28125 z M 575.46875 744.28125 L 567.1875 753.28125 L 578.5625 753.28125 C 587.22734 753.28125 594.0625 760.11641 594.0625 768.78125 L 594.0625 796.65625 C 594.0625 805.32109 587.22734 812.15625 578.5625 812.15625 L 565.75 812.15625 L 573.8125 821.15625 L 578.5625 821.15625 C 592.05766 821.15625 603.0625 810.15141 603.0625 796.65625 L 603.0625 768.78125 C 603.0625 755.28609 592.05766 744.28125 578.5625 744.28125 L 575.46875 744.28125 z M 513.0625 812.15625 L 504.8125 821.15625 L 565.75 821.15625 L 557.6875 812.15625 L 513.0625 812.15625 z "
       id="rect4166" />
    <path
       style="font-size:medium;font-style:normal;font-variant:normal;font-weight:normal;font-stretch:normal;text-indent:0;text-align:start;text-decoration:none;line-height:normal;letter-spacing:normal;word-spacing:normal;text-transform:none;direction:ltr;block-progression:tb;writing-mode:lr-tb;text-anchor:start;baseline-shift:baseline;color:#000000;fill:#bf311a;fill-opacity:1;stroke:none;stroke-width:6;marker:none;visibility:visible;display:inline;overflow:visible;enable-background:accumulate;font-family:Sans;-inkscape-font-specification:Sans"
       d="M 552.875 760.6875 L 546.875 760.90625 L 547 763.90625 L 548.4375 801.0625 L 548.53125 804.03125 L 554.53125 803.8125 L 554.4375 800.8125 L 553.65625 780.25 L 555 781.59375 L 557.125 779.46875 L 561.84375 774.75 L 564.40625 774.65625 L 568.03125 774.5 L 568.4375 779.75 L 568.65625 782.71875 L 574.65625 782.28125 L 574.40625 779.28125 L 574.03125 774.25 L 581.5625 773.9375 L 584.5625 773.8125 L 584.3125 767.8125 L 581.3125 767.9375 L 573.5625 768.28125 L 573.46875 767 L 569.21875 767.34375 L 565 763.125 L 562.875 765.25 L 553.4375 774.6875 L 553 763.6875 L 552.875 760.6875 z M 505.75 762.125 L 499.75 762.34375 L 499.84375 765.34375 L 500 769.375 L 488.5625 769.375 L 485.5625 769.375 L 485.5625 775.375 L 488.5625 775.375 L 500.21875 775.375 L 500.53125 783.375 L 497.375 786.65625 L 489.375 781.9375 L 486.8125 780.40625 L 483.75 785.5625 L 486.3125 787.09375 L 493.15625 791.125 L 487.125 797.4375 L 485.03125 799.59375 L 489.375 803.75 L 491.46875 801.5625 L 498.4375 794.25 L 505.625 798.5 L 508.1875 800.03125 L 511.25 794.875 L 508.6875 793.34375 L 502.6875 789.78125 L 505.75 786.5625 A 3.0003 3.0003 0 0 0 506.5625 784.40625 L 506.21875 775.375 L 514.6875 775.375 L 513.4375 798.625 A 3.0003 3.0003 0 0 0 516.1875 801.78125 L 525.46875 802.5 A 3.0003 3.0003 0 0 0 528.625 800.1875 L 530.78125 790.90625 L 531.46875 787.96875 L 525.59375 786.625 L 524.9375 789.53125 L 523.375 796.3125 L 519.59375 796.03125 L 520.84375 772.53125 A 3.0003 3.0003 0 0 0 517.84375 769.375 L 506 769.375 L 505.84375 765.09375 L 505.75 762.125 z M 542.21875 765 L 536.21875 765.15625 L 536.28125 768.15625 L 537 797.4375 L 537.0625 800.4375 L 543.0625 800.28125 L 543 797.28125 L 542.28125 768 L 542.21875 765 z M 561.125 782.9375 A 3.0003 3.0003 0 0 0 558.4375 785.9375 L 558.4375 800.9375 A 3.0003 3.0003 0 0 0 561.53125 803.9375 L 580.125 803.21875 L 583.125 803.09375 L 582.875 797.09375 L 579.875 797.21875 L 564.4375 797.8125 L 564.4375 788.9375 L 568.4375 788.9375 L 568.4375 792.375 L 568.4375 795.375 L 574.4375 795.375 L 574.4375 792.375 L 574.4375 788.9375 L 579.09375 788.9375 C 578.73741 790.22112 578.03125 791.75 578.03125 791.75 L 576.6875 794.40625 L 582.0625 797.09375 L 583.40625 794.40625 C 583.40625 794.40625 584.40819 792.461 584.96875 790.21875 C 585.24903 789.09762 585.52068 787.89522 585.125 786.3125 C 584.92716 785.52114 584.4786 784.58913 583.625 783.90625 C 582.7714 783.22337 581.66518 782.9375 580.71875 782.9375 L 561.4375 782.9375 A 3.0003 3.0003 0 0 0 561.125 782.9375 z "
       id="path4190" />
    <path
       style="fill:#bf311a;stroke:none;stroke-width:6;stroke-linecap:square;stroke-linejoin:round;stroke-miterlimit:4;stroke-opacity:1;stroke-dasharray:none;stroke-dashoffset:0;fill-opacity:1"
       d="m 505.71429,835.21933 57.14285,0 -29.28571,34.28571 z"
       id="path4210"
       inkscape:connector-curvature="0" />
    <g
       id="g4274"
       transform="translate(37.358226,-177.29154)">
      <path
         inkscape:connector-curvature="0"
         id="path4253"
         d="m 176.42857,707.36218 40.71429,-53.57143 -0.71429,28.57143 50,0 0.71429,25.71429 z"
         style="fill:#9a4f43;fill-opacity:1;stroke:none" />
      <path
         inkscape:connector-curvature="0"
         id="path4255"
         d="m 585,682.36218 90.71429,0.71429 -41.42858,55 L 635,708.79075 585.71429,707.36218 z"
         style="fill:#9a4f43;fill-opacity:1;stroke:none" />
      <g
         transform="matrix(1.6449437,0,0,1,-184.25581,0)"
         id="text4257"
         style="font-size:6px;font-style:normal;font-variant:normal;font-weight:500;font-stretch:normal;text-align:start;line-height:166.67000055%;letter-spacing:0px;word-spacing:0px;text-anchor:start;fill:#9a4f43;fill-opacity:1;stroke:#9a4f43;stroke-width:3.89847255;stroke-miterlimit:4;stroke-opacity:1;stroke-dasharray:none;font-family:Futura;-inkscape-font-specification:Futura Medium">
        <path
           inkscape:connector-curvature="0"
           id="path4262"
           style="font-size:50px;font-weight:normal;fill:#9a4f43;fill-opacity:1;stroke:#9a4f43;stroke-width:3.89847255;stroke-miterlimit:4;stroke-opacity:1;stroke-dasharray:none;font-family:Ubuntu Mono;-inkscape-font-specification:Ubuntu Mono"
           d="m 285.69285,684.09795 c 1.5,-0.36664 2.98333,-0.64998 4.45,-0.85 1.49999,-0.19998 2.89999,-0.29998 4.2,-0.3 3.09999,2e-5 5.43332,0.80002 7,2.4 1.59998,1.60002 2.39998,4.16668 2.4,7.7 l 0,13.6 -4.1,0 0,-12.85 c -1e-5,-1.49999 -0.13335,-2.71665 -0.4,-3.65 -0.26668,-0.93332 -0.65001,-1.64998 -1.15,-2.15 -0.46668,-0.53331 -1.05001,-0.89998 -1.75,-1.1 -0.66668,-0.19998 -1.40001,-0.29998 -2.2,-0.3 -0.66668,2e-5 -1.38334,0.05 -2.15,0.15 -0.73334,0.0667 -1.45001,0.16669 -2.15,0.3 l 0,19.6 -4.15,0 0,-22.55" />
        <path
           inkscape:connector-curvature="0"
           id="path4264"
           style="font-size:50px;font-weight:normal;fill:#9a4f43;fill-opacity:1;stroke:#9a4f43;stroke-width:3.89847255;stroke-miterlimit:4;stroke-opacity:1;stroke-dasharray:none;font-family:Ubuntu Mono;-inkscape-font-specification:Ubuntu Mono"
           d="m 330.14285,695.04795 c -2e-5,1.83334 -0.26669,3.50001 -0.8,5 -0.50002,1.46667 -1.21668,2.73334 -2.15,3.8 -0.93335,1.06667 -2.05002,1.9 -3.35,2.5 -1.30001,0.56667 -2.71668,0.85 -4.25,0.85 -1.50001,0 -2.90001,-0.28333 -4.2,-0.85 -1.26667,-0.6 -2.36667,-1.43333 -3.3,-2.5 -0.93333,-1.06666 -1.66667,-2.33333 -2.2,-3.8 -0.5,-1.49999 -0.75,-3.16666 -0.75,-5 0,-1.83332 0.25,-3.49999 0.75,-5 0.53333,-1.49998 1.26667,-2.76665 2.2,-3.8 0.93333,-1.06665 2.03333,-1.88331 3.3,-2.45 1.29999,-0.59998 2.69999,-0.89998 4.2,-0.9 1.53332,2e-5 2.94999,0.30002 4.25,0.9 1.29998,0.56669 2.41665,1.38335 3.35,2.45 0.93332,1.03335 1.64998,2.30002 2.15,3.8 0.53331,1.50001 0.79998,3.16668 0.8,5 m -4.25,0 c -2e-5,-2.63332 -0.56668,-4.69998 -1.7,-6.2 -1.13335,-1.53331 -2.66668,-2.29998 -4.6,-2.3 -1.90001,2e-5 -3.41667,0.76669 -4.55,2.3 -1.1,1.50002 -1.65,3.56668 -1.65,6.2 0,2.60001 0.55,4.66667 1.65,6.2 1.13333,1.5 2.64999,2.25 4.55,2.25 1.93332,0 3.46665,-0.75 4.6,-2.25 1.13332,-1.53333 1.69998,-3.59999 1.7,-6.2" />
        <path
           inkscape:connector-curvature="0"
           id="path4266"
           style="font-size:50px;font-weight:normal;fill:#9a4f43;fill-opacity:1;stroke:#9a4f43;stroke-width:3.89847255;stroke-miterlimit:4;stroke-opacity:1;stroke-dasharray:none;font-family:Ubuntu Mono;-inkscape-font-specification:Ubuntu Mono"
           d="m 374.69285,700.84795 c -1e-5,-0.83333 -0.35001,-1.51666 -1.05,-2.05 -0.66668,-0.53333 -1.51668,-0.99999 -2.55,-1.4 -1.00001,-0.39999 -2.10001,-0.78332 -3.3,-1.15 -1.20001,-0.39999 -2.31667,-0.88332 -3.35,-1.45 -1,-0.56666 -1.85,-1.26665 -2.55,-2.1 -0.66667,-0.83332 -1,-1.91665 -1,-3.25 0,-1.86665 0.75,-3.41665 2.25,-4.65 1.53333,-1.26664 3.91666,-1.89998 7.15,-1.9 1.26666,2e-5 2.56665,0.10002 3.9,0.3 1.36665,0.16669 2.53332,0.40002 3.5,0.7 l -0.75,3.7 c -0.26668,-0.13331 -0.63335,-0.26665 -1.1,-0.4 -0.46668,-0.16665 -1.00001,-0.29998 -1.6,-0.4 -0.60001,-0.13331 -1.25001,-0.23331 -1.95,-0.3 -0.66668,-0.0666 -1.31668,-0.1 -1.95,-0.1 -3.60001,2e-5 -5.40001,0.98335 -5.4,2.95 -1e-5,0.70002 0.33333,1.30002 1,1.8 0.69999,0.46668 1.56666,0.90001 2.6,1.3 1.03332,0.40001 2.14999,0.81668 3.35,1.25 1.19999,0.40001 2.31665,0.90001 3.35,1.5 1.03332,0.60001 1.88332,1.33334 2.55,2.2 0.69998,0.83334 1.04998,1.90001 1.05,3.2 -2e-5,2.1 -0.81668,3.73333 -2.45,4.9 -1.63335,1.13333 -4.21668,1.7 -7.75,1.7 -1.60001,0 -3.06667,-0.13333 -4.4,-0.4 -1.33334,-0.26667 -2.6,-0.66667 -3.8,-1.2 l 0.8,-3.75 c 1.16666,0.53334 2.38333,0.98334 3.65,1.35 1.29999,0.33334 2.68333,0.5 4.15,0.5 3.76665,0 5.64999,-0.95 5.65,-2.85" />
        <path
           inkscape:connector-curvature="0"
           id="path4268"
           style="font-size:50px;font-weight:normal;fill:#9a4f43;fill-opacity:1;stroke:#9a4f43;stroke-width:3.89847255;stroke-miterlimit:4;stroke-opacity:1;stroke-dasharray:none;font-family:Ubuntu Mono;-inkscape-font-specification:Ubuntu Mono"
           d="m 394.29285,683.44795 9.8,0 0,3.45 -9.8,0 0,10.8 c -10e-6,1.16667 0.0833,2.11667 0.25,2.85 0.16666,0.73334 0.43332,1.33334 0.8,1.8 0.39999,0.43334 0.89999,0.73334 1.5,0.9 0.59999,0.16667 1.33332,0.25 2.2,0.25 1.19998,0 2.16665,-0.1 2.9,-0.3 0.73332,-0.2 1.43331,-0.46666 2.1,-0.8 l 0.6,3.5 c -0.46669,0.2 -1.21669,0.46667 -2.25,0.8 -1.00002,0.33333 -2.25002,0.5 -3.75,0.5 -1.73335,0 -3.15001,-0.2 -4.25,-0.6 -1.10001,-0.4 -1.96667,-1 -2.6,-1.8 -0.60001,-0.8 -1.01667,-1.78333 -1.25,-2.95 -0.23334,-1.19999 -0.35001,-2.58333 -0.35,-4.15 l 0,-10.8 -4.9,0 0,-3.45 4.9,0 0,-6.5 4.1,-0.7 0,7.2" />
        <path
           inkscape:connector-curvature="0"
           id="path4270"
           style="font-size:50px;font-weight:normal;fill:#9a4f43;fill-opacity:1;stroke:#9a4f43;stroke-width:3.89847255;stroke-miterlimit:4;stroke-opacity:1;stroke-dasharray:none;font-family:Ubuntu Mono;-inkscape-font-specification:Ubuntu Mono"
           d="m 420.09285,682.89795 c 3.13332,2e-5 5.54998,0.98336 7.25,2.95 1.69998,1.93335 2.54998,4.88335 2.55,8.85 l 0,1.45 -16.6,0 c 0.16666,2.40001 0.95,4.23334 2.35,5.5 1.43333,1.23334 3.43332,1.85 6,1.85 1.46665,0 2.71665,-0.11666 3.75,-0.35 1.03332,-0.23333 1.81665,-0.48333 2.35,-0.75 l 0.55,3.5 c -0.50002,0.26667 -1.40002,0.55 -2.7,0.85 -1.30001,0.3 -2.76668,0.45 -4.4,0.45 -2.00001,0 -3.76667,-0.3 -5.3,-0.9 -1.5,-0.63333 -2.75,-1.48333 -3.75,-2.55 -1,-1.06666 -1.75,-2.33333 -2.25,-3.8 -0.5,-1.49999 -0.75,-3.11666 -0.75,-4.85 0,-2.06665 0.31667,-3.86665 0.95,-5.4 0.63333,-1.53332 1.46667,-2.79998 2.5,-3.8 1.03333,-0.99998 2.2,-1.74998 3.5,-2.25 1.29999,-0.49998 2.63332,-0.74998 4,-0.75 m 5.6,9.9 c -2e-5,-1.96665 -0.51668,-3.51665 -1.55,-4.65 -1.03335,-1.16665 -2.40001,-1.74998 -4.1,-1.75 -0.96668,2e-5 -1.85001,0.18335 -2.65,0.55 -0.76667,0.36669 -1.43334,0.85002 -2,1.45 -0.56667,0.60002 -1.01667,1.28335 -1.35,2.05 -0.33334,0.76668 -0.55,1.55001 -0.65,2.35 l 12.3,0" />
        <path
           inkscape:connector-curvature="0"
           id="path4272"
           style="font-size:50px;font-weight:normal;fill:#9a4f43;fill-opacity:1;stroke:#9a4f43;stroke-width:3.89847255;stroke-miterlimit:4;stroke-opacity:1;stroke-dasharray:none;font-family:Ubuntu Mono;-inkscape-font-specification:Ubuntu Mono"
           d="m 450.89285,695.09795 c -2e-5,-2.69999 -0.63335,-4.78332 -1.9,-6.25 -1.26668,-1.49998 -2.91668,-2.24998 -4.95,-2.25 -1.13334,2e-5 -2.03334,0.05 -2.7,0.15 -0.63334,0.10002 -1.13334,0.21669 -1.5,0.35 l 0,14.65 c 0.46666,0.43334 1.14999,0.83334 2.05,1.2 0.89999,0.36667 1.83332,0.55 2.8,0.55 1.09999,0 2.03332,-0.21666 2.8,-0.65 0.79999,-0.43333 1.44999,-1.01666 1.95,-1.75 0.49998,-0.76666 0.86665,-1.64999 1.1,-2.65 0.23332,-1.03332 0.34998,-2.14999 0.35,-3.35 m 4.25,0 c -2e-5,1.76668 -0.23335,3.40001 -0.7,4.9 -0.43335,1.46667 -1.08335,2.73334 -1.95,3.8 -0.83335,1.06667 -1.86668,1.9 -3.1,2.5 -1.23335,0.6 -2.63335,0.9 -4.2,0.9 -1.23334,0 -2.31667,-0.15 -3.25,-0.45 -0.93334,-0.3 -1.63334,-0.63333 -2.1,-1 l 0,9.15 -4.15,0 0,-30.75 c 0.9,-0.26664 2.05,-0.53331 3.45,-0.8 1.43333,-0.26664 3.06666,-0.39998 4.9,-0.4 1.66666,2e-5 3.18332,0.28336 4.55,0.85 1.36665,0.56669 2.53332,1.38335 3.5,2.45 0.96665,1.03335 1.71665,2.30002 2.25,3.8 0.53331,1.50001 0.79998,3.18335 0.8,5.05" />
      </g>
    </g>
  </g>
</svg>
