<?xml version="1.0" encoding="UTF-8" standalone="no"?>
<!-- Created with Inkscape (http://www.inkscape.org/) -->

<svg
   width="470"
   height="1000"
   viewBox="0 0 124.35416 264.58334"
   version="1.1"
   id="svg1"
   xml:space="preserve"
   sodipodi:docname="find.svg"
   inkscape:version="1.3.1 (91b66b0, 2023-11-16)"
   inkscape:export-filename="../../../../find icon light.png"
   inkscape:export-xdpi="5.4630094"
   inkscape:export-ydpi="5.4630094"
   xmlns:inkscape="http://www.inkscape.org/namespaces/inkscape"
   xmlns:sodipodi="http://sodipodi.sourceforge.net/DTD/sodipodi-0.dtd"
   xmlns="http://www.w3.org/2000/svg"
   xmlns:svg="http://www.w3.org/2000/svg"><sodipodi:namedview
     id="namedview1"
     pagecolor="#ffffff"
     bordercolor="#000000"
     borderopacity="0.25"
     inkscape:showpageshadow="2"
     inkscape:pageopacity="0.0"
     inkscape:pagecheckerboard="0"
     inkscape:deskcolor="#d1d1d1"
     inkscape:document-units="mm"
     inkscape:zoom="0.49578367"
     inkscape:cx="83.705863"
     inkscape:cy="585.94104"
     inkscape:window-width="1472"
     inkscape:window-height="806"
     inkscape:window-x="0"
     inkscape:window-y="37"
     inkscape:window-maximized="0"
     inkscape:current-layer="layer1" /><defs
     id="defs1" /><g
     inkscape:label="Layer 1"
     inkscape:groupmode="layer"
     id="layer1"><path
       style="fill:#000000"
       id="path6"
       d="" /><rect
       style="display:inline;fill:#2d2d2d;fill-opacity:1;stroke-width:0.264583"
       id="rect5-3"
       width="120.88576"
       height="120.88576"
       x="1.7342046"
       y="1.7342046"
       ry="18.588457" /><rect
       style="fill:#191919;fill-opacity:1;stroke-width:0.243038"
       id="rect5"
       width="111.53525"
       height="110.55098"
       x="6.4094596"
       y="6.9015937"
       ry="16.99929" /><path
       style="fill:#fdffff;fill-opacity:1;stroke:none"
       d="m 49.850721,66.464097 c -1.28807,0.49902 -2.21741,1.71609 -3.175,2.67369 l -5.68158,5.681574 c -6.60622,6.60622 -13.552711,13.00368 -19.869927,19.885531 -2.150887,2.343127 -2.248474,6.019128 0,8.348558 2.226985,2.30716 5.943618,2.40681 8.339657,0.30997 7.05635,-6.175211 13.42074,-13.389788 20.05263,-20.021689 l 5.68158,-5.68158 c 0.95759,-0.95759 2.17466,-1.88693 2.67369,-3.175 2.3808,1.12602 4.49555,2.57879 7.01842,3.45171 7.18572,2.48625 15.27103,2.15251 22.225,-0.92205 18.856499,-8.337044 24.122849,-34.744443 8.85593,-49.137072 -12.57881,-11.858471 -33.39557,-11.24328 -44.44922,2.491622 -1.97755,2.457229 -3.6581,5.228679 -4.77514,8.188157 -2.5306,6.704579 -2.69788,14.288555 -0.2896,21.055267 0.87057,2.44608 2.18254,4.575952 3.39356,6.851312 m 22.89341,-39.054924 c 2.53956,-0.30372 5.22242,0.0229 7.68685,0.641862 2.6283,0.660124 5.14797,1.809906 7.35263,3.392521 12.816169,9.200106 11.91447,29.376519 -1.83816,37.239711 -2.54826,1.45699 -5.4276,2.44813 -8.35526,2.76627 -3.44479,0.37433 -6.9082,0.0787 -10.19342,-1.09057 -13.67508,-4.86699 -18.84478,-21.830709 -10.69048,-33.639607 1.71682,-2.486272 3.95466,-4.519246 6.51285,-6.111851 2.89761,-1.803924 6.15046,-2.794755 9.52499,-3.198336 m -0.33421,7.044082 c -3.29908,0.514198 -7.01552,2.015478 -9.06365,4.772684 -0.34464,0.463956 -0.64308,0.960769 -0.84391,1.503948 -1.62224,4.38766 4.04955,5.189983 7.06677,4.797697 3.31254,-0.43068 7.26745,-2.102233 9.17326,-4.964803 3.11197,-4.674281 -2.46114,-6.712916 -6.33247,-6.109526 z"
       id="path7" /><path
       style="fill:#000000"
       id="path6-0"
       d="" /><rect
       style="display:inline;fill:#2d2d2d;fill-opacity:1;stroke-width:0.264583"
       id="rect5-3-5"
       width="120.88576"
       height="120.88576"
       x="1.7342046"
       y="139.69008"
       ry="18.588457" /><rect
       style="fill:#191919;fill-opacity:1;stroke-width:0.243038"
       id="rect5-2"
       width="111.53525"
       height="110.55098"
       x="6.4094596"
       y="144.85747"
       ry="16.99929" /><path
       style="fill:#bfbfbf;stroke:none"
       d="m 49.850723,204.41997 c -1.28807,0.49902 -2.21741,1.71609 -3.175,2.67369 l -5.68158,5.68157 c -6.60622,6.60622 -13.552711,13.00368 -19.869927,19.88553 -2.150887,2.34313 -2.248474,6.01913 0,8.34856 2.226985,2.30716 5.943618,2.40681 8.339657,0.30997 7.05635,-6.17521 13.42074,-13.38979 20.05263,-20.02169 l 5.68158,-5.68158 c 0.95759,-0.95759 2.17466,-1.88693 2.67369,-3.175 2.3808,1.12602 4.49555,2.57879 7.01842,3.45171 7.18572,2.48625 15.271027,2.15251 22.224997,-0.92205 18.8565,-8.33704 24.12285,-34.74444 8.85593,-49.13707 -12.57881,-11.85847 -33.395567,-11.24328 -44.449217,2.49162 -1.97755,2.45723 -3.6581,5.22868 -4.77514,8.18816 -2.5306,6.70458 -2.69788,14.28855 -0.2896,21.05526 0.87057,2.44608 2.18254,4.57596 3.39356,6.85132 m 22.89341,-39.05493 c 2.53956,-0.30372 5.222417,0.0229 7.686847,0.64186 2.6283,0.66013 5.14797,1.80991 7.35263,3.39253 12.81617,9.2001 11.91447,29.37651 -1.83816,37.23971 -2.54826,1.45699 -5.4276,2.44813 -8.35526,2.76627 -3.444787,0.37433 -6.908197,0.0787 -10.193417,-1.09057 -13.67508,-4.86699 -18.84478,-21.83071 -10.69048,-33.63961 1.71682,-2.48627 3.95466,-4.51925 6.51285,-6.11185 2.89761,-1.80393 6.15046,-2.79476 9.52499,-3.19834 m -0.33421,7.04408 c -3.29908,0.5142 -7.01552,2.01548 -9.06365,4.77269 -0.34464,0.46395 -0.64308,0.96077 -0.84391,1.50395 -1.62224,4.38766 4.04955,5.18998 7.06677,4.79769 3.31254,-0.43068 7.267447,-2.10223 9.173257,-4.9648 3.11197,-4.67428 -2.46114,-6.71292 -6.332467,-6.10953 z"
       id="path7-2" /></g></svg>
